<svg width="801" height="842" viewBox="0 0 801 842" fill="none" xmlns="http://www.w3.org/2000/svg">
<rect width="801" height="842" fill="white"/>
<path d="M307 94.836L302.65 92.371C301.773 93.9176 301.784 95.8133 302.678 97.3499L307 94.836ZM354.325 176.2L350.003 178.714C350.899 180.253 352.545 181.2 354.325 181.2V176.2ZM353.371 13V8C351.57 8 349.908 8.96833 349.021 10.5351L353.371 13ZM450.757 176.2V181.2C452.551 181.2 454.207 180.239 455.097 178.682L450.757 176.2ZM449.802 13L454.139 10.5128C453.248 8.95858 451.593 8 449.802 8V13ZM497 95.3093L501.341 97.7908C502.221 96.2512 502.22 94.3605 501.337 92.8221L497 95.3093ZM302.678 97.3499L350.003 178.714L358.648 173.686L311.322 92.322L302.678 97.3499ZM311.35 97.3009L357.721 15.4649L349.021 10.5351L302.65 92.371L311.35 97.3009ZM354.325 181.2H450.757V171.2H354.325V181.2ZM353.371 18H449.802V8H353.371V18ZM492.659 92.8278L446.416 173.718L455.097 178.682L501.341 97.7908L492.659 92.8278ZM501.337 92.8221L454.139 10.5128L445.464 15.4872L492.663 97.7965L501.337 92.8221Z" fill="#B5A89B"/>
<path d="M307 257.836L302.65 255.371C301.773 256.918 301.784 258.813 302.678 260.35L307 257.836ZM354.325 339.2L350.003 341.714C350.899 343.253 352.545 344.2 354.325 344.2V339.2ZM353.371 176V171C351.57 171 349.908 171.968 349.021 173.535L353.371 176ZM450.757 339.2V344.2C452.551 344.2 454.207 343.239 455.097 341.682L450.757 339.2ZM449.802 176L454.139 173.513C453.248 171.959 451.593 171 449.802 171V176ZM497 258.309L501.341 260.791C502.221 259.251 502.22 257.361 501.337 255.822L497 258.309ZM302.678 260.35L350.003 341.714L358.648 336.686L311.322 255.322L302.678 260.35ZM311.35 260.301L357.721 178.465L349.021 173.535L302.65 255.371L311.35 260.301ZM354.325 344.2H450.757V334.2H354.325V344.2ZM353.371 181H449.802V171H353.371V181ZM492.659 255.828L446.416 336.718L455.097 341.682L501.341 260.791L492.659 255.828ZM501.337 255.822L454.139 173.513L445.464 178.487L492.663 260.797L501.337 255.822Z" fill="#B5A89B"/>
<path d="M307 420.836L302.65 418.371C301.773 419.918 301.784 421.813 302.678 423.35L307 420.836ZM354.325 502.2L350.003 504.714C350.899 506.253 352.545 507.2 354.325 507.2V502.2ZM353.371 339V334C351.57 334 349.908 334.968 349.021 336.535L353.371 339ZM450.757 502.2V507.2C452.551 507.2 454.207 506.239 455.097 504.682L450.757 502.2ZM449.802 339L454.139 336.513C453.248 334.959 451.593 334 449.802 334V339ZM497 421.309L501.341 423.791C502.221 422.251 502.22 420.361 501.337 418.822L497 421.309ZM302.678 423.35L350.003 504.714L358.648 499.686L311.322 418.322L302.678 423.35ZM311.35 423.301L357.721 341.465L349.021 336.535L302.65 418.371L311.35 423.301ZM354.325 507.2H450.757V497.2H354.325V507.2ZM353.371 344H449.802V334H353.371V344ZM492.659 418.828L446.416 499.718L455.097 504.682L501.341 423.791L492.659 418.828ZM501.337 418.822L454.139 336.513L445.464 341.487L492.663 423.797L501.337 418.822Z" fill="#B5A89B"/>
<path d="M307 583.836L302.65 581.371C301.773 582.918 301.784 584.813 302.678 586.35L307 583.836ZM354.325 665.2L350.003 667.714C350.899 669.253 352.545 670.2 354.325 670.2V665.2ZM353.371 502V497C351.57 497 349.908 497.968 349.021 499.535L353.371 502ZM450.757 665.2V670.2C452.551 670.2 454.207 669.239 455.097 667.682L450.757 665.2ZM449.802 502L454.139 499.513C453.248 497.959 451.593 497 449.802 497V502ZM497 584.309L501.341 586.791C502.221 585.251 502.22 583.361 501.337 581.822L497 584.309ZM302.678 586.35L350.003 667.714L358.648 662.686L311.322 581.322L302.678 586.35ZM311.35 586.301L357.721 504.465L349.021 499.535L302.65 581.371L311.35 586.301ZM354.325 670.2H450.757V660.2H354.325V670.2ZM353.371 507H449.802V497H353.371V507ZM492.659 581.828L446.416 662.718L455.097 667.682L501.341 586.791L492.659 581.828ZM501.337 581.822L454.139 499.513L445.464 504.487L492.663 586.797L501.337 581.822Z" fill="#B5A89B"/>
<path d="M307 746.836L302.65 744.371C301.773 745.918 301.784 747.813 302.678 749.35L307 746.836ZM354.325 828.2L350.003 830.714C350.899 832.253 352.545 833.2 354.325 833.2V828.2ZM353.371 665V660C351.57 660 349.908 660.968 349.021 662.535L353.371 665ZM450.757 828.2V833.2C452.551 833.2 454.207 832.239 455.097 830.682L450.757 828.2ZM449.802 665L454.139 662.513C453.248 660.959 451.593 660 449.802 660V665ZM497 747.309L501.341 749.791C502.221 748.251 502.22 746.361 501.337 744.822L497 747.309ZM302.678 749.35L350.003 830.714L358.648 825.686L311.322 744.322L302.678 749.35ZM311.35 749.301L357.721 667.465L349.021 662.535L302.65 744.371L311.35 749.301ZM354.325 833.2H450.757V823.2H354.325V833.2ZM353.371 670H449.802V660H353.371V670ZM492.659 744.828L446.416 825.718L455.097 830.682L501.341 749.791L492.659 744.828ZM501.337 744.822L454.139 662.513L445.464 667.487L492.663 749.797L501.337 744.822Z" fill="#B5A89B"/>
<path d="M307 94.836L302.65 92.371C301.773 93.9176 301.784 95.8133 302.678 97.3499L307 94.836ZM354.325 176.2L350.003 178.714C350.899 180.253 352.545 181.2 354.325 181.2V176.2ZM353.371 13V8C351.57 8 349.908 8.96833 349.021 10.5351L353.371 13ZM450.757 176.2V181.2C452.551 181.2 454.207 180.239 455.097 178.682L450.757 176.2ZM449.802 13L454.139 10.5128C453.248 8.95858 451.593 8 449.802 8V13ZM497 95.3093L501.341 97.7908C502.221 96.2512 502.22 94.3605 501.337 92.8221L497 95.3093ZM302.678 97.3499L350.003 178.714L358.648 173.686L311.322 92.322L302.678 97.3499ZM311.35 97.3009L357.721 15.4649L349.021 10.5351L302.65 92.371L311.35 97.3009ZM354.325 181.2H450.757V171.2H354.325V181.2ZM353.371 18H449.802V8H353.371V18ZM492.659 92.8278L446.416 173.718L455.097 178.682L501.341 97.7908L492.659 92.8278ZM501.337 92.8221L454.139 10.5128L445.464 15.4872L492.663 97.7965L501.337 92.8221Z" fill="#B5A89B"/>
<path d="M161 176.836L156.65 174.371C155.773 175.918 155.784 177.813 156.678 179.35L161 176.836ZM208.325 258.2L204.003 260.714C204.899 262.253 206.545 263.2 208.325 263.2V258.2ZM207.371 95V90C205.57 90 203.908 90.9683 203.021 92.5351L207.371 95ZM304.757 258.2V263.2C306.551 263.2 308.207 262.239 309.097 260.682L304.757 258.2ZM303.802 95L308.139 92.5128C307.248 90.9586 305.593 90 303.802 90V95ZM351 177.309L355.341 179.791C356.221 178.251 356.22 176.361 355.337 174.822L351 177.309ZM156.678 179.35L204.003 260.714L212.648 255.686L165.322 174.322L156.678 179.35ZM165.35 179.301L211.721 97.4649L203.021 92.5351L156.65 174.371L165.35 179.301ZM208.325 263.2H304.757V253.2H208.325V263.2ZM207.371 100H303.802V90H207.371V100ZM346.659 174.828L300.416 255.718L309.097 260.682L355.341 179.791L346.659 174.828ZM355.337 174.822L308.139 92.5128L299.464 97.4872L346.663 179.797L355.337 174.822Z" fill="#B5A89B"/>
<path d="M307 257.836L302.65 255.371C301.773 256.918 301.784 258.813 302.678 260.35L307 257.836ZM354.325 339.2L350.003 341.714C350.899 343.253 352.545 344.2 354.325 344.2V339.2ZM353.371 176V171C351.57 171 349.908 171.968 349.021 173.535L353.371 176ZM450.757 339.2V344.2C452.551 344.2 454.207 343.239 455.097 341.682L450.757 339.2ZM449.802 176L454.139 173.513C453.248 171.959 451.593 171 449.802 171V176ZM497 258.309L501.341 260.791C502.221 259.251 502.22 257.361 501.337 255.822L497 258.309ZM302.678 260.35L350.003 341.714L358.648 336.686L311.322 255.322L302.678 260.35ZM311.35 260.301L357.721 178.465L349.021 173.535L302.65 255.371L311.35 260.301ZM354.325 344.2H450.757V334.2H354.325V344.2ZM353.371 181H449.802V171H353.371V181ZM492.659 255.828L446.416 336.718L455.097 341.682L501.341 260.791L492.659 255.828ZM501.337 255.822L454.139 173.513L445.464 178.487L492.663 260.797L501.337 255.822Z" fill="#B5A89B"/>
<path d="M161 339.836L156.65 337.371C155.773 338.918 155.784 340.813 156.678 342.35L161 339.836ZM208.325 421.2L204.003 423.714C204.899 425.253 206.545 426.2 208.325 426.2V421.2ZM207.371 258V253C205.57 253 203.908 253.968 203.021 255.535L207.371 258ZM304.757 421.2V426.2C306.551 426.2 308.207 425.239 309.097 423.682L304.757 421.2ZM303.802 258L308.139 255.513C307.248 253.959 305.593 253 303.802 253V258ZM351 340.309L355.341 342.791C356.221 341.251 356.22 339.361 355.337 337.822L351 340.309ZM156.678 342.35L204.003 423.714L212.648 418.686L165.322 337.322L156.678 342.35ZM165.35 342.301L211.721 260.465L203.021 255.535L156.65 337.371L165.35 342.301ZM208.325 426.2H304.757V416.2H208.325V426.2ZM207.371 263H303.802V253H207.371V263ZM346.659 337.828L300.416 418.718L309.097 423.682L355.341 342.791L346.659 337.828ZM355.337 337.822L308.139 255.513L299.464 260.487L346.663 342.797L355.337 337.822Z" fill="#B5A89B"/>
<path d="M307 420.836L302.65 418.371C301.773 419.918 301.784 421.813 302.678 423.35L307 420.836ZM354.325 502.2L350.003 504.714C350.899 506.253 352.545 507.2 354.325 507.2V502.2ZM353.371 339V334C351.57 334 349.908 334.968 349.021 336.535L353.371 339ZM450.757 502.2V507.2C452.551 507.2 454.207 506.239 455.097 504.682L450.757 502.2ZM449.802 339L454.139 336.513C453.248 334.959 451.593 334 449.802 334V339ZM497 421.309L501.341 423.791C502.221 422.251 502.22 420.361 501.337 418.822L497 421.309ZM302.678 423.35L350.003 504.714L358.648 499.686L311.322 418.322L302.678 423.35ZM311.35 423.301L357.721 341.465L349.021 336.535L302.65 418.371L311.35 423.301ZM354.325 507.2H450.757V497.2H354.325V507.2ZM353.371 344H449.802V334H353.371V344ZM492.659 418.828L446.416 499.718L455.097 504.682L501.341 423.791L492.659 418.828ZM501.337 418.822L454.139 336.513L445.464 341.487L492.663 423.797L501.337 418.822Z" fill="#B5A89B"/>
<path d="M161 502.836L156.65 500.371C155.773 501.918 155.784 503.813 156.678 505.35L161 502.836ZM208.325 584.2L204.003 586.714C204.899 588.253 206.545 589.2 208.325 589.2V584.2ZM207.371 421V416C205.57 416 203.908 416.968 203.021 418.535L207.371 421ZM304.757 584.2V589.2C306.551 589.2 308.207 588.239 309.097 586.682L304.757 584.2ZM303.802 421L308.139 418.513C307.248 416.959 305.593 416 303.802 416V421ZM351 503.309L355.341 505.791C356.221 504.251 356.22 502.361 355.337 500.822L351 503.309ZM156.678 505.35L204.003 586.714L212.648 581.686L165.322 500.322L156.678 505.35ZM165.35 505.301L211.721 423.465L203.021 418.535L156.65 500.371L165.35 505.301ZM208.325 589.2H304.757V579.2H208.325V589.2ZM207.371 426H303.802V416H207.371V426ZM346.659 500.828L300.416 581.718L309.097 586.682L355.341 505.791L346.659 500.828ZM355.337 500.822L308.139 418.513L299.464 423.487L346.663 505.797L355.337 500.822Z" fill="#B5A89B"/>
<path d="M307 583.836L302.65 581.371C301.773 582.918 301.784 584.813 302.678 586.35L307 583.836ZM354.325 665.2L350.003 667.714C350.899 669.253 352.545 670.2 354.325 670.2V665.2ZM353.371 502V497C351.57 497 349.908 497.968 349.021 499.535L353.371 502ZM450.757 665.2V670.2C452.551 670.2 454.207 669.239 455.097 667.682L450.757 665.2ZM449.802 502L454.139 499.513C453.248 497.959 451.593 497 449.802 497V502ZM497 584.309L501.341 586.791C502.221 585.251 502.22 583.361 501.337 581.822L497 584.309ZM302.678 586.35L350.003 667.714L358.648 662.686L311.322 581.322L302.678 586.35ZM311.35 586.301L357.721 504.465L349.021 499.535L302.65 581.371L311.35 586.301ZM354.325 670.2H450.757V660.2H354.325V670.2ZM353.371 507H449.802V497H353.371V507ZM492.659 581.828L446.416 662.718L455.097 667.682L501.341 586.791L492.659 581.828ZM501.337 581.822L454.139 499.513L445.464 504.487L492.663 586.797L501.337 581.822Z" fill="#B5A89B"/>
<path d="M161 665.836L156.65 663.371C155.773 664.918 155.784 666.813 156.678 668.35L161 665.836ZM208.325 747.2L204.003 749.714C204.899 751.253 206.545 752.2 208.325 752.2V747.2ZM207.371 584V579C205.57 579 203.908 579.968 203.021 581.535L207.371 584ZM304.757 747.2V752.2C306.551 752.2 308.207 751.239 309.097 749.682L304.757 747.2ZM303.802 584L308.139 581.513C307.248 579.959 305.593 579 303.802 579V584ZM351 666.309L355.341 668.791C356.221 667.251 356.22 665.361 355.337 663.822L351 666.309ZM156.678 668.35L204.003 749.714L212.648 744.686L165.322 663.322L156.678 668.35ZM165.35 668.301L211.721 586.465L203.021 581.535L156.65 663.371L165.35 668.301ZM208.325 752.2H304.757V742.2H208.325V752.2ZM207.371 589H303.802V579H207.371V589ZM346.659 663.828L300.416 744.718L309.097 749.682L355.341 668.791L346.659 663.828ZM355.337 663.822L308.139 581.513L299.464 586.487L346.663 668.797L355.337 663.822Z" fill="#B5A89B"/>
<path d="M161 176.836L156.65 174.371C155.773 175.918 155.784 177.813 156.678 179.35L161 176.836ZM208.325 258.2L204.003 260.714C204.899 262.253 206.545 263.2 208.325 263.2V258.2ZM207.371 95V90C205.57 90 203.908 90.9683 203.021 92.5351L207.371 95ZM304.757 258.2V263.2C306.551 263.2 308.207 262.239 309.097 260.682L304.757 258.2ZM303.802 95L308.139 92.5128C307.248 90.9586 305.593 90 303.802 90V95ZM351 177.309L355.341 179.791C356.221 178.251 356.22 176.361 355.337 174.822L351 177.309ZM156.678 179.35L204.003 260.714L212.648 255.686L165.322 174.322L156.678 179.35ZM165.35 179.301L211.721 97.4649L203.021 92.5351L156.65 174.371L165.35 179.301ZM208.325 263.2H304.757V253.2H208.325V263.2ZM207.371 100H303.802V90H207.371V100ZM346.659 174.828L300.416 255.718L309.097 260.682L355.341 179.791L346.659 174.828ZM355.337 174.822L308.139 92.5128L299.464 97.4872L346.663 179.797L355.337 174.822Z" fill="#B5A89B"/>
<path d="M449 176.836L444.65 174.371C443.773 175.918 443.784 177.813 444.678 179.35L449 176.836ZM496.325 258.2L492.003 260.714C492.899 262.253 494.545 263.2 496.325 263.2V258.2ZM495.371 95V90C493.57 90 491.908 90.9683 491.021 92.5351L495.371 95ZM592.757 258.2V263.2C594.551 263.2 596.207 262.239 597.097 260.682L592.757 258.2ZM591.802 95L596.139 92.5128C595.248 90.9586 593.593 90 591.802 90V95ZM639 177.309L643.341 179.791C644.221 178.251 644.22 176.361 643.337 174.822L639 177.309ZM444.678 179.35L492.003 260.714L500.648 255.686L453.322 174.322L444.678 179.35ZM453.35 179.301L499.721 97.4649L491.021 92.5351L444.65 174.371L453.35 179.301ZM496.325 263.2H592.757V253.2H496.325V263.2ZM495.371 100H591.802V90H495.371V100ZM634.659 174.828L588.416 255.718L597.097 260.682L643.341 179.791L634.659 174.828ZM643.337 174.822L596.139 92.5128L587.464 97.4872L634.663 179.797L643.337 174.822Z" fill="#B5A89B"/>
<path d="M161 339.836L156.65 337.371C155.773 338.918 155.784 340.813 156.678 342.35L161 339.836ZM208.325 421.2L204.003 423.714C204.899 425.253 206.545 426.2 208.325 426.2V421.2ZM207.371 258V253C205.57 253 203.908 253.968 203.021 255.535L207.371 258ZM304.757 421.2V426.2C306.551 426.2 308.207 425.239 309.097 423.682L304.757 421.2ZM303.802 258L308.139 255.513C307.248 253.959 305.593 253 303.802 253V258ZM351 340.309L355.341 342.791C356.221 341.251 356.22 339.361 355.337 337.822L351 340.309ZM156.678 342.35L204.003 423.714L212.648 418.686L165.322 337.322L156.678 342.35ZM165.35 342.301L211.721 260.465L203.021 255.535L156.65 337.371L165.35 342.301ZM208.325 426.2H304.757V416.2H208.325V426.2ZM207.371 263H303.802V253H207.371V263ZM346.659 337.828L300.416 418.718L309.097 423.682L355.341 342.791L346.659 337.828ZM355.337 337.822L308.139 255.513L299.464 260.487L346.663 342.797L355.337 337.822Z" fill="#B5A89B"/>
<path d="M449 339.836L444.65 337.371C443.773 338.918 443.784 340.813 444.678 342.35L449 339.836ZM496.325 421.2L492.003 423.714C492.899 425.253 494.545 426.2 496.325 426.2V421.2ZM495.371 258V253C493.57 253 491.908 253.968 491.021 255.535L495.371 258ZM592.757 421.2V426.2C594.551 426.2 596.207 425.239 597.097 423.682L592.757 421.2ZM591.802 258L596.139 255.513C595.248 253.959 593.593 253 591.802 253V258ZM639 340.309L643.341 342.791C644.221 341.251 644.22 339.361 643.337 337.822L639 340.309ZM444.678 342.35L492.003 423.714L500.648 418.686L453.322 337.322L444.678 342.35ZM453.35 342.301L499.721 260.465L491.021 255.535L444.65 337.371L453.35 342.301ZM496.325 426.2H592.757V416.2H496.325V426.2ZM495.371 263H591.802V253H495.371V263ZM634.659 337.828L588.416 418.718L597.097 423.682L643.341 342.791L634.659 337.828ZM643.337 337.822L596.139 255.513L587.464 260.487L634.663 342.797L643.337 337.822Z" fill="#B5A89B"/>
<path d="M161 502.836L156.65 500.371C155.773 501.918 155.784 503.813 156.678 505.35L161 502.836ZM208.325 584.2L204.003 586.714C204.899 588.253 206.545 589.2 208.325 589.2V584.2ZM207.371 421V416C205.57 416 203.908 416.968 203.021 418.535L207.371 421ZM304.757 584.2V589.2C306.551 589.2 308.207 588.239 309.097 586.682L304.757 584.2ZM303.802 421L308.139 418.513C307.248 416.959 305.593 416 303.802 416V421ZM351 503.309L355.341 505.791C356.221 504.251 356.22 502.361 355.337 500.822L351 503.309ZM156.678 505.35L204.003 586.714L212.648 581.686L165.322 500.322L156.678 505.35ZM165.35 505.301L211.721 423.465L203.021 418.535L156.65 500.371L165.35 505.301ZM208.325 589.2H304.757V579.2H208.325V589.2ZM207.371 426H303.802V416H207.371V426ZM346.659 500.828L300.416 581.718L309.097 586.682L355.341 505.791L346.659 500.828ZM355.337 500.822L308.139 418.513L299.464 423.487L346.663 505.797L355.337 500.822Z" fill="#B5A89B"/>
<path d="M449 502.836L444.65 500.371C443.773 501.918 443.784 503.813 444.678 505.35L449 502.836ZM496.325 584.2L492.003 586.714C492.899 588.253 494.545 589.2 496.325 589.2V584.2ZM495.371 421V416C493.57 416 491.908 416.968 491.021 418.535L495.371 421ZM592.757 584.2V589.2C594.551 589.2 596.207 588.239 597.097 586.682L592.757 584.2ZM591.802 421L596.139 418.513C595.248 416.959 593.593 416 591.802 416V421ZM639 503.309L643.341 505.791C644.221 504.251 644.22 502.361 643.337 500.822L639 503.309ZM444.678 505.35L492.003 586.714L500.648 581.686L453.322 500.322L444.678 505.35ZM453.35 505.301L499.721 423.465L491.021 418.535L444.65 500.371L453.35 505.301ZM496.325 589.2H592.757V579.2H496.325V589.2ZM495.371 426H591.802V416H495.371V426ZM634.659 500.828L588.416 581.718L597.097 586.682L643.341 505.791L634.659 500.828ZM643.337 500.822L596.139 418.513L587.464 423.487L634.663 505.797L643.337 500.822Z" fill="#B5A89B"/>
<path d="M161 665.836L156.65 663.371C155.773 664.918 155.784 666.813 156.678 668.35L161 665.836ZM208.325 747.2L204.003 749.714C204.899 751.253 206.545 752.2 208.325 752.2V747.2ZM207.371 584V579C205.57 579 203.908 579.968 203.021 581.535L207.371 584ZM304.757 747.2V752.2C306.551 752.2 308.207 751.239 309.097 749.682L304.757 747.2ZM303.802 584L308.139 581.513C307.248 579.959 305.593 579 303.802 579V584ZM351 666.309L355.341 668.791C356.221 667.251 356.22 665.361 355.337 663.822L351 666.309ZM156.678 668.35L204.003 749.714L212.648 744.686L165.322 663.322L156.678 668.35ZM165.35 668.301L211.721 586.465L203.021 581.535L156.65 663.371L165.35 668.301ZM208.325 752.2H304.757V742.2H208.325V752.2ZM207.371 589H303.802V579H207.371V589ZM346.659 663.828L300.416 744.718L309.097 749.682L355.341 668.791L346.659 663.828ZM355.337 663.822L308.139 581.513L299.464 586.487L346.663 668.797L355.337 663.822Z" fill="#B5A89B"/>
<path d="M449 665.836L444.65 663.371C443.773 664.918 443.784 666.813 444.678 668.35L449 665.836ZM496.325 747.2L492.003 749.714C492.899 751.253 494.545 752.2 496.325 752.2V747.2ZM495.371 584V579C493.57 579 491.908 579.968 491.021 581.535L495.371 584ZM592.757 747.2V752.2C594.551 752.2 596.207 751.239 597.097 749.682L592.757 747.2ZM591.802 584L596.139 581.513C595.248 579.959 593.593 579 591.802 579V584ZM639 666.309L643.341 668.791C644.221 667.251 644.22 665.361 643.337 663.822L639 666.309ZM444.678 668.35L492.003 749.714L500.648 744.686L453.322 663.322L444.678 668.35ZM453.35 668.301L499.721 586.465L491.021 581.535L444.65 663.371L453.35 668.301ZM496.325 752.2H592.757V742.2H496.325V752.2ZM495.371 589H591.802V579H495.371V589ZM634.659 663.828L588.416 744.718L597.097 749.682L643.341 668.791L634.659 663.828ZM643.337 663.822L596.139 581.513L587.464 586.487L634.663 668.797L643.337 663.822Z" fill="#B5A89B"/>
<path d="M593 257.836L588.65 255.371C587.773 256.918 587.784 258.813 588.678 260.35L593 257.836ZM640.325 339.2L636.003 341.714C636.899 343.253 638.545 344.2 640.325 344.2V339.2ZM639.371 176V171C637.57 171 635.908 171.968 635.021 173.535L639.371 176ZM736.757 339.2V344.2C738.551 344.2 740.207 343.239 741.097 341.682L736.757 339.2ZM735.802 176L740.139 173.513C739.248 171.959 737.593 171 735.802 171V176ZM783 258.309L787.341 260.791C788.221 259.251 788.22 257.361 787.337 255.822L783 258.309ZM588.678 260.35L636.003 341.714L644.648 336.686L597.322 255.322L588.678 260.35ZM597.35 260.301L643.721 178.465L635.021 173.535L588.65 255.371L597.35 260.301ZM640.325 344.2H736.757V334.2H640.325V344.2ZM639.371 181H735.802V171H639.371V181ZM778.659 255.828L732.416 336.718L741.097 341.682L787.341 260.791L778.659 255.828ZM787.337 255.822L740.139 173.513L731.464 178.487L778.663 260.797L787.337 255.822Z" fill="#B5A89B"/>
<path d="M593 420.836L588.65 418.371C587.773 419.918 587.784 421.813 588.678 423.35L593 420.836ZM640.325 502.2L636.003 504.714C636.899 506.253 638.545 507.2 640.325 507.2V502.2ZM639.371 339V334C637.57 334 635.908 334.968 635.021 336.535L639.371 339ZM736.757 502.2V507.2C738.551 507.2 740.207 506.239 741.097 504.682L736.757 502.2ZM735.802 339L740.139 336.513C739.248 334.959 737.593 334 735.802 334V339ZM783 421.309L787.341 423.791C788.221 422.251 788.22 420.361 787.337 418.822L783 421.309ZM588.678 423.35L636.003 504.714L644.648 499.686L597.322 418.322L588.678 423.35ZM597.35 423.301L643.721 341.465L635.021 336.535L588.65 418.371L597.35 423.301ZM640.325 507.2H736.757V497.2H640.325V507.2ZM639.371 344H735.802V334H639.371V344ZM778.659 418.828L732.416 499.718L741.097 504.682L787.341 423.791L778.659 418.828ZM787.337 418.822L740.139 336.513L731.464 341.487L778.663 423.797L787.337 418.822Z" fill="#B5A89B"/>
<path d="M593 583.836L588.65 581.371C587.773 582.918 587.784 584.813 588.678 586.35L593 583.836ZM640.325 665.2L636.003 667.714C636.899 669.253 638.545 670.2 640.325 670.2V665.2ZM639.371 502V497C637.57 497 635.908 497.968 635.021 499.535L639.371 502ZM736.757 665.2V670.2C738.551 670.2 740.207 669.239 741.097 667.682L736.757 665.2ZM735.802 502L740.139 499.513C739.248 497.959 737.593 497 735.802 497V502ZM783 584.309L787.341 586.791C788.221 585.251 788.22 583.361 787.337 581.822L783 584.309ZM588.678 586.35L636.003 667.714L644.648 662.686L597.322 581.322L588.678 586.35ZM597.35 586.301L643.721 504.465L635.021 499.535L588.65 581.371L597.35 586.301ZM640.325 670.2H736.757V660.2H640.325V670.2ZM639.371 507H735.802V497H639.371V507ZM778.659 581.828L732.416 662.718L741.097 667.682L787.341 586.791L778.659 581.828ZM787.337 581.822L740.139 499.513L731.464 504.487L778.663 586.797L787.337 581.822Z" fill="#B5A89B"/>
<path d="M593 257.836L588.65 255.371C587.773 256.918 587.784 258.813 588.678 260.35L593 257.836ZM640.325 339.2L636.003 341.714C636.899 343.253 638.545 344.2 640.325 344.2V339.2ZM639.371 176V171C637.57 171 635.908 171.968 635.021 173.535L639.371 176ZM736.757 339.2V344.2C738.551 344.2 740.207 343.239 741.097 341.682L736.757 339.2ZM735.802 176L740.139 173.513C739.248 171.959 737.593 171 735.802 171V176ZM783 258.309L787.341 260.791C788.221 259.251 788.22 257.361 787.337 255.822L783 258.309ZM588.678 260.35L636.003 341.714L644.648 336.686L597.322 255.322L588.678 260.35ZM597.35 260.301L643.721 178.465L635.021 173.535L588.65 255.371L597.35 260.301ZM640.325 344.2H736.757V334.2H640.325V344.2ZM639.371 181H735.802V171H639.371V181ZM778.659 255.828L732.416 336.718L741.097 341.682L787.341 260.791L778.659 255.828ZM787.337 255.822L740.139 173.513L731.464 178.487L778.663 260.797L787.337 255.822Z" fill="#B5A89B"/>
<path d="M18 258.836L13.6498 256.371C12.7735 257.918 12.7842 259.813 13.6779 261.35L18 258.836ZM65.3255 340.2L61.0034 342.714C61.8987 344.253 63.5449 345.2 65.3255 345.2V340.2ZM64.3707 177V172C62.5699 172 60.9083 172.968 60.0205 174.535L64.3707 177ZM161.757 340.2V345.2C163.551 345.2 165.207 344.239 166.097 342.682L161.757 340.2ZM160.802 177L165.139 174.513C164.248 172.959 162.593 172 160.802 172V177ZM208 259.309L212.341 261.791C213.221 260.251 213.22 258.361 212.337 256.822L208 259.309ZM13.6779 261.35L61.0034 342.714L69.6475 337.686L22.3221 256.322L13.6779 261.35ZM22.3502 261.301L68.7209 179.465L60.0205 174.535L13.6498 256.371L22.3502 261.301ZM65.3255 345.2H161.757V335.2H65.3255V345.2ZM64.3707 182H160.802V172H64.3707V182ZM203.659 256.828L157.416 337.718L166.097 342.682L212.341 261.791L203.659 256.828ZM212.337 256.822L165.139 174.513L156.464 179.487L203.663 261.797L212.337 256.822Z" fill="#B5A89B"/>
<path d="M593 420.836L588.65 418.371C587.773 419.918 587.784 421.813 588.678 423.35L593 420.836ZM640.325 502.2L636.003 504.714C636.899 506.253 638.545 507.2 640.325 507.2V502.2ZM639.371 339V334C637.57 334 635.908 334.968 635.021 336.535L639.371 339ZM736.757 502.2V507.2C738.551 507.2 740.207 506.239 741.097 504.682L736.757 502.2ZM735.802 339L740.139 336.513C739.248 334.959 737.593 334 735.802 334V339ZM783 421.309L787.341 423.791C788.221 422.251 788.22 420.361 787.337 418.822L783 421.309ZM588.678 423.35L636.003 504.714L644.648 499.686L597.322 418.322L588.678 423.35ZM597.35 423.301L643.721 341.465L635.021 336.535L588.65 418.371L597.35 423.301ZM640.325 507.2H736.757V497.2H640.325V507.2ZM639.371 344H735.802V334H639.371V344ZM778.659 418.828L732.416 499.718L741.097 504.682L787.341 423.791L778.659 418.828ZM787.337 418.822L740.139 336.513L731.464 341.487L778.663 423.797L787.337 418.822Z" fill="#B5A89B"/>
<path d="M18 421.836L13.6498 419.371C12.7735 420.918 12.7842 422.813 13.6779 424.35L18 421.836ZM65.3255 503.2L61.0034 505.714C61.8987 507.253 63.5449 508.2 65.3255 508.2V503.2ZM64.3707 340V335C62.5699 335 60.9083 335.968 60.0205 337.535L64.3707 340ZM161.757 503.2V508.2C163.551 508.2 165.207 507.239 166.097 505.682L161.757 503.2ZM160.802 340L165.139 337.513C164.248 335.959 162.593 335 160.802 335V340ZM208 422.309L212.341 424.791C213.221 423.251 213.22 421.361 212.337 419.822L208 422.309ZM13.6779 424.35L61.0034 505.714L69.6475 500.686L22.3221 419.322L13.6779 424.35ZM22.3502 424.301L68.7209 342.465L60.0205 337.535L13.6498 419.371L22.3502 424.301ZM65.3255 508.2H161.757V498.2H65.3255V508.2ZM64.3707 345H160.802V335H64.3707V345ZM203.659 419.828L157.416 500.718L166.097 505.682L212.341 424.791L203.659 419.828ZM212.337 419.822L165.139 337.513L156.464 342.487L203.663 424.797L212.337 419.822Z" fill="#B5A89B"/>
<path d="M593 583.836L588.65 581.371C587.773 582.918 587.784 584.813 588.678 586.35L593 583.836ZM640.325 665.2L636.003 667.714C636.899 669.253 638.545 670.2 640.325 670.2V665.2ZM639.371 502V497C637.57 497 635.908 497.968 635.021 499.535L639.371 502ZM736.757 665.2V670.2C738.551 670.2 740.207 669.239 741.097 667.682L736.757 665.2ZM735.802 502L740.139 499.513C739.248 497.959 737.593 497 735.802 497V502ZM783 584.309L787.341 586.791C788.221 585.251 788.22 583.361 787.337 581.822L783 584.309ZM588.678 586.35L636.003 667.714L644.648 662.686L597.322 581.322L588.678 586.35ZM597.35 586.301L643.721 504.465L635.021 499.535L588.65 581.371L597.35 586.301ZM640.325 670.2H736.757V660.2H640.325V670.2ZM639.371 507H735.802V497H639.371V507ZM778.659 581.828L732.416 662.718L741.097 667.682L787.341 586.791L778.659 581.828ZM787.337 581.822L740.139 499.513L731.464 504.487L778.663 586.797L787.337 581.822Z" fill="#B5A89B"/>
<path d="M18 584.836L13.6498 582.371C12.7735 583.918 12.7842 585.813 13.6779 587.35L18 584.836ZM65.3255 666.2L61.0034 668.714C61.8987 670.253 63.5449 671.2 65.3255 671.2V666.2ZM64.3707 503V498C62.5699 498 60.9083 498.968 60.0205 500.535L64.3707 503ZM161.757 666.2V671.2C163.551 671.2 165.207 670.239 166.097 668.682L161.757 666.2ZM160.802 503L165.139 500.513C164.248 498.959 162.593 498 160.802 498V503ZM208 585.309L212.341 587.791C213.221 586.251 213.22 584.361 212.337 582.822L208 585.309ZM13.6779 587.35L61.0034 668.714L69.6475 663.686L22.3221 582.322L13.6779 587.35ZM22.3502 587.301L68.7209 505.465L60.0205 500.535L13.6498 582.371L22.3502 587.301ZM65.3255 671.2H161.757V661.2H65.3255V671.2ZM64.3707 508H160.802V498H64.3707V508ZM203.659 582.828L157.416 663.718L166.097 668.682L212.341 587.791L203.659 582.828ZM212.337 582.822L165.139 500.513L156.464 505.487L203.663 587.797L212.337 582.822Z" fill="#B5A89B"/>
<path d="M307 746.836L302.65 744.371C301.773 745.918 301.784 747.813 302.678 749.35L307 746.836ZM354.325 828.2L350.003 830.714C350.899 832.253 352.545 833.2 354.325 833.2V828.2ZM353.371 665V660C351.57 660 349.908 660.968 349.021 662.535L353.371 665ZM450.757 828.2V833.2C452.551 833.2 454.207 832.239 455.097 830.682L450.757 828.2ZM449.802 665L454.139 662.513C453.248 660.959 451.593 660 449.802 660V665ZM497 747.309L501.341 749.791C502.221 748.251 502.22 746.361 501.337 744.822L497 747.309ZM302.678 749.35L350.003 830.714L358.648 825.686L311.322 744.322L302.678 749.35ZM311.35 749.301L357.721 667.465L349.021 662.535L302.65 744.371L311.35 749.301ZM354.325 833.2H450.757V823.2H354.325V833.2ZM353.371 670H449.802V660H353.371V670ZM492.659 744.828L446.416 825.718L455.097 830.682L501.341 749.791L492.659 744.828ZM501.337 744.822L454.139 662.513L445.464 667.487L492.663 749.797L501.337 744.822Z" fill="#B5A89B"/>
<path d="M403.28 370.228L409.14 360.584H414.413L405.771 373.646L414.682 387H409.457L403.354 377.112L397.25 387H392.001L400.912 373.646L392.27 360.584H397.494L403.28 370.228Z" fill="#606FF7"/>
<path d="M356.061 448.384L362.213 428.584H367.047L356.427 459.077C354.783 463.472 352.171 465.669 348.59 465.669L347.735 465.596L346.051 465.278V461.616L347.271 461.714C348.801 461.714 349.99 461.405 350.836 460.786C351.699 460.168 352.407 459.036 352.96 457.393L353.961 454.707L344.537 428.584H349.469L356.061 448.384Z" fill="#FE1919"/>
<path d="M443.861 451.313H459.315V455H438.344V451.68L452.919 432.319H438.563V428.584H458.583V431.782L443.861 451.313Z" fill="#0CC514"/>
<path d="M403.28 370.228L409.14 360.584H414.413L405.771 373.646L414.682 387H409.457L403.354 377.112L397.25 387H392.001L400.912 373.646L392.27 360.584H397.494L403.28 370.228Z" fill="#606FF7"/>
<path d="M356.061 448.384L362.213 428.584H367.047L356.427 459.077C354.783 463.472 352.171 465.669 348.59 465.669L347.735 465.596L346.051 465.278V461.616L347.271 461.714C348.801 461.714 349.99 461.405 350.836 460.786C351.699 460.168 352.407 459.036 352.96 457.393L353.961 454.707L344.537 428.584H349.469L356.061 448.384Z" fill="#FE1919"/>
<path d="M443.861 451.313H459.315V455H438.344V451.68L452.919 432.319H438.563V428.584H458.583V431.782L443.861 451.313Z" fill="#0CC514"/>
<path d="M414.244 542.839C414.244 548.129 413.341 552.059 411.534 554.631C409.728 557.202 406.904 558.488 403.062 558.488C399.27 558.488 396.463 557.235 394.64 554.729C392.817 552.206 391.873 548.446 391.808 543.449V537.419C391.808 532.194 392.711 528.312 394.518 525.773C396.324 523.234 399.156 521.965 403.014 521.965C406.839 521.965 409.654 523.194 411.461 525.651C413.268 528.093 414.195 531.869 414.244 536.979V542.839ZM409.728 536.662C409.728 532.837 409.19 530.054 408.116 528.312C407.042 526.555 405.341 525.676 403.014 525.676C400.702 525.676 399.018 526.547 397.96 528.288C396.902 530.03 396.357 532.707 396.324 536.32V543.547C396.324 547.388 396.878 550.228 397.984 552.067C399.107 553.89 400.8 554.802 403.062 554.802C405.292 554.802 406.944 553.939 408.019 552.214C409.109 550.489 409.679 547.771 409.728 544.06V536.662Z" fill="#606FF7"/>
<path d="M354.817 612.743H342.903V609.057H354.817V612.743ZM373.616 626H369.075V595.897L359.969 599.242V595.141L372.908 590.282H373.616V626Z" fill="#FE1919"/>
<path d="M418.912 606.933H428.824V611.205H418.912V622.436H414.371V611.205H404.459V606.933H414.371V596.557H418.912V606.933ZM448.722 626H444.181V595.897L435.074 599.242V595.141L448.014 590.282H448.722V626Z" fill="#0CC514"/>
<path d="M414.244 713.839C414.244 719.129 413.341 723.059 411.534 725.631C409.728 728.202 406.904 729.488 403.062 729.488C399.27 729.488 396.463 728.235 394.64 725.729C392.817 723.206 391.873 719.446 391.808 714.449V708.419C391.808 703.194 392.711 699.312 394.518 696.773C396.324 694.234 399.156 692.965 403.014 692.965C406.839 692.965 409.654 694.194 411.461 696.651C413.268 699.093 414.195 702.869 414.244 707.979V713.839ZM409.728 707.662C409.728 703.837 409.19 701.054 408.116 699.312C407.042 697.555 405.341 696.676 403.014 696.676C400.702 696.676 399.018 697.547 397.96 699.288C396.902 701.03 396.357 703.707 396.324 707.32V714.547C396.324 718.388 396.878 721.228 397.984 723.067C399.107 724.89 400.8 725.802 403.062 725.802C405.292 725.802 406.944 724.939 408.019 723.214C409.109 721.489 409.679 718.771 409.728 715.06V707.662Z" fill="#606FF7"/>
<path d="M354.817 783.743H342.903V780.057H354.817V783.743ZM382.063 797H358.772V793.753L371.077 780.081C372.9 778.014 374.153 776.338 374.837 775.052C375.537 773.75 375.887 772.407 375.887 771.023C375.887 769.168 375.325 767.646 374.202 766.458C373.079 765.27 371.582 764.676 369.71 764.676C367.464 764.676 365.714 765.319 364.461 766.604C363.224 767.874 362.605 769.648 362.605 771.927H358.089C358.089 768.655 359.139 766.01 361.238 763.992C363.354 761.974 366.178 760.965 369.71 760.965C373.014 760.965 375.626 761.836 377.547 763.577C379.467 765.302 380.428 767.605 380.428 770.486C380.428 773.986 378.198 778.152 373.738 782.986L364.217 793.313H382.063V797Z" fill="#FE1919"/>
<path d="M418.912 777.933H428.824V782.205H418.912V793.436H414.371V782.205H404.459V777.933H414.371V767.557H418.912V777.933ZM457.169 797H433.878V793.753L446.183 780.081C448.006 778.014 449.259 776.338 449.942 775.052C450.642 773.75 450.992 772.407 450.992 771.023C450.992 769.168 450.431 767.646 449.308 766.458C448.185 765.27 446.687 764.676 444.815 764.676C442.569 764.676 440.82 765.319 439.566 766.604C438.329 767.874 437.711 769.648 437.711 771.927H433.194C433.194 768.655 434.244 766.01 436.344 763.992C438.46 761.974 441.284 760.965 444.815 760.965C448.119 760.965 450.732 761.836 452.652 763.577C454.573 765.302 455.533 767.605 455.533 770.486C455.533 773.986 453.303 778.152 448.844 782.986L439.322 793.313H457.169V797Z" fill="#0CC514"/>
<path d="M412.244 44.8389C412.244 50.1286 411.341 54.0592 409.534 56.6309C407.728 59.2025 404.904 60.4883 401.062 60.4883C397.27 60.4883 394.463 59.235 392.64 56.7285C390.817 54.2057 389.873 50.446 389.808 45.4492V39.4189C389.808 34.1943 390.711 30.3125 392.518 27.7734C394.324 25.2344 397.156 23.9648 401.014 23.9648C404.839 23.9648 407.654 25.1937 409.461 27.6514C411.268 30.0928 412.195 33.8688 412.244 38.9795V44.8389ZM407.728 38.6621C407.728 34.8372 407.19 32.054 406.116 30.3125C405.042 28.5547 403.341 27.6758 401.014 27.6758C398.702 27.6758 397.018 28.5465 395.96 30.2881C394.902 32.0296 394.357 34.707 394.324 38.3203V45.5469C394.324 49.388 394.878 52.2282 395.984 54.0674C397.107 55.8903 398.8 56.8018 401.062 56.8018C403.292 56.8018 404.944 55.9391 406.019 54.2139C407.109 52.4886 407.679 49.7705 407.728 46.0596V38.6621Z" fill="#606FF7"/>
<path d="M358.357 117.933H368.27V122.205H358.357V133.436H353.816V122.205H343.904V117.933H353.816V107.557H358.357V117.933ZM396.614 137H373.323V133.753L385.628 120.081C387.451 118.014 388.704 116.338 389.388 115.052C390.088 113.75 390.438 112.407 390.438 111.023C390.438 109.168 389.876 107.646 388.753 106.458C387.63 105.27 386.132 104.676 384.261 104.676C382.015 104.676 380.265 105.319 379.012 106.604C377.775 107.874 377.156 109.648 377.156 111.927H372.64C372.64 108.655 373.689 106.01 375.789 103.992C377.905 101.974 380.729 100.965 384.261 100.965C387.565 100.965 390.177 101.836 392.098 103.577C394.018 105.302 394.979 107.605 394.979 110.486C394.979 113.986 392.749 118.152 388.289 122.986L378.768 133.313H396.614V137Z" fill="#FE1919"/>
<path d="M429.923 123.743H418.009V120.057H429.923V123.743ZM457.169 137H433.878V133.753L446.183 120.081C448.006 118.014 449.259 116.338 449.942 115.052C450.642 113.75 450.992 112.407 450.992 111.023C450.992 109.168 450.431 107.646 449.308 106.458C448.185 105.27 446.687 104.676 444.815 104.676C442.569 104.676 440.82 105.319 439.566 106.604C438.329 107.874 437.711 109.648 437.711 111.927H433.194C433.194 108.655 434.244 106.01 436.344 103.992C438.46 101.974 441.284 100.965 444.815 100.965C448.119 100.965 450.732 101.836 452.652 103.577C454.573 105.302 455.533 107.605 455.533 110.486C455.533 113.986 453.303 118.152 448.844 122.986L439.322 133.313H457.169V137Z" fill="#0CC514"/>
<path d="M249.817 143.743H237.903V140.057H249.817V143.743ZM268.616 157H264.075V126.897L254.969 130.242V126.141L267.908 121.282H268.616V157Z" fill="#606FF7"/>
<path d="M206.357 205.933H216.27V210.205H206.357V221.436H201.816V210.205H191.904V205.933H201.816V195.557H206.357V205.933ZM244.614 225H221.323V221.753L233.628 208.081C235.451 206.014 236.704 204.338 237.388 203.052C238.088 201.75 238.438 200.407 238.438 199.023C238.438 197.168 237.876 195.646 236.753 194.458C235.63 193.27 234.132 192.676 232.261 192.676C230.015 192.676 228.265 193.319 227.012 194.604C225.775 195.874 225.156 197.648 225.156 199.927H220.64C220.64 196.655 221.689 194.01 223.789 191.992C225.905 189.974 228.729 188.965 232.261 188.965C235.565 188.965 238.177 189.836 240.098 191.577C242.018 193.302 242.979 195.605 242.979 198.486C242.979 201.986 240.749 206.152 236.289 210.986L226.768 221.313H244.614V225Z" fill="#FE1919"/>
<path d="M277.923 211.743H266.009V208.057H277.923V211.743ZM296.722 225H292.181V194.897L283.074 198.242V194.141L296.014 189.282H296.722V225Z" fill="#0CC514"/>
<path d="M111.817 223.743H99.9033V220.057H111.817V223.743ZM139.063 237H115.772V233.753L128.077 220.081C129.9 218.014 131.153 216.338 131.837 215.052C132.537 213.75 132.887 212.407 132.887 211.023C132.887 209.168 132.325 207.646 131.202 206.458C130.079 205.27 128.582 204.676 126.71 204.676C124.464 204.676 122.714 205.319 121.461 206.604C120.224 207.874 119.605 209.648 119.605 211.927H115.089C115.089 208.655 116.139 206.01 118.238 203.992C120.354 201.974 123.178 200.965 126.71 200.965C130.014 200.965 132.626 201.836 134.547 203.577C136.467 205.302 137.428 207.605 137.428 210.486C137.428 213.986 135.198 218.152 130.738 222.986L121.217 233.313H139.063V237Z" fill="#606FF7"/>
<path d="M68.3574 285.933H78.2695V290.205H68.3574V301.436H63.8164V290.205H53.9043V285.933H63.8164V275.557H68.3574V285.933ZM106.614 305H83.3232V301.753L95.6279 288.081C97.4508 286.014 98.7041 284.338 99.3877 283.052C100.088 281.75 100.438 280.407 100.438 279.023C100.438 277.168 99.876 275.646 98.7529 274.458C97.6299 273.27 96.1325 272.676 94.2607 272.676C92.0146 272.676 90.265 273.319 89.0117 274.604C87.7747 275.874 87.1562 277.648 87.1562 279.927H82.6396C82.6396 276.655 83.6895 274.01 85.7891 271.992C87.9049 269.974 90.7288 268.965 94.2607 268.965C97.5648 268.965 100.177 269.836 102.098 271.577C104.018 273.302 104.979 275.605 104.979 278.486C104.979 281.986 102.749 286.152 98.2891 290.986L88.7676 301.313H106.614V305Z" fill="#FE1919"/>
<path d="M166.168 289.839C166.168 295.129 165.265 299.059 163.458 301.631C161.651 304.202 158.827 305.488 154.986 305.488C151.194 305.488 148.386 304.235 146.563 301.729C144.741 299.206 143.797 295.446 143.731 290.449V284.419C143.731 279.194 144.635 275.312 146.441 272.773C148.248 270.234 151.08 268.965 154.938 268.965C158.762 268.965 161.578 270.194 163.385 272.651C165.191 275.093 166.119 278.869 166.168 283.979V289.839ZM161.651 283.662C161.651 279.837 161.114 277.054 160.04 275.312C158.966 273.555 157.265 272.676 154.938 272.676C152.626 272.676 150.942 273.547 149.884 275.288C148.826 277.03 148.281 279.707 148.248 283.32V290.547C148.248 294.388 148.801 297.228 149.908 299.067C151.031 300.89 152.724 301.802 154.986 301.802C157.216 301.802 158.868 300.939 159.942 299.214C161.033 297.489 161.603 294.771 161.651 291.06V283.662Z" fill="#0CC514"/>
<path d="M111.817 545.743H99.9033V542.057H111.817V545.743ZM139.063 559H115.772V555.753L128.077 542.081C129.9 540.014 131.153 538.338 131.837 537.052C132.537 535.75 132.887 534.407 132.887 533.023C132.887 531.168 132.325 529.646 131.202 528.458C130.079 527.27 128.582 526.676 126.71 526.676C124.464 526.676 122.714 527.319 121.461 528.604C120.224 529.874 119.605 531.648 119.605 533.927H115.089C115.089 530.655 116.139 528.01 118.238 525.992C120.354 523.974 123.178 522.965 126.71 522.965C130.014 522.965 132.626 523.836 134.547 525.577C136.467 527.302 137.428 529.605 137.428 532.486C137.428 535.986 135.198 540.152 130.738 544.986L121.217 555.313H139.063V559Z" fill="#606FF7"/>
<path d="M77.2441 611.839C77.2441 617.129 76.3408 621.059 74.5342 623.631C72.7275 626.202 69.9036 627.488 66.0625 627.488C62.2702 627.488 59.4626 626.235 57.6396 623.729C55.8167 621.206 54.8727 617.446 54.8076 612.449V606.419C54.8076 601.194 55.7109 597.312 57.5176 594.773C59.3242 592.234 62.1562 590.965 66.0137 590.965C69.8385 590.965 72.6543 592.194 74.4609 594.651C76.2676 597.093 77.1953 600.869 77.2441 605.979V611.839ZM72.7275 605.662C72.7275 601.837 72.1904 599.054 71.1162 597.312C70.042 595.555 68.3411 594.676 66.0137 594.676C63.7025 594.676 62.0179 595.547 60.96 597.288C59.902 599.03 59.3568 601.707 59.3242 605.32V612.547C59.3242 616.388 59.8776 619.228 60.9844 621.067C62.1074 622.89 63.8001 623.802 66.0625 623.802C68.2923 623.802 69.9443 622.939 71.0186 621.214C72.109 619.489 72.6787 616.771 72.7275 613.06V605.662Z" fill="#FE1919"/>
<path d="M128.912 607.933H138.824V612.205H128.912V623.436H124.371V612.205H114.459V607.933H124.371V597.557H128.912V607.933ZM167.169 627H143.878V623.753L156.183 610.081C158.006 608.014 159.259 606.338 159.942 605.052C160.642 603.75 160.992 602.407 160.992 601.023C160.992 599.168 160.431 597.646 159.308 596.458C158.185 595.27 156.687 594.676 154.815 594.676C152.569 594.676 150.82 595.319 149.566 596.604C148.329 597.874 147.711 599.648 147.711 601.927H143.194C143.194 598.655 144.244 596.01 146.344 593.992C148.46 591.974 151.284 590.965 154.815 590.965C158.119 590.965 160.732 591.836 162.652 593.577C164.573 595.302 165.533 597.605 165.533 600.486C165.533 603.986 163.303 608.152 158.844 612.986L149.322 623.313H167.169V627Z" fill="#0CC514"/>
<path d="M111.817 390.743H99.9033V387.057H111.817V390.743ZM139.063 404H115.772V400.753L128.077 387.081C129.9 385.014 131.153 383.338 131.837 382.052C132.537 380.75 132.887 379.407 132.887 378.023C132.887 376.168 132.325 374.646 131.202 373.458C130.079 372.27 128.582 371.676 126.71 371.676C124.464 371.676 122.714 372.319 121.461 373.604C120.224 374.874 119.605 376.648 119.605 378.927H115.089C115.089 375.655 116.139 373.01 118.238 370.992C120.354 368.974 123.178 367.965 126.71 367.965C130.014 367.965 132.626 368.836 134.547 370.577C136.467 372.302 137.428 374.605 137.428 377.486C137.428 380.986 135.198 385.152 130.738 389.986L121.217 400.313H139.063V404Z" fill="#606FF7"/>
<path d="M68.3574 452.933H78.2695V457.205H68.3574V468.436H63.8164V457.205H53.9043V452.933H63.8164V442.557H68.3574V452.933ZM98.167 472H93.626V441.897L84.5195 445.242V441.141L97.459 436.282H98.167V472Z" fill="#FE1919"/>
<path d="M128.912 452.933H138.824V457.205H128.912V468.436H124.371V457.205H114.459V452.933H124.371V442.557H128.912V452.933ZM158.722 472H154.181V441.897L145.074 445.242V441.141L158.014 436.282H158.722V472Z" fill="#0CC514"/>
<path d="M244.817 628.743H232.903V625.057H244.817V628.743ZM263.616 642H259.075V611.897L249.969 615.242V611.141L262.908 606.282H263.616V642Z" fill="#606FF7"/>
<path d="M197.817 696.743H185.903V693.057H197.817V696.743ZM216.616 710H212.075V679.897L202.969 683.242V679.141L215.908 674.282H216.616V710Z" fill="#FE1919"/>
<path d="M261.912 690.933H271.824V695.205H261.912V706.436H257.371V695.205H247.459V690.933H257.371V680.557H261.912V690.933ZM300.169 710H276.878V706.753L289.183 693.081C291.006 691.014 292.259 689.338 292.942 688.052C293.642 686.75 293.992 685.407 293.992 684.023C293.992 682.168 293.431 680.646 292.308 679.458C291.185 678.27 289.687 677.676 287.815 677.676C285.569 677.676 283.82 678.319 282.566 679.604C281.329 680.874 280.711 682.648 280.711 684.927H276.194C276.194 681.655 277.244 679.01 279.344 676.992C281.46 674.974 284.284 673.965 287.815 673.965C291.119 673.965 293.732 674.836 295.652 676.577C297.573 678.302 298.533 680.605 298.533 683.486C298.533 686.986 296.303 691.152 291.844 695.986L282.322 706.313H300.169V710Z" fill="#0CC514"/>
<path d="M244.817 628.743H232.903V625.057H244.817V628.743ZM263.616 642H259.075V611.897L249.969 615.242V611.141L262.908 606.282H263.616V642Z" fill="#606FF7"/>
<path d="M197.817 696.743H185.903V693.057H197.817V696.743ZM216.616 710H212.075V679.897L202.969 683.242V679.141L215.908 674.282H216.616V710Z" fill="#FE1919"/>
<path d="M261.912 690.933H271.824V695.205H261.912V706.436H257.371V695.205H247.459V690.933H257.371V680.557H261.912V690.933ZM300.169 710H276.878V706.753L289.183 693.081C291.006 691.014 292.259 689.338 292.942 688.052C293.642 686.75 293.992 685.407 293.992 684.023C293.992 682.168 293.431 680.646 292.308 679.458C291.185 678.27 289.687 677.676 287.815 677.676C285.569 677.676 283.82 678.319 282.566 679.604C281.329 680.874 280.711 682.648 280.711 684.927H276.194C276.194 681.655 277.244 679.01 279.344 676.992C281.46 674.974 284.284 673.965 287.815 673.965C291.119 673.965 293.732 674.836 295.652 676.577C297.573 678.302 298.533 680.605 298.533 683.486C298.533 686.986 296.303 691.152 291.844 695.986L282.322 706.313H300.169V710Z" fill="#0CC514"/>
<path d="M535.357 617.933H545.27V622.205H535.357V633.436H530.816V622.205H520.904V617.933H530.816V607.557H535.357V617.933ZM565.167 637H560.626V606.897L551.52 610.242V606.141L564.459 601.282H565.167V637Z" fill="#606FF7"/>
<path d="M495.817 696.743H483.903V693.057H495.817V696.743ZM523.063 710H499.772V706.753L512.077 693.081C513.9 691.014 515.153 689.338 515.837 688.052C516.537 686.75 516.887 685.407 516.887 684.023C516.887 682.168 516.325 680.646 515.202 679.458C514.079 678.27 512.582 677.676 510.71 677.676C508.464 677.676 506.714 678.319 505.461 679.604C504.224 680.874 503.605 682.648 503.605 684.927H499.089C499.089 681.655 500.139 679.01 502.238 676.992C504.354 674.974 507.178 673.965 510.71 673.965C514.014 673.965 516.626 674.836 518.547 676.577C520.467 678.302 521.428 680.605 521.428 683.486C521.428 686.986 519.198 691.152 514.738 695.986L505.217 706.313H523.063V710Z" fill="#FE1919"/>
<path d="M559.912 690.933H569.824V695.205H559.912V706.436H555.371V695.205H545.459V690.933H555.371V680.557H559.912V690.933ZM589.722 710H585.181V679.897L576.074 683.242V679.141L589.014 674.282H589.722V710Z" fill="#0CC514"/>
<path d="M668.357 537.933H678.27V542.205H668.357V553.436H663.816V542.205H653.904V537.933H663.816V527.557H668.357V537.933ZM706.614 557H683.323V553.753L695.628 540.081C697.451 538.014 698.704 536.338 699.388 535.052C700.088 533.75 700.438 532.407 700.438 531.023C700.438 529.168 699.876 527.646 698.753 526.458C697.63 525.27 696.132 524.676 694.261 524.676C692.015 524.676 690.265 525.319 689.012 526.604C687.775 527.874 687.156 529.648 687.156 531.927H682.64C682.64 528.655 683.689 526.01 685.789 523.992C687.905 521.974 690.729 520.965 694.261 520.965C697.565 520.965 700.177 521.836 702.098 523.577C704.018 525.302 704.979 527.605 704.979 530.486C704.979 533.986 702.749 538.152 698.289 542.986L688.768 553.313H706.614V557Z" fill="#606FF7"/>
<path d="M638.817 616.743H626.903V613.057H638.817V616.743ZM666.063 630H642.772V626.753L655.077 613.081C656.9 611.014 658.153 609.338 658.837 608.052C659.537 606.75 659.887 605.407 659.887 604.023C659.887 602.168 659.325 600.646 658.202 599.458C657.079 598.27 655.582 597.676 653.71 597.676C651.464 597.676 649.714 598.319 648.461 599.604C647.224 600.874 646.605 602.648 646.605 604.927H642.089C642.089 601.655 643.139 599.01 645.238 596.992C647.354 594.974 650.178 593.965 653.71 593.965C657.014 593.965 659.626 594.836 661.547 596.577C663.467 598.302 664.428 600.605 664.428 603.486C664.428 606.986 662.198 611.152 657.738 615.986L648.217 626.313H666.063V630Z" fill="#FE1919"/>
<path d="M740.168 614.839C740.168 620.129 739.265 624.059 737.458 626.631C735.651 629.202 732.827 630.488 728.986 630.488C725.194 630.488 722.386 629.235 720.563 626.729C718.741 624.206 717.797 620.446 717.731 615.449V609.419C717.731 604.194 718.635 600.312 720.441 597.773C722.248 595.234 725.08 593.965 728.938 593.965C732.762 593.965 735.578 595.194 737.385 597.651C739.191 600.093 740.119 603.869 740.168 608.979V614.839ZM735.651 608.662C735.651 604.837 735.114 602.054 734.04 600.312C732.966 598.555 731.265 597.676 728.938 597.676C726.626 597.676 724.942 598.547 723.884 600.288C722.826 602.03 722.281 604.707 722.248 608.32V615.547C722.248 619.388 722.801 622.228 723.908 624.067C725.031 625.89 726.724 626.802 728.986 626.802C731.216 626.802 732.868 625.939 733.942 624.214C735.033 622.489 735.603 619.771 735.651 616.06V608.662Z" fill="#0CC514"/>
<path d="M667.357 216.933H677.27V221.205H667.357V232.436H662.816V221.205H652.904V216.933H662.816V206.557H667.357V216.933ZM705.614 236H682.323V232.753L694.628 219.081C696.451 217.014 697.704 215.338 698.388 214.052C699.088 212.75 699.438 211.407 699.438 210.023C699.438 208.168 698.876 206.646 697.753 205.458C696.63 204.27 695.132 203.676 693.261 203.676C691.015 203.676 689.265 204.319 688.012 205.604C686.775 206.874 686.156 208.648 686.156 210.927H681.64C681.64 207.655 682.689 205.01 684.789 202.992C686.905 200.974 689.729 199.965 693.261 199.965C696.565 199.965 699.177 200.836 701.098 202.577C703.018 204.302 703.979 206.605 703.979 209.486C703.979 212.986 701.749 217.152 697.289 221.986L687.768 232.313H705.614V236Z" fill="#606FF7"/>
<path d="M650.244 293.839C650.244 299.129 649.341 303.059 647.534 305.631C645.728 308.202 642.904 309.488 639.062 309.488C635.27 309.488 632.463 308.235 630.64 305.729C628.817 303.206 627.873 299.446 627.808 294.449V288.419C627.808 283.194 628.711 279.312 630.518 276.773C632.324 274.234 635.156 272.965 639.014 272.965C642.839 272.965 645.654 274.194 647.461 276.651C649.268 279.093 650.195 282.869 650.244 287.979V293.839ZM645.728 287.662C645.728 283.837 645.19 281.054 644.116 279.312C643.042 277.555 641.341 276.676 639.014 276.676C636.702 276.676 635.018 277.547 633.96 279.288C632.902 281.03 632.357 283.707 632.324 287.32V294.547C632.324 298.388 632.878 301.228 633.984 303.067C635.107 304.89 636.8 305.802 639.062 305.802C641.292 305.802 642.944 304.939 644.019 303.214C645.109 301.489 645.679 298.771 645.728 295.06V287.662Z" fill="#FE1919"/>
<path d="M712.923 295.743H701.009V292.057H712.923V295.743ZM740.169 309H716.878V305.753L729.183 292.081C731.006 290.014 732.259 288.338 732.942 287.052C733.642 285.75 733.992 284.407 733.992 283.023C733.992 281.168 733.431 279.646 732.308 278.458C731.185 277.27 729.687 276.676 727.815 276.676C725.569 276.676 723.82 277.319 722.566 278.604C721.329 279.874 720.711 281.648 720.711 283.927H716.194C716.194 280.655 717.244 278.01 719.344 275.992C721.46 273.974 724.284 272.965 727.815 272.965C731.119 272.965 733.732 273.836 735.652 275.577C737.573 277.302 738.533 279.605 738.533 282.486C738.533 285.986 736.303 290.152 731.844 294.986L722.322 305.313H740.169V309Z" fill="#0CC514"/>
<path d="M671.357 379.933H681.27V384.205H671.357V395.436H666.816V384.205H656.904V379.933H666.816V369.557H671.357V379.933ZM709.614 399H686.323V395.753L698.628 382.081C700.451 380.014 701.704 378.338 702.388 377.052C703.088 375.75 703.438 374.407 703.438 373.023C703.438 371.168 702.876 369.646 701.753 368.458C700.63 367.27 699.132 366.676 697.261 366.676C695.015 366.676 693.265 367.319 692.012 368.604C690.775 369.874 690.156 371.648 690.156 373.927H685.64C685.64 370.655 686.689 368.01 688.789 365.992C690.905 363.974 693.729 362.965 697.261 362.965C700.565 362.965 703.177 363.836 705.098 365.577C707.018 367.302 707.979 369.605 707.979 372.486C707.979 375.986 705.749 380.152 701.289 384.986L691.768 395.313H709.614V399Z" fill="#606FF7"/>
<path d="M641.817 458.743H629.903V455.057H641.817V458.743ZM660.616 472H656.075V441.897L646.969 445.242V441.141L659.908 436.282H660.616V472Z" fill="#FE1919"/>
<path d="M716.923 458.743H705.009V455.057H716.923V458.743ZM735.722 472H731.181V441.897L722.074 445.242V441.141L735.014 436.282H735.722V472Z" fill="#0CC514"/>
<path d="M535.357 134.933H545.27V139.205H535.357V150.436H530.816V139.205H520.904V134.933H530.816V124.557H535.357V134.933ZM565.167 154H560.626V123.897L551.52 127.242V123.141L564.459 118.282H565.167V154Z" fill="#606FF7"/>
<path d="M499.357 207.933H509.27V212.205H499.357V223.436H494.816V212.205H484.904V207.933H494.816V197.557H499.357V207.933ZM529.167 227H524.626V196.897L515.52 200.242V196.141L528.459 191.282H529.167V227Z" fill="#FE1919"/>
<path d="M570.923 213.743H559.009V210.057H570.923V213.743ZM598.169 227H574.878V223.753L587.183 210.081C589.006 208.014 590.259 206.338 590.942 205.052C591.642 203.75 591.992 202.407 591.992 201.023C591.992 199.168 591.431 197.646 590.308 196.458C589.185 195.27 587.687 194.676 585.815 194.676C583.569 194.676 581.82 195.319 580.566 196.604C579.329 197.874 578.711 199.648 578.711 201.927H574.194C574.194 198.655 575.244 196.01 577.344 193.992C579.46 191.974 582.284 190.965 585.815 190.965C589.119 190.965 591.732 191.836 593.652 193.577C595.573 195.302 596.533 197.605 596.533 200.486C596.533 203.986 594.303 208.152 589.844 212.986L580.322 223.313H598.169V227Z" fill="#0CC514"/>
<path d="M528.357 291.933H538.27V296.205H528.357V307.436H523.816V296.205H513.904V291.933H523.816V281.557H528.357V291.933ZM558.167 311H553.626V280.897L544.52 284.242V280.141L557.459 275.282H558.167V311Z" fill="#606FF7"/>
<path d="M501.244 368.839C501.244 374.129 500.341 378.059 498.534 380.631C496.728 383.202 493.904 384.488 490.062 384.488C486.27 384.488 483.463 383.235 481.64 380.729C479.817 378.206 478.873 374.446 478.808 369.449V363.419C478.808 358.194 479.711 354.312 481.518 351.773C483.324 349.234 486.156 347.965 490.014 347.965C493.839 347.965 496.654 349.194 498.461 351.651C500.268 354.093 501.195 357.869 501.244 362.979V368.839ZM496.728 362.662C496.728 358.837 496.19 356.054 495.116 354.312C494.042 352.555 492.341 351.676 490.014 351.676C487.702 351.676 486.018 352.547 484.96 354.288C483.902 356.03 483.357 358.707 483.324 362.32V369.547C483.324 373.388 483.878 376.228 484.984 378.067C486.107 379.89 487.8 380.802 490.062 380.802C492.292 380.802 493.944 379.939 495.019 378.214C496.109 376.489 496.679 373.771 496.728 370.06V362.662Z" fill="#FE1919"/>
<path d="M572.923 370.743H561.009V367.057H572.923V370.743ZM591.722 384H587.181V353.897L578.074 357.242V353.141L591.014 348.282H591.722V384Z" fill="#0CC514"/>
<path d="M535.357 454.933H545.27V459.205H535.357V470.436H530.816V459.205H520.904V454.933H530.816V444.557H535.357V454.933ZM565.167 474H560.626V443.897L551.52 447.242V443.141L564.459 438.282H565.167V474Z" fill="#606FF7"/>
<path d="M495.817 533.743H483.903V530.057H495.817V533.743ZM514.616 547H510.075V516.897L500.969 520.242V516.141L513.908 511.282H514.616V547Z" fill="#FE1919"/>
<path d="M597.168 531.839C597.168 537.129 596.265 541.059 594.458 543.631C592.651 546.202 589.827 547.488 585.986 547.488C582.194 547.488 579.386 546.235 577.563 543.729C575.741 541.206 574.797 537.446 574.731 532.449V526.419C574.731 521.194 575.635 517.312 577.441 514.773C579.248 512.234 582.08 510.965 585.938 510.965C589.762 510.965 592.578 512.194 594.385 514.651C596.191 517.093 597.119 520.869 597.168 525.979V531.839ZM592.651 525.662C592.651 521.837 592.114 519.054 591.04 517.312C589.966 515.555 588.265 514.676 585.938 514.676C583.626 514.676 581.942 515.547 580.884 517.288C579.826 519.03 579.281 521.707 579.248 525.32V532.547C579.248 536.388 579.801 539.228 580.908 541.067C582.031 542.89 583.724 543.802 585.986 543.802C588.216 543.802 589.868 542.939 590.942 541.214C592.033 539.489 592.603 536.771 592.651 533.06V525.662Z" fill="#0CC514"/>
<path d="M249.817 472.743H237.903V469.057H249.817V472.743ZM268.616 486H264.075V455.897L254.969 459.242V455.141L267.908 450.282H268.616V486Z" fill="#606FF7"/>
<path d="M220.244 538.839C220.244 544.129 219.341 548.059 217.534 550.631C215.728 553.202 212.904 554.488 209.062 554.488C205.27 554.488 202.463 553.235 200.64 550.729C198.817 548.206 197.873 544.446 197.808 539.449V533.419C197.808 528.194 198.711 524.312 200.518 521.773C202.324 519.234 205.156 517.965 209.014 517.965C212.839 517.965 215.654 519.194 217.461 521.651C219.268 524.093 220.195 527.869 220.244 532.979V538.839ZM215.728 532.662C215.728 528.837 215.19 526.054 214.116 524.312C213.042 522.555 211.341 521.676 209.014 521.676C206.702 521.676 205.018 522.547 203.96 524.288C202.902 526.03 202.357 528.707 202.324 532.32V539.547C202.324 543.388 202.878 546.228 203.984 548.067C205.107 549.89 206.8 550.802 209.062 550.802C211.292 550.802 212.944 549.939 214.019 548.214C215.109 546.489 215.679 543.771 215.728 540.06V532.662Z" fill="#FE1919"/>
<path d="M266.912 534.933H276.824V539.205H266.912V550.436H262.371V539.205H252.459V534.933H262.371V524.557H266.912V534.933ZM296.722 554H292.181V523.897L283.074 527.242V523.141L296.014 518.282H296.722V554Z" fill="#0CC514"/>
<path d="M247.817 308.743H235.903V305.057H247.817V308.743ZM266.616 322H262.075V291.897L252.969 295.242V291.141L265.908 286.282H266.616V322Z" fill="#606FF7"/>
<path d="M204.357 370.933H214.27V375.205H204.357V386.436H199.816V375.205H189.904V370.933H199.816V360.557H204.357V370.933ZM234.167 390H229.626V359.897L220.52 363.242V359.141L233.459 354.282H234.167V390Z" fill="#FE1919"/>
<path d="M302.168 374.839C302.168 380.129 301.265 384.059 299.458 386.631C297.651 389.202 294.827 390.488 290.986 390.488C287.194 390.488 284.386 389.235 282.563 386.729C280.741 384.206 279.797 380.446 279.731 375.449V369.419C279.731 364.194 280.635 360.312 282.441 357.773C284.248 355.234 287.08 353.965 290.938 353.965C294.762 353.965 297.578 355.194 299.385 357.651C301.191 360.093 302.119 363.869 302.168 368.979V374.839ZM297.651 368.662C297.651 364.837 297.114 362.054 296.04 360.312C294.966 358.555 293.265 357.676 290.938 357.676C288.626 357.676 286.942 358.547 285.884 360.288C284.826 362.03 284.281 364.707 284.248 368.32V375.547C284.248 379.388 284.801 382.228 285.908 384.067C287.031 385.89 288.724 386.802 290.986 386.802C293.216 386.802 294.868 385.939 295.942 384.214C297.033 382.489 297.603 379.771 297.651 376.06V368.662Z" fill="#0CC514"/>
<path d="M412.244 221.839C412.244 227.129 411.341 231.059 409.534 233.631C407.728 236.202 404.904 237.488 401.062 237.488C397.27 237.488 394.463 236.235 392.64 233.729C390.817 231.206 389.873 227.446 389.808 222.449V216.419C389.808 211.194 390.711 207.312 392.518 204.773C394.324 202.234 397.156 200.965 401.014 200.965C404.839 200.965 407.654 202.194 409.461 204.651C411.268 207.093 412.195 210.869 412.244 215.979V221.839ZM407.728 215.662C407.728 211.837 407.19 209.054 406.116 207.312C405.042 205.555 403.341 204.676 401.014 204.676C398.702 204.676 397.018 205.547 395.96 207.288C394.902 209.03 394.357 211.707 394.324 215.32V222.547C394.324 226.388 394.878 229.228 395.984 231.067C397.107 232.89 398.8 233.802 401.062 233.802C403.292 233.802 404.944 232.939 406.019 231.214C407.109 229.489 407.679 226.771 407.728 223.06V215.662Z" fill="#606FF7"/>
<path d="M356.357 285.933H366.27V290.205H356.357V301.436H351.816V290.205H341.904V285.933H351.816V275.557H356.357V285.933ZM386.167 305H381.626V274.897L372.52 278.242V274.141L385.459 269.282H386.167V305Z" fill="#FE1919"/>
<path d="M427.923 291.743H416.009V288.057H427.923V291.743ZM446.722 305H442.181V274.897L433.074 278.242V274.141L446.014 269.282H446.722V305Z" fill="#0CC514"/>
</svg>
