<svg width="1651" height="2253" viewBox="0 0 1651 2253" fill="none" xmlns="http://www.w3.org/2000/svg">
<rect width="1651" height="2253" fill="white"/>
<path fill-rule="evenodd" clip-rule="evenodd" d="M770.021 693.535C770.908 691.968 772.57 691 774.371 691H870.802C872.593 691 874.248 691.959 875.139 693.513L920.719 773H1012.8C1014.59 773 1016.25 773.959 1017.14 775.513L1062.15 854H1156.8C1158.59 854 1160.25 854.959 1161.14 856.513L1208.34 938.822C1209.22 940.361 1209.22 942.251 1208.34 943.791L1163.1 1022.93L1208.34 1101.82C1209.22 1103.36 1209.22 1105.25 1208.34 1106.79L1163.1 1185.93L1208.34 1264.82C1209.22 1266.36 1209.22 1268.25 1208.34 1269.79L1162.1 1350.68C1161.21 1352.24 1159.55 1353.2 1157.76 1353.2H1063.54L1018.1 1432.68C1017.21 1434.24 1015.55 1435.2 1013.76 1435.2H920.963L876.097 1513.68C875.207 1515.24 873.551 1516.2 871.757 1516.2H775.325C773.545 1516.2 771.899 1515.25 771.003 1513.71L725.336 1435.2H629.325C627.545 1435.2 625.899 1434.25 625.003 1432.71L579.336 1354.2H486.325C484.545 1354.2 482.899 1353.25 482.003 1351.71L434.678 1270.35C433.784 1268.81 433.773 1266.92 434.65 1265.37L480.019 1185.3L434.678 1107.35C433.784 1105.81 433.773 1103.92 434.65 1102.37L480.019 1022.3L434.678 944.35C433.784 942.813 433.773 940.918 434.65 939.371L481.021 857.535C481.908 855.968 483.57 855 485.371 855H578.993L624.021 775.535C624.908 773.968 626.57 773 628.371 773H724.802L724.826 773C724.881 773 724.936 773.001 724.991 773.004L770.021 693.535ZM778.085 1343H867.56L911.019 1266.3L866.754 1190.2H777.171L733.765 1266.8L778.085 1343ZM877.099 1348.93L920.834 1425.2H1010.86L1054.24 1349.31L1010.02 1272.2H920.963L877.099 1348.93ZM578.88 1344.2L622.555 1267.12L579.02 1191.2H488.171L444.765 1267.8L489.201 1344.2H578.88ZM632.201 1425.2L588.258 1349.65L632.535 1272.2H722.02L766.238 1349.31L722.856 1425.2H632.201ZM622.555 1104.12L578.993 1181H489.085L444.765 1104.8L488.171 1028.2H579.02L622.555 1104.12ZM1013.62 1257.36L1013.62 1257.36L1054.06 1186L1010.02 1109.2H920.963L877.099 1185.93L920.719 1262H1010.97L1013.62 1257.36ZM1064.09 1180H1154.97L1198.24 1104.31L1154.02 1027.2H1063.54L1022.31 1099.31L1022.31 1099.31L1019.77 1103.8L1064.09 1180ZM632.085 1262L588.258 1186.65L632.535 1109.2H722.02L766.238 1186.31L722.97 1262H632.085ZM622.555 941.121L578.993 1018H489.085L444.765 941.803L488.284 865H578.905L622.555 941.121ZM1154.02 1190.2H1063.54L1022.32 1262.3L1022.31 1262.31L1019.77 1266.8L1064.2 1343.2H1154.86L1198.24 1267.31L1154.02 1190.2ZM1013.62 1094.36L1013.62 1094.36L1054.06 1023L1010.02 946.2H920.963L877.099 1022.93L920.719 1099H1010.97L1013.62 1094.36ZM1064.09 1017H1154.97L1198.24 941.313L1153.91 864H1063.65L1022.31 936.312L1019.77 940.803L1064.09 1017ZM632.085 1099L588.258 1023.65L632.535 946.2H722.02L766.238 1023.31L722.97 1099H632.085ZM1013.62 931.362L1013.62 931.359L1054.06 859.998L1009.91 783H921.078L877.099 859.93L920.719 936H1010.97L1013.62 931.362ZM866.754 1353.2L911.925 1430.86L868.856 1506.2H778.201L733.765 1429.8L777.171 1353.2H866.754ZM911.019 1103.3L867.56 1180H778.085L733.765 1103.8L777.171 1027.2H866.754L911.019 1103.3ZM911.019 940.302L867.56 1017H778.085L733.765 940.803L777.171 864.2H866.754L911.019 940.302ZM766.238 860.313L722.97 936H632.085L587.765 859.803L631.284 783H721.905L766.238 860.313ZM911.337 776.741L867.56 854H778.085L733.765 777.803L777.284 701H867.905L911.337 776.741Z" fill="#B5A89B"/>
<path fill-rule="evenodd" clip-rule="evenodd" d="M770.021 693.535C770.908 691.968 772.57 691 774.371 691H870.802C872.593 691 874.248 691.959 875.139 693.513L920.719 773H1012.8C1014.59 773 1016.25 773.959 1017.14 775.513L1062.15 854H1156.8C1158.59 854 1160.25 854.959 1161.14 856.513L1208.34 938.822C1209.22 940.361 1209.22 942.251 1208.34 943.791L1163.1 1022.93L1208.34 1101.82C1209.22 1103.36 1209.22 1105.25 1208.34 1106.79L1163.1 1185.93L1208.34 1264.82C1209.22 1266.36 1209.22 1268.25 1208.34 1269.79L1162.1 1350.68C1161.21 1352.24 1159.55 1353.2 1157.76 1353.2H1063.54L1018.1 1432.68C1017.21 1434.24 1015.55 1435.2 1013.76 1435.2H920.963L876.097 1513.68C875.207 1515.24 873.551 1516.2 871.757 1516.2H775.325C773.545 1516.2 771.899 1515.25 771.003 1513.71L725.336 1435.2H629.325C627.545 1435.2 625.899 1434.25 625.003 1432.71L579.336 1354.2H486.325C484.545 1354.2 482.899 1353.25 482.003 1351.71L434.678 1270.35C433.784 1268.81 433.773 1266.92 434.65 1265.37L480.019 1185.3L434.678 1107.35C433.784 1105.81 433.773 1103.92 434.65 1102.37L480.019 1022.3L434.678 944.35C433.784 942.813 433.773 940.918 434.65 939.371L481.021 857.535C481.908 855.968 483.57 855 485.371 855H578.993L624.021 775.535C624.908 773.968 626.57 773 628.371 773H724.802L724.826 773C724.881 773 724.936 773.001 724.991 773.004L770.021 693.535ZM778.085 1343H867.56L911.019 1266.3L866.754 1190.2H777.171L733.765 1266.8L778.085 1343ZM877.099 1348.93L920.834 1425.2H1010.86L1054.24 1349.31L1010.02 1272.2H920.963L877.099 1348.93ZM578.88 1344.2L622.555 1267.12L579.02 1191.2H488.171L444.765 1267.8L489.201 1344.2H578.88ZM632.201 1425.2L588.258 1349.65L632.535 1272.2H722.02L766.238 1349.31L722.856 1425.2H632.201ZM622.555 1104.12L578.993 1181H489.085L444.765 1104.8L488.171 1028.2H579.02L622.555 1104.12ZM1013.62 1257.36L1013.62 1257.36L1054.06 1186L1010.02 1109.2H920.963L877.099 1185.93L920.719 1262H1010.97L1013.62 1257.36ZM1064.09 1180H1154.97L1198.24 1104.31L1154.02 1027.2H1063.54L1022.31 1099.31L1022.31 1099.31L1019.77 1103.8L1064.09 1180ZM632.085 1262L588.258 1186.65L632.535 1109.2H722.02L766.238 1186.31L722.97 1262H632.085ZM622.555 941.121L578.993 1018H489.085L444.765 941.803L488.284 865H578.905L622.555 941.121ZM1154.02 1190.2H1063.54L1022.32 1262.3L1022.31 1262.31L1019.77 1266.8L1064.2 1343.2H1154.86L1198.24 1267.31L1154.02 1190.2ZM1013.62 1094.36L1013.62 1094.36L1054.06 1023L1010.02 946.2H920.963L877.099 1022.93L920.719 1099H1010.97L1013.62 1094.36ZM1064.09 1017H1154.97L1198.24 941.313L1153.91 864H1063.65L1022.31 936.312L1019.77 940.803L1064.09 1017ZM632.085 1099L588.258 1023.65L632.535 946.2H722.02L766.238 1023.31L722.97 1099H632.085ZM1013.62 931.362L1013.62 931.359L1054.06 859.998L1009.91 783H921.078L877.099 859.93L920.719 936H1010.97L1013.62 931.362ZM866.754 1353.2L911.925 1430.86L868.856 1506.2H778.201L733.765 1429.8L777.171 1353.2H866.754ZM911.019 1103.3L867.56 1180H778.085L733.765 1103.8L777.171 1027.2H866.754L911.019 1103.3ZM911.019 940.302L867.56 1017H778.085L733.765 940.803L777.171 864.2H866.754L911.019 940.302ZM766.238 860.313L722.97 936H632.085L587.765 859.803L631.284 783H721.905L766.238 860.313ZM911.337 776.741L867.56 854H778.085L733.765 777.803L777.284 701H867.905L911.337 776.741Z" fill="#B5A89B"/>
<path d="M845.914 1138H799.332V1131.51L823.941 1104.16C827.587 1100.03 830.094 1096.68 831.461 1094.1C832.861 1091.5 833.561 1088.81 833.561 1086.05C833.561 1082.34 832.438 1079.29 830.191 1076.92C827.945 1074.54 824.951 1073.35 821.207 1073.35C816.715 1073.35 813.215 1074.64 810.709 1077.21C808.235 1079.75 806.998 1083.3 806.998 1087.85H797.965C797.965 1081.31 800.064 1076.02 804.264 1071.98C808.495 1067.95 814.143 1065.93 821.207 1065.93C827.815 1065.93 833.04 1067.67 836.881 1071.15C840.722 1074.6 842.643 1079.21 842.643 1084.97C842.643 1091.97 838.183 1100.3 829.264 1109.97L810.221 1130.63H845.914V1138Z" fill="black"/>
<path d="M690.467 1199.12H700.33V1206.5H690.467V1223H681.385V1206.5H649.012V1201.17L680.848 1151.91H690.467V1199.12ZM659.266 1199.12H681.385V1164.26L680.311 1166.21L659.266 1199.12Z" fill="black"/>
<path d="M972.467 1037.12H982.33V1044.5H972.467V1061H963.385V1044.5H931.012V1039.17L962.848 989.906H972.467V1037.12ZM941.266 1037.12H963.385V1002.26L962.311 1004.21L941.266 1037.12Z" fill="black"/>
<path d="M690.467 1037.12H700.33V1044.5H690.467V1061H681.385V1044.5H649.012V1039.17L680.848 989.906H690.467V1037.12ZM659.266 1037.12H681.385V1002.26L680.311 1004.21L659.266 1037.12Z" fill="black"/>
<path d="M551.914 1306H505.332V1299.51L529.941 1272.16C533.587 1268.03 536.094 1264.68 537.461 1262.1C538.861 1259.5 539.561 1256.81 539.561 1254.05C539.561 1250.34 538.438 1247.29 536.191 1244.92C533.945 1242.54 530.951 1241.35 527.207 1241.35C522.715 1241.35 519.215 1242.64 516.709 1245.21C514.235 1247.75 512.998 1251.3 512.998 1255.85H503.965C503.965 1249.31 506.064 1244.02 510.264 1239.98C514.495 1235.95 520.143 1233.93 527.207 1233.93C533.815 1233.93 539.04 1235.67 542.881 1239.15C546.722 1242.6 548.643 1247.21 548.643 1252.97C548.643 1259.97 544.183 1268.3 535.264 1277.97L516.221 1298.63H551.914V1306Z" fill="black"/>
<path d="M988.914 1213H942.332V1206.51L966.941 1179.16C970.587 1175.03 973.094 1171.68 974.461 1169.1C975.861 1166.5 976.561 1163.81 976.561 1161.05C976.561 1157.34 975.438 1154.29 973.191 1151.92C970.945 1149.54 967.951 1148.35 964.207 1148.35C959.715 1148.35 956.215 1149.64 953.709 1152.21C951.235 1154.75 949.998 1158.3 949.998 1162.85H940.965C940.965 1156.31 943.064 1151.02 947.264 1146.98C951.495 1142.95 957.143 1140.93 964.207 1140.93C970.815 1140.93 976.04 1142.67 979.881 1146.15C983.722 1149.6 985.643 1154.21 985.643 1159.97C985.643 1166.97 981.183 1175.3 972.264 1184.97L953.221 1205.63H988.914V1213Z" fill="black"/>
<path d="M845.914 985H799.332V978.506L823.941 951.162C827.587 947.028 830.094 943.675 831.461 941.104C832.861 938.499 833.561 935.814 833.561 933.047C833.561 929.336 832.438 926.292 830.191 923.916C827.945 921.54 824.951 920.352 821.207 920.352C816.715 920.352 813.215 921.637 810.709 924.209C808.235 926.748 806.998 930.296 806.998 934.854H797.965C797.965 928.311 800.064 923.021 804.264 918.984C808.495 914.948 814.143 912.93 821.207 912.93C827.815 912.93 833.04 914.671 836.881 918.154C840.722 921.605 842.643 926.211 842.643 931.973C842.643 938.971 838.183 947.305 829.264 956.973L810.221 977.627H845.914V985Z" fill="black"/>
<path d="M846.914 1459H800.332V1452.51L824.941 1425.16C828.587 1421.03 831.094 1417.68 832.461 1415.1C833.861 1412.5 834.561 1409.81 834.561 1407.05C834.561 1403.34 833.438 1400.29 831.191 1397.92C828.945 1395.54 825.951 1394.35 822.207 1394.35C817.715 1394.35 814.215 1395.64 811.709 1398.21C809.235 1400.75 807.998 1404.3 807.998 1408.85H798.965C798.965 1402.31 801.064 1397.02 805.264 1392.98C809.495 1388.95 815.143 1386.93 822.207 1386.93C828.815 1386.93 834.04 1388.67 837.881 1392.15C841.722 1395.6 843.643 1400.21 843.643 1405.97C843.643 1412.97 839.183 1421.3 830.264 1430.97L811.221 1451.63H846.914V1459Z" fill="black"/>
<path d="M845.914 1306H799.332V1299.51L823.941 1272.16C827.587 1268.03 830.094 1264.68 831.461 1262.1C832.861 1259.5 833.561 1256.81 833.561 1254.05C833.561 1250.34 832.438 1247.29 830.191 1244.92C827.945 1242.54 824.951 1241.35 821.207 1241.35C816.715 1241.35 813.215 1242.64 810.709 1245.21C808.235 1247.75 806.998 1251.3 806.998 1255.85H797.965C797.965 1249.31 800.064 1244.02 804.264 1239.98C808.495 1235.95 814.143 1233.93 821.207 1233.93C827.815 1233.93 833.04 1235.67 836.881 1239.15C840.722 1242.6 842.643 1247.21 842.643 1252.97C842.643 1259.97 838.183 1268.3 829.264 1277.97L810.221 1298.63H845.914V1306Z" fill="black"/>
<path fill-rule="evenodd" clip-rule="evenodd" d="M1310.44 215.535C1311.33 213.968 1312.99 213 1314.79 213H1378.86C1380.65 213 1382.3 213.959 1383.19 215.513L1412.99 267.475H1473.19C1474.98 267.475 1476.64 268.433 1477.53 269.987L1506.94 321.285H1568.85C1570.64 321.285 1572.3 322.243 1573.19 323.798L1604.55 378.478C1605.43 380.016 1605.43 381.907 1604.55 383.446L1574.97 435.186L1604.55 486.762C1605.43 488.301 1605.43 490.191 1604.55 491.731L1574.97 543.471L1604.55 595.047C1605.43 596.586 1605.43 598.476 1604.55 600.016L1573.83 653.753C1572.94 655.311 1571.28 656.272 1569.49 656.272H1507.87L1478.17 708.228C1477.27 709.785 1475.62 710.747 1473.82 710.747H1413.15L1383.83 762.038C1382.94 763.596 1381.28 764.557 1379.49 764.557H1315.43C1313.65 764.557 1312 763.61 1311.11 762.071L1281.25 710.747H1218.44C1216.66 710.747 1215.01 709.8 1214.12 708.26L1184.26 656.936H1123.44C1121.66 656.936 1120.01 655.989 1119.12 654.45L1087.68 600.398C1086.78 598.862 1086.77 596.966 1087.65 595.419L1117.31 543.066L1087.68 492.113C1086.78 490.577 1086.77 488.681 1087.65 487.134L1117.31 434.781L1087.68 383.829C1086.78 382.292 1086.77 380.396 1087.65 378.85L1118.45 324.484C1119.34 322.917 1121 321.949 1122.81 321.949H1184.02L1213.45 270.01C1214.34 268.443 1216 267.475 1217.8 267.475H1281.01L1310.44 215.535ZM1318.23 646.139H1375.72L1403.64 596.876L1375.2 547.987H1317.63L1289.75 597.187L1318.23 646.139ZM1384.97 651.756L1413.07 700.747H1470.92L1498.78 652.013L1470.37 602.462H1413.15L1384.97 651.756ZM1183.95 646.936L1212.01 597.414L1184.05 548.651H1125.64L1097.77 597.852L1126.32 646.936H1183.95ZM1221.31 700.747L1193.09 652.229L1221.54 602.462H1279.04L1307.46 652.013L1279.6 700.747H1221.31ZM1212.01 489.13L1184.02 538.519H1126.24L1097.77 489.567L1125.64 440.367H1184.05L1212.01 489.13ZM1472.27 590.098L1498.67 543.523L1470.37 494.177H1413.15L1384.97 543.471L1412.99 592.329H1471L1472.27 590.098ZM1508.22 537.854H1566.66L1594.45 489.253L1566.03 439.702H1507.87L1480.96 486.764L1479.75 488.903L1508.22 537.854ZM1221.24 592.329L1193.09 543.944L1221.54 494.177H1279.04L1307.46 543.728L1279.67 592.329H1221.24ZM1212.01 380.845L1184.02 430.234H1126.24L1097.77 381.282L1125.72 331.949H1183.97L1212.01 380.845ZM1566.03 547.987H1507.87L1480.97 595.04L1479.75 597.187L1508.3 646.272H1566.59L1594.45 597.538L1566.03 547.987ZM1472.27 481.813L1498.67 435.238L1470.37 385.892H1413.15L1384.97 435.186L1412.99 484.044H1471L1472.27 481.813ZM1508.22 429.57H1566.66L1594.45 380.969L1565.96 331.285H1507.94L1480.97 378.476L1479.75 380.618L1508.22 429.57ZM1221.24 484.044L1193.09 435.659L1221.54 385.892H1279.04L1307.46 435.443L1279.67 484.044H1221.24ZM1472.27 373.528L1498.67 326.953L1470.29 277.475H1413.23L1384.97 326.901L1412.99 375.759H1471L1472.27 373.528ZM1375.2 656.272L1404.24 706.193L1376.59 754.557H1318.31L1289.75 705.472L1317.63 656.272H1375.2ZM1403.64 488.592L1375.72 537.854H1318.23L1289.75 488.903L1317.63 439.702H1375.2L1403.64 488.592ZM1403.64 380.307L1375.72 429.57H1318.23L1289.75 380.618L1317.63 331.418H1375.2L1403.64 380.307ZM1307.46 327.158L1279.67 375.759H1221.24L1192.76 326.808L1220.72 277.475H1278.97L1307.46 327.158ZM1403.85 271.643L1375.72 321.285H1318.23L1289.75 272.333L1317.71 223H1375.96L1403.85 271.643Z" fill="#B5A89B"/>
<path fill-rule="evenodd" clip-rule="evenodd" d="M1310.44 215.535C1311.33 213.968 1312.99 213 1314.79 213H1378.86C1380.65 213 1382.3 213.959 1383.19 215.513L1412.99 267.475H1473.19C1474.98 267.475 1476.64 268.433 1477.53 269.987L1506.94 321.285H1568.85C1570.64 321.285 1572.3 322.243 1573.19 323.798L1604.55 378.478C1605.43 380.016 1605.43 381.907 1604.55 383.446L1574.97 435.186L1604.55 486.762C1605.43 488.301 1605.43 490.191 1604.55 491.731L1574.97 543.471L1604.55 595.047C1605.43 596.586 1605.43 598.476 1604.55 600.016L1573.83 653.753C1572.94 655.311 1571.28 656.272 1569.49 656.272H1507.87L1478.17 708.228C1477.27 709.785 1475.62 710.747 1473.82 710.747H1413.15L1383.83 762.038C1382.94 763.596 1381.28 764.557 1379.49 764.557H1315.43C1313.65 764.557 1312 763.61 1311.11 762.071L1281.25 710.747H1218.44C1216.66 710.747 1215.01 709.8 1214.12 708.26L1184.26 656.936H1123.44C1121.66 656.936 1120.01 655.989 1119.12 654.45L1087.68 600.398C1086.78 598.862 1086.77 596.966 1087.65 595.419L1117.31 543.066L1087.68 492.113C1086.78 490.577 1086.77 488.681 1087.65 487.134L1117.31 434.781L1087.68 383.829C1086.78 382.292 1086.77 380.396 1087.65 378.85L1118.45 324.484C1119.34 322.917 1121 321.949 1122.81 321.949H1184.02L1213.45 270.01C1214.34 268.443 1216 267.475 1217.8 267.475H1281.01L1310.44 215.535ZM1318.23 646.139H1375.72L1403.64 596.876L1375.2 547.987H1317.63L1289.75 597.187L1318.23 646.139ZM1384.97 651.756L1413.07 700.747H1470.92L1498.78 652.013L1470.37 602.462H1413.15L1384.97 651.756ZM1183.95 646.936L1212.01 597.414L1184.05 548.651H1125.64L1097.77 597.852L1126.32 646.936H1183.95ZM1221.31 700.747L1193.09 652.229L1221.54 602.462H1279.04L1307.46 652.013L1279.6 700.747H1221.31ZM1212.01 489.13L1184.02 538.519H1126.24L1097.77 489.567L1125.64 440.367H1184.05L1212.01 489.13ZM1472.27 590.098L1498.67 543.523L1470.37 494.177H1413.15L1384.97 543.471L1412.99 592.329H1471L1472.27 590.098ZM1508.22 537.854H1566.66L1594.45 489.253L1566.03 439.702H1507.87L1480.96 486.764L1479.75 488.903L1508.22 537.854ZM1221.24 592.329L1193.09 543.944L1221.54 494.177H1279.04L1307.46 543.728L1279.67 592.329H1221.24ZM1212.01 380.845L1184.02 430.234H1126.24L1097.77 381.282L1125.72 331.949H1183.97L1212.01 380.845ZM1566.03 547.987H1507.87L1480.97 595.04L1479.75 597.187L1508.3 646.272H1566.59L1594.45 597.538L1566.03 547.987ZM1472.27 481.813L1498.67 435.238L1470.37 385.892H1413.15L1384.97 435.186L1412.99 484.044H1471L1472.27 481.813ZM1508.22 429.57H1566.66L1594.45 380.969L1565.96 331.285H1507.94L1480.97 378.476L1479.75 380.618L1508.22 429.57ZM1221.24 484.044L1193.09 435.659L1221.54 385.892H1279.04L1307.46 435.443L1279.67 484.044H1221.24ZM1472.27 373.528L1498.67 326.953L1470.29 277.475H1413.23L1384.97 326.901L1412.99 375.759H1471L1472.27 373.528ZM1375.2 656.272L1404.24 706.193L1376.59 754.557H1318.31L1289.75 705.472L1317.63 656.272H1375.2ZM1403.64 488.592L1375.72 537.854H1318.23L1289.75 488.903L1317.63 439.702H1375.2L1403.64 488.592ZM1403.64 380.307L1375.72 429.57H1318.23L1289.75 380.618L1317.63 331.418H1375.2L1403.64 380.307ZM1307.46 327.158L1279.67 375.759H1221.24L1192.76 326.808L1220.72 277.475H1278.97L1307.46 327.158ZM1403.85 271.643L1375.72 321.285H1318.23L1289.75 272.333L1317.71 223H1375.96L1403.85 271.643Z" fill="#B5A89B"/>
<path d="M1462.53 462H1425.27V456.805L1444.95 434.93C1447.87 431.622 1449.88 428.94 1450.97 426.883C1452.09 424.799 1452.65 422.651 1452.65 420.438C1452.65 417.469 1451.75 415.034 1449.95 413.133C1448.16 411.232 1445.76 410.281 1442.77 410.281C1439.17 410.281 1436.37 411.31 1434.37 413.367C1432.39 415.398 1431.4 418.237 1431.4 421.883H1424.17C1424.17 416.648 1425.85 412.417 1429.21 409.188C1432.6 405.958 1437.11 404.344 1442.77 404.344C1448.05 404.344 1452.23 405.737 1455.3 408.523C1458.38 411.284 1459.91 414.969 1459.91 419.578C1459.91 425.177 1456.35 431.844 1449.21 439.578L1433.98 456.102H1462.53V462Z" fill="black"/>
<path d="M1358.77 499.898H1366.66V505.797H1358.77V519H1351.51V505.797H1325.61V501.539L1351.08 462.125H1358.77V499.898ZM1333.81 499.898H1351.51V472.008L1350.65 473.57L1333.81 499.898Z" fill="black"/>
<path d="M1545.77 391.898H1553.66V397.797H1545.77V411H1538.51V397.797H1512.61V393.539L1538.08 354.125H1545.77V391.898ZM1520.81 391.898H1538.51V364.008L1537.65 365.57L1520.81 391.898Z" fill="black"/>
<path d="M1545.77 498.898H1553.66V504.797H1545.77V518H1538.51V504.797H1512.61V500.539L1538.08 461.125H1545.77V498.898ZM1520.81 498.898H1538.51V471.008L1537.65 472.57L1520.81 498.898Z" fill="black"/>
<path d="M1358.77 388.898H1366.66V394.797H1358.77V408H1351.51V394.797H1325.61V390.539L1351.08 351.125H1358.77V388.898ZM1333.81 388.898H1351.51V361.008L1350.65 362.57L1333.81 388.898Z" fill="black"/>
<path d="M1267.53 574H1230.27V568.805L1249.95 546.93C1252.87 543.622 1254.88 540.94 1255.97 538.883C1257.09 536.799 1257.65 534.651 1257.65 532.438C1257.65 529.469 1256.75 527.034 1254.95 525.133C1253.16 523.232 1250.76 522.281 1247.77 522.281C1244.17 522.281 1241.37 523.31 1239.37 525.367C1237.39 527.398 1236.4 530.237 1236.4 533.883H1229.17C1229.17 528.648 1230.85 524.417 1234.21 521.188C1237.6 517.958 1242.11 516.344 1247.77 516.344C1253.05 516.344 1257.23 517.737 1260.3 520.523C1263.38 523.284 1264.91 526.969 1264.91 531.578C1264.91 537.177 1261.35 543.844 1254.21 551.578L1238.98 568.102H1267.53V574Z" fill="black"/>
<path d="M1462.53 358H1425.27V352.805L1444.95 330.93C1447.87 327.622 1449.88 324.94 1450.97 322.883C1452.09 320.799 1452.65 318.651 1452.65 316.438C1452.65 313.469 1451.75 311.034 1449.95 309.133C1448.16 307.232 1445.76 306.281 1442.77 306.281C1439.17 306.281 1436.37 307.31 1434.37 309.367C1432.39 311.398 1431.4 314.237 1431.4 317.883H1424.17C1424.17 312.648 1425.85 308.417 1429.21 305.188C1432.6 301.958 1437.11 300.344 1442.77 300.344C1448.05 300.344 1452.23 301.737 1455.3 304.523C1458.38 307.284 1459.91 310.969 1459.91 315.578C1459.91 321.177 1456.35 327.844 1449.21 335.578L1433.98 352.102H1462.53V358Z" fill="black"/>
<path d="M1555.53 626H1518.27V620.805L1537.95 598.93C1540.87 595.622 1542.88 592.94 1543.97 590.883C1545.09 588.799 1545.65 586.651 1545.65 584.438C1545.65 581.469 1544.75 579.034 1542.95 577.133C1541.16 575.232 1538.76 574.281 1535.77 574.281C1532.17 574.281 1529.37 575.31 1527.37 577.367C1525.39 579.398 1524.4 582.237 1524.4 585.883H1517.17C1517.17 580.648 1518.85 576.417 1522.21 573.188C1525.6 569.958 1530.11 568.344 1535.77 568.344C1541.05 568.344 1545.23 569.737 1548.3 572.523C1551.38 575.284 1552.91 578.969 1552.91 583.578C1552.91 589.177 1549.35 595.844 1542.21 603.578L1526.98 620.102H1555.53V626Z" fill="black"/>
<path fill-rule="evenodd" clip-rule="evenodd" d="M786.445 50.5351C787.332 48.9683 788.994 48 790.795 48H854.856C856.648 48 858.302 48.9586 859.194 50.5128L888.99 102.475H949.19C950.982 102.475 952.636 103.433 953.528 104.987L982.943 156.285H1044.85C1046.64 156.285 1048.3 157.243 1049.19 158.798L1080.55 213.478C1081.43 215.016 1081.43 216.907 1080.55 218.446L1050.97 270.186L1080.55 321.762C1081.43 323.301 1081.43 325.191 1080.55 326.731L1050.97 378.471L1080.55 430.047C1081.43 431.586 1081.43 433.476 1080.55 435.016L1049.83 488.753C1048.94 490.311 1047.28 491.272 1045.49 491.272H983.867L954.165 543.228C953.275 544.785 951.618 545.747 949.824 545.747H889.154L859.831 597.038C858.941 598.596 857.284 599.557 855.49 599.557H791.429C789.648 599.557 788.002 598.61 787.107 597.071L757.254 545.747H694.438C692.657 545.747 691.011 544.8 690.116 543.26L660.263 491.936H599.439C597.659 491.936 596.013 490.989 595.117 489.45L563.678 435.398C562.784 433.862 562.773 431.966 563.65 430.419L593.315 378.066L563.678 327.113C562.784 325.577 562.773 323.681 563.65 322.134L593.315 269.781L563.678 218.829C562.784 217.292 562.773 215.396 563.65 213.85L594.455 159.484C595.343 157.917 597.004 156.949 598.805 156.949H660.023L689.453 105.01C690.341 103.443 692.003 102.475 693.803 102.475H757.014L786.445 50.5351ZM794.228 481.139H851.724L879.638 431.876L851.202 382.987H793.633L765.755 432.187L794.228 481.139ZM860.973 486.756L889.066 535.747H946.923L974.784 487.013L946.37 437.462H889.154L860.973 486.756ZM659.948 481.936L688.008 432.414L660.046 383.651H601.644L573.765 432.852L602.315 481.936H659.948ZM697.314 535.747L669.093 487.229L697.544 437.462H755.045L783.458 487.013L755.598 535.747H697.314ZM688.008 324.13L660.023 373.519H602.238L573.765 324.567L601.644 275.367H660.046L688.008 324.13ZM948.275 425.098L974.666 378.523L946.37 329.177H889.154L860.973 378.471L888.99 427.329H946.999L948.275 425.098ZM984.224 372.854H1042.66L1070.45 324.253L1042.03 274.702H983.867L956.963 321.764L955.752 323.903L984.224 372.854ZM697.236 427.329L669.093 378.944L697.544 329.177H755.045L783.458 378.728L755.674 427.329H697.236ZM688.008 215.845L660.023 265.234H602.238L573.765 216.282L601.719 166.949H659.97L688.008 215.845ZM1042.03 382.987H983.867L956.968 430.04L955.752 432.187L984.302 481.272H1042.59L1070.45 432.538L1042.03 382.987ZM948.275 316.813L974.666 270.238L946.37 220.892H889.154L860.973 270.186L888.99 319.044H946.999L948.275 316.813ZM984.224 264.57H1042.66L1070.45 215.969L1041.96 166.285H983.943L956.965 213.476L955.752 215.618L984.224 264.57ZM697.236 319.044L669.093 270.659L697.544 220.892H755.045L783.458 270.443L755.674 319.044H697.236ZM948.275 208.528L974.666 161.953L946.294 112.475H889.23L860.973 161.901L888.99 210.759H946.999L948.275 208.528ZM851.202 491.272L880.238 541.193L852.59 589.557H794.305L765.755 540.472L793.633 491.272H851.202ZM879.638 323.592L851.724 372.854H794.228L765.755 323.903L793.633 274.702H851.202L879.638 323.592ZM879.638 215.307L851.724 264.57H794.228L765.755 215.618L793.633 166.418H851.202L879.638 215.307ZM783.458 162.158L755.674 210.759H697.236L668.764 161.808L696.717 112.475H754.968L783.458 162.158ZM879.853 106.643L851.724 156.285H794.228L765.755 107.333L793.708 58H851.96L879.853 106.643Z" fill="#B5A89B"/>
<path fill-rule="evenodd" clip-rule="evenodd" d="M786.445 50.5351C787.332 48.9683 788.994 48 790.795 48H854.856C856.648 48 858.302 48.9586 859.194 50.5128L888.99 102.475H949.19C950.982 102.475 952.636 103.433 953.528 104.987L982.943 156.285H1044.85C1046.64 156.285 1048.3 157.243 1049.19 158.798L1080.55 213.478C1081.43 215.016 1081.43 216.907 1080.55 218.446L1050.97 270.186L1080.55 321.762C1081.43 323.301 1081.43 325.191 1080.55 326.731L1050.97 378.471L1080.55 430.047C1081.43 431.586 1081.43 433.476 1080.55 435.016L1049.83 488.753C1048.94 490.311 1047.28 491.272 1045.49 491.272H983.867L954.165 543.228C953.275 544.785 951.618 545.747 949.824 545.747H889.154L859.831 597.038C858.941 598.596 857.284 599.557 855.49 599.557H791.429C789.648 599.557 788.002 598.61 787.107 597.071L757.254 545.747H694.438C692.657 545.747 691.011 544.8 690.116 543.26L660.263 491.936H599.439C597.659 491.936 596.013 490.989 595.117 489.45L563.678 435.398C562.784 433.862 562.773 431.966 563.65 430.419L593.315 378.066L563.678 327.113C562.784 325.577 562.773 323.681 563.65 322.134L593.315 269.781L563.678 218.829C562.784 217.292 562.773 215.396 563.65 213.85L594.455 159.484C595.343 157.917 597.004 156.949 598.805 156.949H660.023L689.453 105.01C690.341 103.443 692.003 102.475 693.803 102.475H757.014L786.445 50.5351ZM794.228 481.139H851.724L879.638 431.876L851.202 382.987H793.633L765.755 432.187L794.228 481.139ZM860.973 486.756L889.066 535.747H946.923L974.784 487.013L946.37 437.462H889.154L860.973 486.756ZM659.948 481.936L688.008 432.414L660.046 383.651H601.644L573.765 432.852L602.315 481.936H659.948ZM697.314 535.747L669.093 487.229L697.544 437.462H755.045L783.458 487.013L755.598 535.747H697.314ZM688.008 324.13L660.023 373.519H602.238L573.765 324.567L601.644 275.367H660.046L688.008 324.13ZM948.275 425.098L974.666 378.523L946.37 329.177H889.154L860.973 378.471L888.99 427.329H946.999L948.275 425.098ZM984.224 372.854H1042.66L1070.45 324.253L1042.03 274.702H983.867L956.963 321.764L955.752 323.903L984.224 372.854ZM697.236 427.329L669.093 378.944L697.544 329.177H755.045L783.458 378.728L755.674 427.329H697.236ZM688.008 215.845L660.023 265.234H602.238L573.765 216.282L601.719 166.949H659.97L688.008 215.845ZM1042.03 382.987H983.867L956.968 430.04L955.752 432.187L984.302 481.272H1042.59L1070.45 432.538L1042.03 382.987ZM948.275 316.813L974.666 270.238L946.37 220.892H889.154L860.973 270.186L888.99 319.044H946.999L948.275 316.813ZM984.224 264.57H1042.66L1070.45 215.969L1041.96 166.285H983.943L956.965 213.476L955.752 215.618L984.224 264.57ZM697.236 319.044L669.093 270.659L697.544 220.892H755.045L783.458 270.443L755.674 319.044H697.236ZM948.275 208.528L974.666 161.953L946.294 112.475H889.23L860.973 161.901L888.99 210.759H946.999L948.275 208.528ZM851.202 491.272L880.238 541.193L852.59 589.557H794.305L765.755 540.472L793.633 491.272H851.202ZM879.638 323.592L851.724 372.854H794.228L765.755 323.903L793.633 274.702H851.202L879.638 323.592ZM879.638 215.307L851.724 264.57H794.228L765.755 215.618L793.633 166.418H851.202L879.638 215.307ZM783.458 162.158L755.674 210.759H697.236L668.764 161.808L696.717 112.475H754.968L783.458 162.158ZM879.853 106.643L851.724 156.285H794.228L765.755 107.333L793.708 58H851.96L879.853 106.643Z" fill="#B5A89B"/>
<path d="M741.758 145.969C741.758 148.807 741.003 151.333 739.492 153.547C738.008 155.76 735.99 157.492 733.438 158.742C736.406 160.018 738.75 161.88 740.469 164.328C742.214 166.776 743.086 169.549 743.086 172.648C743.086 177.57 741.419 181.49 738.086 184.406C734.779 187.323 730.417 188.781 725 188.781C719.531 188.781 715.143 187.323 711.836 184.406C708.555 181.464 706.914 177.544 706.914 172.648C706.914 169.576 707.747 166.802 709.414 164.328C711.107 161.854 713.438 159.979 716.406 158.703C713.88 157.453 711.888 155.721 710.43 153.508C708.971 151.294 708.242 148.781 708.242 145.969C708.242 141.177 709.779 137.375 712.852 134.562C715.924 131.75 719.974 130.344 725 130.344C730 130.344 734.036 131.75 737.109 134.562C740.208 137.375 741.758 141.177 741.758 145.969ZM735.859 172.492C735.859 169.315 734.844 166.724 732.812 164.719C730.807 162.714 728.177 161.711 724.922 161.711C721.667 161.711 719.049 162.701 717.07 164.68C715.117 166.659 714.141 169.263 714.141 172.492C714.141 175.721 715.091 178.26 716.992 180.109C718.919 181.958 721.589 182.883 725 182.883C728.385 182.883 731.042 181.958 732.969 180.109C734.896 178.234 735.859 175.695 735.859 172.492ZM725 136.281C722.161 136.281 719.857 137.167 718.086 138.938C716.341 140.682 715.469 143.065 715.469 146.086C715.469 148.977 716.328 151.32 718.047 153.117C719.792 154.888 722.109 155.773 725 155.773C727.891 155.773 730.195 154.888 731.914 153.117C733.659 151.32 734.531 148.977 734.531 146.086C734.531 143.195 733.633 140.839 731.836 139.016C730.039 137.193 727.76 136.281 725 136.281Z" fill="black"/>
<path d="M924.773 179.898H932.664V185.797H924.773V199H917.508V185.797H891.609V181.539L917.078 142.125H924.773V179.898ZM899.812 179.898H917.508V152.008L916.648 153.57L899.812 179.898Z" fill="black"/>
<path d="M828.773 225.898H836.664V231.797H828.773V245H821.508V231.797H795.609V227.539L821.078 188.125H828.773V225.898ZM803.812 225.898H821.508V198.008L820.648 199.57L803.812 225.898Z" fill="black"/>
<path d="M831.773 116.898H839.664V122.797H831.773V136H824.508V122.797H798.609V118.539L824.078 79.125H831.773V116.898ZM806.812 116.898H824.508V89.0078L823.648 90.5703L806.812 116.898Z" fill="black"/>
<path d="M649.531 245H612.266V239.805L631.953 217.93C634.87 214.622 636.875 211.94 637.969 209.883C639.089 207.799 639.648 205.651 639.648 203.438C639.648 200.469 638.75 198.034 636.953 196.133C635.156 194.232 632.76 193.281 629.766 193.281C626.172 193.281 623.372 194.31 621.367 196.367C619.388 198.398 618.398 201.237 618.398 204.883H611.172C611.172 199.648 612.852 195.417 616.211 192.188C619.596 188.958 624.115 187.344 629.766 187.344C635.052 187.344 639.232 188.737 642.305 191.523C645.378 194.284 646.914 197.969 646.914 202.578C646.914 208.177 643.346 214.844 636.211 222.578L620.977 239.102H649.531V245Z" fill="black"/>
<path d="M936.531 300H899.266V294.805L918.953 272.93C921.87 269.622 923.875 266.94 924.969 264.883C926.089 262.799 926.648 260.651 926.648 258.438C926.648 255.469 925.75 253.034 923.953 251.133C922.156 249.232 919.76 248.281 916.766 248.281C913.172 248.281 910.372 249.31 908.367 251.367C906.388 253.398 905.398 256.237 905.398 259.883H898.172C898.172 254.648 899.852 250.417 903.211 247.188C906.596 243.958 911.115 242.344 916.766 242.344C922.052 242.344 926.232 243.737 929.305 246.523C932.378 249.284 933.914 252.969 933.914 257.578C933.914 263.177 930.346 269.844 923.211 277.578L907.977 294.102H936.531V300Z" fill="black"/>
<path fill-rule="evenodd" clip-rule="evenodd" d="M264.445 220.535C265.332 218.968 266.994 218 268.795 218H332.856C334.648 218 336.302 218.959 337.194 220.513L366.99 272.475H427.19C428.982 272.475 430.636 273.433 431.528 274.987L460.943 326.285H522.853C524.644 326.285 526.299 327.243 527.19 328.798L558.545 383.478C559.427 385.016 559.429 386.907 558.548 388.446L528.97 440.186L558.545 491.762C559.427 493.301 559.429 495.191 558.548 496.731L528.97 548.471L558.545 600.047C559.427 601.586 559.429 603.476 558.548 605.016L527.828 658.753C526.938 660.311 525.281 661.272 523.487 661.272H461.867L432.165 713.228C431.275 714.785 429.618 715.747 427.824 715.747H367.154L337.831 767.038C336.941 768.596 335.284 769.557 333.49 769.557H269.429C267.648 769.557 266.002 768.61 265.107 767.071L235.254 715.747H172.438C170.657 715.747 169.011 714.8 168.116 713.26L138.263 661.936H77.4394C75.6589 661.936 74.0126 660.989 73.1174 659.45L41.6779 605.398C40.7842 603.862 40.7735 601.966 41.6498 600.419L71.3147 548.066L41.6779 497.113C40.7842 495.577 40.7735 493.681 41.6498 492.134L71.3147 439.781L41.6779 388.829C40.7842 387.292 40.7735 385.396 41.6498 383.85L72.455 329.484C73.3427 327.917 75.0044 326.949 76.8052 326.949H138.023L167.453 275.01C168.341 273.443 170.003 272.475 171.803 272.475H235.014L264.445 220.535ZM272.228 651.139H329.724L357.638 601.876L329.202 552.987H271.633L243.755 602.187L272.228 651.139ZM338.973 656.756L367.066 705.747H424.923L452.784 657.013L424.37 607.462H367.154L338.973 656.756ZM137.948 651.936L166.008 602.414L138.046 553.651H79.6436L51.7653 602.852L80.3155 651.936H137.948ZM175.314 705.747L147.093 657.229L175.544 607.462H233.045L261.458 657.013L233.598 705.747H175.314ZM166.008 494.13L138.023 543.519H80.2382L51.7653 494.567L79.6436 445.367H138.046L166.008 494.13ZM426.275 595.098L452.666 548.523L424.37 499.177H367.154L338.973 548.471L366.99 597.329H424.999L426.275 595.098ZM462.224 542.854H520.662L548.446 494.253L520.032 444.702H461.867L434.963 491.764L433.752 493.903L462.224 542.854ZM175.236 597.329L147.093 548.944L175.544 499.177H233.045L261.458 548.728L233.674 597.329H175.236ZM166.008 385.845L138.023 435.234H80.2382L51.7653 386.282L79.7189 336.949H137.97L166.008 385.845ZM520.032 552.987H461.867L434.968 600.04L433.752 602.187L462.302 651.272H520.586L548.446 602.538L520.032 552.987ZM426.275 486.813L452.666 440.238L424.37 390.892H367.154L338.973 440.186L366.99 489.044H424.999L426.275 486.813ZM462.224 434.57H520.662L548.446 385.969L519.956 336.285H461.943L434.965 383.476L433.752 385.618L462.224 434.57ZM175.236 489.044L147.093 440.659L175.544 390.892H233.045L261.458 440.443L233.674 489.044H175.236ZM426.275 378.528L452.666 331.953L424.294 282.475H367.23L338.973 331.901L366.99 380.759H424.999L426.275 378.528ZM329.202 661.272L358.238 711.193L330.59 759.557H272.305L243.755 710.472L271.633 661.272H329.202ZM357.638 493.592L329.724 542.854H272.228L243.755 493.903L271.633 444.702H329.202L357.638 493.592ZM357.638 385.307L329.724 434.57H272.228L243.755 385.618L271.633 336.418H329.202L357.638 385.307ZM261.458 332.158L233.674 380.759H175.236L146.764 331.808L174.717 282.475H232.968L261.458 332.158ZM357.853 276.643L329.724 326.285H272.228L243.755 277.333L271.708 228H329.96L357.853 276.643Z" fill="#B5A89B"/>
<path fill-rule="evenodd" clip-rule="evenodd" d="M264.445 220.535C265.332 218.968 266.994 218 268.795 218H332.856C334.648 218 336.302 218.959 337.194 220.513L366.99 272.475H427.19C428.982 272.475 430.636 273.433 431.528 274.987L460.943 326.285H522.853C524.644 326.285 526.299 327.243 527.19 328.798L558.545 383.478C559.427 385.016 559.429 386.907 558.548 388.446L528.97 440.186L558.545 491.762C559.427 493.301 559.429 495.191 558.548 496.731L528.97 548.471L558.545 600.047C559.427 601.586 559.429 603.476 558.548 605.016L527.828 658.753C526.938 660.311 525.281 661.272 523.487 661.272H461.867L432.165 713.228C431.275 714.785 429.618 715.747 427.824 715.747H367.154L337.831 767.038C336.941 768.596 335.284 769.557 333.49 769.557H269.429C267.648 769.557 266.002 768.61 265.107 767.071L235.254 715.747H172.438C170.657 715.747 169.011 714.8 168.116 713.26L138.263 661.936H77.4394C75.6589 661.936 74.0126 660.989 73.1174 659.45L41.6779 605.398C40.7842 603.862 40.7735 601.966 41.6498 600.419L71.3147 548.066L41.6779 497.113C40.7842 495.577 40.7735 493.681 41.6498 492.134L71.3147 439.781L41.6779 388.829C40.7842 387.292 40.7735 385.396 41.6498 383.85L72.455 329.484C73.3427 327.917 75.0044 326.949 76.8052 326.949H138.023L167.453 275.01C168.341 273.443 170.003 272.475 171.803 272.475H235.014L264.445 220.535ZM272.228 651.139H329.724L357.638 601.876L329.202 552.987H271.633L243.755 602.187L272.228 651.139ZM338.973 656.756L367.066 705.747H424.923L452.784 657.013L424.37 607.462H367.154L338.973 656.756ZM137.948 651.936L166.008 602.414L138.046 553.651H79.6436L51.7653 602.852L80.3155 651.936H137.948ZM175.314 705.747L147.093 657.229L175.544 607.462H233.045L261.458 657.013L233.598 705.747H175.314ZM166.008 494.13L138.023 543.519H80.2382L51.7653 494.567L79.6436 445.367H138.046L166.008 494.13ZM426.275 595.098L452.666 548.523L424.37 499.177H367.154L338.973 548.471L366.99 597.329H424.999L426.275 595.098ZM462.224 542.854H520.662L548.446 494.253L520.032 444.702H461.867L434.963 491.764L433.752 493.903L462.224 542.854ZM175.236 597.329L147.093 548.944L175.544 499.177H233.045L261.458 548.728L233.674 597.329H175.236ZM166.008 385.845L138.023 435.234H80.2382L51.7653 386.282L79.7189 336.949H137.97L166.008 385.845ZM520.032 552.987H461.867L434.968 600.04L433.752 602.187L462.302 651.272H520.586L548.446 602.538L520.032 552.987ZM426.275 486.813L452.666 440.238L424.37 390.892H367.154L338.973 440.186L366.99 489.044H424.999L426.275 486.813ZM462.224 434.57H520.662L548.446 385.969L519.956 336.285H461.943L434.965 383.476L433.752 385.618L462.224 434.57ZM175.236 489.044L147.093 440.659L175.544 390.892H233.045L261.458 440.443L233.674 489.044H175.236ZM426.275 378.528L452.666 331.953L424.294 282.475H367.23L338.973 331.901L366.99 380.759H424.999L426.275 378.528ZM329.202 661.272L358.238 711.193L330.59 759.557H272.305L243.755 710.472L271.633 661.272H329.202ZM357.638 493.592L329.724 542.854H272.228L243.755 493.903L271.633 444.702H329.202L357.638 493.592ZM357.638 385.307L329.724 434.57H272.228L243.755 385.618L271.633 336.418H329.202L357.638 385.307ZM261.458 332.158L233.674 380.759H175.236L146.764 331.808L174.717 282.475H232.968L261.458 332.158ZM357.853 276.643L329.724 326.285H272.228L243.755 277.333L271.708 228H329.96L357.853 276.643Z" fill="#B5A89B"/>
<path d="M118.773 500.898H126.664V506.797H118.773V520H111.508V506.797H85.6094V502.539L111.078 463.125H118.773V500.898ZM93.8125 500.898H111.508V473.008L110.648 474.57L93.8125 500.898Z" fill="black"/>
<path d="M118.773 610.898H126.664V616.797H118.773V630H111.508V616.797H85.6094V612.539L111.078 573.125H118.773V610.898ZM93.8125 610.898H111.508V583.008L110.648 584.57L93.8125 610.898Z" fill="black"/>
<path d="M303.773 387.898H311.664V393.797H303.773V407H296.508V393.797H270.609V389.539L296.078 350.125H303.773V387.898ZM278.812 387.898H296.508V360.008L295.648 361.57L278.812 387.898Z" fill="black"/>
<path d="M114.773 392.898H122.664V398.797H114.773V412H107.508V398.797H81.6094V394.539L107.078 355.125H114.773V392.898ZM89.8125 392.898H107.508V365.008L106.648 366.57L89.8125 392.898Z" fill="black"/>
<path d="M214.773 448.898H222.664V454.797H214.773V468H207.508V454.797H181.609V450.539L207.078 411.125H214.773V448.898ZM189.812 448.898H207.508V421.008L206.648 422.57L189.812 448.898Z" fill="black"/>
<path d="M220.531 357H183.266V351.805L202.953 329.93C205.87 326.622 207.875 323.94 208.969 321.883C210.089 319.799 210.648 317.651 210.648 315.438C210.648 312.469 209.75 310.034 207.953 308.133C206.156 306.232 203.76 305.281 200.766 305.281C197.172 305.281 194.372 306.31 192.367 308.367C190.388 310.398 189.398 313.237 189.398 316.883H182.172C182.172 311.648 183.852 307.417 187.211 304.188C190.596 300.958 195.115 299.344 200.766 299.344C206.052 299.344 210.232 300.737 213.305 303.523C216.378 306.284 217.914 309.969 217.914 314.578C217.914 320.177 214.346 326.844 207.211 334.578L191.977 351.102H220.531V357Z" fill="black"/>
<path d="M222.531 575H185.266V569.805L204.953 547.93C207.87 544.622 209.875 541.94 210.969 539.883C212.089 537.799 212.648 535.651 212.648 533.438C212.648 530.469 211.75 528.034 209.953 526.133C208.156 524.232 205.76 523.281 202.766 523.281C199.172 523.281 196.372 524.31 194.367 526.367C192.388 528.398 191.398 531.237 191.398 534.883H184.172C184.172 529.648 185.852 525.417 189.211 522.188C192.596 518.958 197.115 517.344 202.766 517.344C208.052 517.344 212.232 518.737 215.305 521.523C218.378 524.284 219.914 527.969 219.914 532.578C219.914 538.177 216.346 544.844 209.211 552.578L193.977 569.102H222.531V575Z" fill="black"/>
<path fill-rule="evenodd" clip-rule="evenodd" d="M1320.44 1495.54C1321.33 1493.97 1322.99 1493 1324.79 1493H1388.86C1390.65 1493 1392.3 1493.96 1393.19 1495.51L1422.99 1547.47H1483.19C1484.98 1547.47 1486.64 1548.43 1487.53 1549.99L1516.94 1601.28H1578.85C1580.64 1601.28 1582.3 1602.24 1583.19 1603.8L1614.55 1658.48C1615.43 1660.02 1615.43 1661.91 1614.55 1663.45L1584.97 1715.19L1614.55 1766.76C1615.43 1768.3 1615.43 1770.19 1614.55 1771.73L1584.97 1823.47L1614.55 1875.05C1615.43 1876.59 1615.43 1878.48 1614.55 1880.02L1583.83 1933.75C1582.94 1935.31 1581.28 1936.27 1579.49 1936.27H1517.87L1488.17 1988.23C1487.27 1989.79 1485.62 1990.75 1483.82 1990.75H1423.15L1393.83 2042.04C1392.94 2043.6 1391.28 2044.56 1389.49 2044.56H1325.43C1323.65 2044.56 1322 2043.61 1321.11 2042.07L1291.25 1990.75H1228.44C1226.66 1990.75 1225.01 1989.8 1224.12 1988.26L1194.26 1936.94H1133.44C1131.66 1936.94 1130.01 1935.99 1129.12 1934.45L1097.68 1880.4C1096.78 1878.86 1096.77 1876.97 1097.65 1875.42L1127.31 1823.07L1097.68 1772.11C1096.78 1770.58 1096.77 1768.68 1097.65 1767.13L1127.31 1714.78L1097.68 1663.83C1096.78 1662.29 1096.77 1660.4 1097.65 1658.85L1128.45 1604.48C1129.34 1602.92 1131 1601.95 1132.81 1601.95H1194.02L1223.45 1550.01C1224.34 1548.44 1226 1547.47 1227.8 1547.47H1291.01L1320.44 1495.54ZM1328.23 1926.14H1385.72L1413.64 1876.88L1385.2 1827.99H1327.63L1299.75 1877.19L1328.23 1926.14ZM1394.97 1931.76L1423.07 1980.75H1480.92L1508.78 1932.01L1480.37 1882.46H1423.15L1394.97 1931.76ZM1193.95 1926.94L1222.01 1877.41L1194.05 1828.65H1135.64L1107.77 1877.85L1136.32 1926.94H1193.95ZM1231.31 1980.75L1203.09 1932.23L1231.54 1882.46H1289.04L1317.46 1932.01L1289.6 1980.75H1231.31ZM1222.01 1769.13L1194.02 1818.52H1136.24L1107.77 1769.57L1135.64 1720.37H1194.05L1222.01 1769.13ZM1482.27 1870.1L1508.67 1823.52L1480.37 1774.18H1423.15L1394.97 1823.47L1422.99 1872.33H1481L1482.27 1870.1ZM1518.22 1817.85H1576.66L1604.45 1769.25L1576.03 1719.7H1517.87L1490.96 1766.76L1489.75 1768.9L1518.22 1817.85ZM1231.24 1872.33L1203.09 1823.94L1231.54 1774.18H1289.04L1317.46 1823.73L1289.67 1872.33H1231.24ZM1222.01 1660.84L1194.02 1710.23H1136.24L1107.77 1661.28L1135.72 1611.95H1193.97L1222.01 1660.84ZM1576.03 1827.99H1517.87L1490.97 1875.04L1489.75 1877.19L1518.3 1926.27H1576.59L1604.45 1877.54L1576.03 1827.99ZM1482.27 1761.81L1508.67 1715.24L1480.37 1665.89H1423.15L1394.97 1715.19L1422.99 1764.04H1481L1482.27 1761.81ZM1518.22 1709.57H1576.66L1604.45 1660.97L1575.96 1611.28H1517.94L1490.97 1658.48L1489.75 1660.62L1518.22 1709.57ZM1231.24 1764.04L1203.09 1715.66L1231.54 1665.89H1289.04L1317.46 1715.44L1289.67 1764.04H1231.24ZM1482.27 1653.53L1508.67 1606.95L1480.29 1557.47H1423.23L1394.97 1606.9L1422.99 1655.76H1481L1482.27 1653.53ZM1385.2 1936.27L1414.24 1986.19L1386.59 2034.56H1328.31L1299.75 1985.47L1327.63 1936.27H1385.2ZM1413.64 1768.59L1385.72 1817.85H1328.23L1299.75 1768.9L1327.63 1719.7H1385.2L1413.64 1768.59ZM1413.64 1660.31L1385.72 1709.57H1328.23L1299.75 1660.62L1327.63 1611.42H1385.2L1413.64 1660.31ZM1317.46 1607.16L1289.67 1655.76H1231.24L1202.76 1606.81L1230.72 1557.47H1288.97L1317.46 1607.16ZM1413.85 1551.64L1385.72 1601.28H1328.23L1299.75 1552.33L1327.71 1503H1385.96L1413.85 1551.64Z" fill="#B5A89B"/>
<path fill-rule="evenodd" clip-rule="evenodd" d="M1320.44 1495.54C1321.33 1493.97 1322.99 1493 1324.79 1493H1388.86C1390.65 1493 1392.3 1493.96 1393.19 1495.51L1422.99 1547.47H1483.19C1484.98 1547.47 1486.64 1548.43 1487.53 1549.99L1516.94 1601.28H1578.85C1580.64 1601.28 1582.3 1602.24 1583.19 1603.8L1614.55 1658.48C1615.43 1660.02 1615.43 1661.91 1614.55 1663.45L1584.97 1715.19L1614.55 1766.76C1615.43 1768.3 1615.43 1770.19 1614.55 1771.73L1584.97 1823.47L1614.55 1875.05C1615.43 1876.59 1615.43 1878.48 1614.55 1880.02L1583.83 1933.75C1582.94 1935.31 1581.28 1936.27 1579.49 1936.27H1517.87L1488.17 1988.23C1487.27 1989.79 1485.62 1990.75 1483.82 1990.75H1423.15L1393.83 2042.04C1392.94 2043.6 1391.28 2044.56 1389.49 2044.56H1325.43C1323.65 2044.56 1322 2043.61 1321.11 2042.07L1291.25 1990.75H1228.44C1226.66 1990.75 1225.01 1989.8 1224.12 1988.26L1194.26 1936.94H1133.44C1131.66 1936.94 1130.01 1935.99 1129.12 1934.45L1097.68 1880.4C1096.78 1878.86 1096.77 1876.97 1097.65 1875.42L1127.31 1823.07L1097.68 1772.11C1096.78 1770.58 1096.77 1768.68 1097.65 1767.13L1127.31 1714.78L1097.68 1663.83C1096.78 1662.29 1096.77 1660.4 1097.65 1658.85L1128.45 1604.48C1129.34 1602.92 1131 1601.95 1132.81 1601.95H1194.02L1223.45 1550.01C1224.34 1548.44 1226 1547.47 1227.8 1547.47H1291.01L1320.44 1495.54ZM1328.23 1926.14H1385.72L1413.64 1876.88L1385.2 1827.99H1327.63L1299.75 1877.19L1328.23 1926.14ZM1394.97 1931.76L1423.07 1980.75H1480.92L1508.78 1932.01L1480.37 1882.46H1423.15L1394.97 1931.76ZM1193.95 1926.94L1222.01 1877.41L1194.05 1828.65H1135.64L1107.77 1877.85L1136.32 1926.94H1193.95ZM1231.31 1980.75L1203.09 1932.23L1231.54 1882.46H1289.04L1317.46 1932.01L1289.6 1980.75H1231.31ZM1222.01 1769.13L1194.02 1818.52H1136.24L1107.77 1769.57L1135.64 1720.37H1194.05L1222.01 1769.13ZM1482.27 1870.1L1508.67 1823.52L1480.37 1774.18H1423.15L1394.97 1823.47L1422.99 1872.33H1481L1482.27 1870.1ZM1518.22 1817.85H1576.66L1604.45 1769.25L1576.03 1719.7H1517.87L1490.96 1766.76L1489.75 1768.9L1518.22 1817.85ZM1231.24 1872.33L1203.09 1823.94L1231.54 1774.18H1289.04L1317.46 1823.73L1289.67 1872.33H1231.24ZM1222.01 1660.84L1194.02 1710.23H1136.24L1107.77 1661.28L1135.72 1611.95H1193.97L1222.01 1660.84ZM1576.03 1827.99H1517.87L1490.97 1875.04L1489.75 1877.19L1518.3 1926.27H1576.59L1604.45 1877.54L1576.03 1827.99ZM1482.27 1761.81L1508.67 1715.24L1480.37 1665.89H1423.15L1394.97 1715.19L1422.99 1764.04H1481L1482.27 1761.81ZM1518.22 1709.57H1576.66L1604.45 1660.97L1575.96 1611.28H1517.94L1490.97 1658.48L1489.75 1660.62L1518.22 1709.57ZM1231.24 1764.04L1203.09 1715.66L1231.54 1665.89H1289.04L1317.46 1715.44L1289.67 1764.04H1231.24ZM1482.27 1653.53L1508.67 1606.95L1480.29 1557.47H1423.23L1394.97 1606.9L1422.99 1655.76H1481L1482.27 1653.53ZM1385.2 1936.27L1414.24 1986.19L1386.59 2034.56H1328.31L1299.75 1985.47L1327.63 1936.27H1385.2ZM1413.64 1768.59L1385.72 1817.85H1328.23L1299.75 1768.9L1327.63 1719.7H1385.2L1413.64 1768.59ZM1413.64 1660.31L1385.72 1709.57H1328.23L1299.75 1660.62L1327.63 1611.42H1385.2L1413.64 1660.31ZM1317.46 1607.16L1289.67 1655.76H1231.24L1202.76 1606.81L1230.72 1557.47H1288.97L1317.46 1607.16ZM1413.85 1551.64L1385.72 1601.28H1328.23L1299.75 1552.33L1327.71 1503H1385.96L1413.85 1551.64Z" fill="#B5A89B"/>
<path d="M1368.77 1888.9H1376.66V1894.8H1368.77V1908H1361.51V1894.8H1335.61V1890.54L1361.08 1851.12H1368.77V1888.9ZM1343.81 1888.9H1361.51V1861.01L1360.65 1862.57L1343.81 1888.9Z" fill="black"/>
<path d="M1365.77 1994.9H1373.66V2000.8H1365.77V2014H1358.51V2000.8H1332.61V1996.54L1358.08 1957.12H1365.77V1994.9ZM1340.81 1994.9H1358.51V1967.01L1357.65 1968.57L1340.81 1994.9Z" fill="black"/>
<path d="M1552.77 1780.9H1560.66V1786.8H1552.77V1800H1545.51V1786.8H1519.61V1782.54L1545.08 1743.12H1552.77V1780.9ZM1527.81 1780.9H1545.51V1753.01L1544.65 1754.57L1527.81 1780.9Z" fill="black"/>
<path d="M1454.77 1830.9H1462.66V1836.8H1454.77V1850H1447.51V1836.8H1421.61V1832.54L1447.08 1793.12H1454.77V1830.9ZM1429.81 1830.9H1447.51V1803.01L1446.65 1804.57L1429.81 1830.9Z" fill="black"/>
<path d="M1560.77 1892.9H1568.66V1898.8H1560.77V1912H1553.51V1898.8H1527.61V1894.54L1553.08 1855.12H1560.77V1892.9ZM1535.81 1892.9H1553.51V1865.01L1552.65 1866.57L1535.81 1892.9Z" fill="black"/>
<path d="M1464.53 1749H1427.27V1743.8L1446.95 1721.93C1449.87 1718.62 1451.88 1715.94 1452.97 1713.88C1454.09 1711.8 1454.65 1709.65 1454.65 1707.44C1454.65 1704.47 1453.75 1702.03 1451.95 1700.13C1450.16 1698.23 1447.76 1697.28 1444.77 1697.28C1441.17 1697.28 1438.37 1698.31 1436.37 1700.37C1434.39 1702.4 1433.4 1705.24 1433.4 1708.88H1426.17C1426.17 1703.65 1427.85 1699.42 1431.21 1696.19C1434.6 1692.96 1439.11 1691.34 1444.77 1691.34C1450.05 1691.34 1454.23 1692.74 1457.3 1695.52C1460.38 1698.28 1461.91 1701.97 1461.91 1706.58C1461.91 1712.18 1458.35 1718.84 1451.21 1726.58L1435.98 1743.1H1464.53V1749Z" fill="black"/>
<path d="M1472.53 1959H1435.27V1953.8L1454.95 1931.93C1457.87 1928.62 1459.88 1925.94 1460.97 1923.88C1462.09 1921.8 1462.65 1919.65 1462.65 1917.44C1462.65 1914.47 1461.75 1912.03 1459.95 1910.13C1458.16 1908.23 1455.76 1907.28 1452.77 1907.28C1449.17 1907.28 1446.37 1908.31 1444.37 1910.37C1442.39 1912.4 1441.4 1915.24 1441.4 1918.88H1434.17C1434.17 1913.65 1435.85 1909.42 1439.21 1906.19C1442.6 1902.96 1447.11 1901.34 1452.77 1901.34C1458.05 1901.34 1462.23 1902.74 1465.3 1905.52C1468.38 1908.28 1469.91 1911.97 1469.91 1916.58C1469.91 1922.18 1466.35 1928.84 1459.21 1936.58L1443.98 1953.1H1472.53V1959Z" fill="black"/>
<path fill-rule="evenodd" clip-rule="evenodd" d="M786.445 1657.54C787.332 1655.97 788.994 1655 790.795 1655H854.856C856.648 1655 858.302 1655.96 859.194 1657.51L888.99 1709.47H949.19C950.982 1709.47 952.636 1710.43 953.528 1711.99L982.943 1763.28H1044.85C1046.64 1763.28 1048.3 1764.24 1049.19 1765.8L1080.55 1820.48C1081.43 1822.02 1081.43 1823.91 1080.55 1825.45L1050.97 1877.19L1080.55 1928.76C1081.43 1930.3 1081.43 1932.19 1080.55 1933.73L1050.97 1985.47L1080.55 2037.05C1081.43 2038.59 1081.43 2040.48 1080.55 2042.02L1049.83 2095.75C1048.94 2097.31 1047.28 2098.27 1045.49 2098.27H983.867L954.165 2150.23C953.275 2151.79 951.618 2152.75 949.824 2152.75H889.154L859.831 2204.04C858.941 2205.6 857.284 2206.56 855.49 2206.56H791.429C789.648 2206.56 788.002 2205.61 787.107 2204.07L757.254 2152.75H694.438C692.657 2152.75 691.011 2151.8 690.116 2150.26L660.263 2098.94H599.439C597.659 2098.94 596.013 2097.99 595.117 2096.45L563.678 2042.4C562.784 2040.86 562.773 2038.97 563.65 2037.42L593.315 1985.07L563.678 1934.11C562.784 1932.58 562.773 1930.68 563.65 1929.13L593.315 1876.78L563.678 1825.83C562.784 1824.29 562.773 1822.4 563.65 1820.85L594.455 1766.48C595.343 1764.92 597.004 1763.95 598.805 1763.95H660.023L689.453 1712.01C690.341 1710.44 692.003 1709.47 693.803 1709.47H757.014L786.445 1657.54ZM794.228 2088.14H851.724L879.638 2038.88L851.202 1989.99H793.633L765.755 2039.19L794.228 2088.14ZM860.973 2093.76L889.066 2142.75H946.923L974.784 2094.01L946.37 2044.46H889.154L860.973 2093.76ZM659.948 2088.94L688.008 2039.41L660.046 1990.65H601.644L573.765 2039.85L602.315 2088.94H659.948ZM697.314 2142.75L669.093 2094.23L697.544 2044.46H755.045L783.458 2094.01L755.598 2142.75H697.314ZM688.008 1931.13L660.023 1980.52H602.238L573.765 1931.57L601.644 1882.37H660.046L688.008 1931.13ZM948.275 2032.1L974.666 1985.52L946.37 1936.18H889.154L860.973 1985.47L888.99 2034.33H946.999L948.275 2032.1ZM984.224 1979.85H1042.66L1070.45 1931.25L1042.03 1881.7H983.867L956.963 1928.76L955.752 1930.9L984.224 1979.85ZM697.236 2034.33L669.093 1985.94L697.544 1936.18H755.045L783.458 1985.73L755.674 2034.33H697.236ZM688.008 1822.84L660.023 1872.23H602.238L573.765 1823.28L601.719 1773.95H659.97L688.008 1822.84ZM1042.03 1989.99H983.867L956.968 2037.04L955.752 2039.19L984.302 2088.27H1042.59L1070.45 2039.54L1042.03 1989.99ZM948.275 1923.81L974.666 1877.24L946.37 1827.89H889.154L860.973 1877.19L888.99 1926.04H946.999L948.275 1923.81ZM984.224 1871.57H1042.66L1070.45 1822.97L1041.96 1773.28H983.943L956.965 1820.48L955.752 1822.62L984.224 1871.57ZM697.236 1926.04L669.093 1877.66L697.544 1827.89H755.045L783.458 1877.44L755.674 1926.04H697.236ZM948.275 1815.53L974.666 1768.95L946.294 1719.47H889.23L860.973 1768.9L888.99 1817.76H946.999L948.275 1815.53ZM851.202 2098.27L880.238 2148.19L852.59 2196.56H794.305L765.755 2147.47L793.633 2098.27H851.202ZM879.638 1930.59L851.724 1979.85H794.228L765.755 1930.9L793.633 1881.7H851.202L879.638 1930.59ZM879.638 1822.31L851.724 1871.57H794.228L765.755 1822.62L793.633 1773.42H851.202L879.638 1822.31ZM783.458 1769.16L755.674 1817.76H697.236L668.764 1768.81L696.717 1719.47H754.968L783.458 1769.16ZM879.853 1713.64L851.724 1763.28H794.228L765.755 1714.33L793.708 1665H851.96L879.853 1713.64Z" fill="#B5A89B"/>
<path fill-rule="evenodd" clip-rule="evenodd" d="M786.445 1657.54C787.332 1655.97 788.994 1655 790.795 1655H854.856C856.648 1655 858.302 1655.96 859.194 1657.51L888.99 1709.47H949.19C950.982 1709.47 952.636 1710.43 953.528 1711.99L982.943 1763.28H1044.85C1046.64 1763.28 1048.3 1764.24 1049.19 1765.8L1080.55 1820.48C1081.43 1822.02 1081.43 1823.91 1080.55 1825.45L1050.97 1877.19L1080.55 1928.76C1081.43 1930.3 1081.43 1932.19 1080.55 1933.73L1050.97 1985.47L1080.55 2037.05C1081.43 2038.59 1081.43 2040.48 1080.55 2042.02L1049.83 2095.75C1048.94 2097.31 1047.28 2098.27 1045.49 2098.27H983.867L954.165 2150.23C953.275 2151.79 951.618 2152.75 949.824 2152.75H889.154L859.831 2204.04C858.941 2205.6 857.284 2206.56 855.49 2206.56H791.429C789.648 2206.56 788.002 2205.61 787.107 2204.07L757.254 2152.75H694.438C692.657 2152.75 691.011 2151.8 690.116 2150.26L660.263 2098.94H599.439C597.659 2098.94 596.013 2097.99 595.117 2096.45L563.678 2042.4C562.784 2040.86 562.773 2038.97 563.65 2037.42L593.315 1985.07L563.678 1934.11C562.784 1932.58 562.773 1930.68 563.65 1929.13L593.315 1876.78L563.678 1825.83C562.784 1824.29 562.773 1822.4 563.65 1820.85L594.455 1766.48C595.343 1764.92 597.004 1763.95 598.805 1763.95H660.023L689.453 1712.01C690.341 1710.44 692.003 1709.47 693.803 1709.47H757.014L786.445 1657.54ZM794.228 2088.14H851.724L879.638 2038.88L851.202 1989.99H793.633L765.755 2039.19L794.228 2088.14ZM860.973 2093.76L889.066 2142.75H946.923L974.784 2094.01L946.37 2044.46H889.154L860.973 2093.76ZM659.948 2088.94L688.008 2039.41L660.046 1990.65H601.644L573.765 2039.85L602.315 2088.94H659.948ZM697.314 2142.75L669.093 2094.23L697.544 2044.46H755.045L783.458 2094.01L755.598 2142.75H697.314ZM688.008 1931.13L660.023 1980.52H602.238L573.765 1931.57L601.644 1882.37H660.046L688.008 1931.13ZM948.275 2032.1L974.666 1985.52L946.37 1936.18H889.154L860.973 1985.47L888.99 2034.33H946.999L948.275 2032.1ZM984.224 1979.85H1042.66L1070.45 1931.25L1042.03 1881.7H983.867L956.963 1928.76L955.752 1930.9L984.224 1979.85ZM697.236 2034.33L669.093 1985.94L697.544 1936.18H755.045L783.458 1985.73L755.674 2034.33H697.236ZM688.008 1822.84L660.023 1872.23H602.238L573.765 1823.28L601.719 1773.95H659.97L688.008 1822.84ZM1042.03 1989.99H983.867L956.968 2037.04L955.752 2039.19L984.302 2088.27H1042.59L1070.45 2039.54L1042.03 1989.99ZM948.275 1923.81L974.666 1877.24L946.37 1827.89H889.154L860.973 1877.19L888.99 1926.04H946.999L948.275 1923.81ZM984.224 1871.57H1042.66L1070.45 1822.97L1041.96 1773.28H983.943L956.965 1820.48L955.752 1822.62L984.224 1871.57ZM697.236 1926.04L669.093 1877.66L697.544 1827.89H755.045L783.458 1877.44L755.674 1926.04H697.236ZM948.275 1815.53L974.666 1768.95L946.294 1719.47H889.23L860.973 1768.9L888.99 1817.76H946.999L948.275 1815.53ZM851.202 2098.27L880.238 2148.19L852.59 2196.56H794.305L765.755 2147.47L793.633 2098.27H851.202ZM879.638 1930.59L851.724 1979.85H794.228L765.755 1930.9L793.633 1881.7H851.202L879.638 1930.59ZM879.638 1822.31L851.724 1871.57H794.228L765.755 1822.62L793.633 1773.42H851.202L879.638 1822.31ZM783.458 1769.16L755.674 1817.76H697.236L668.764 1768.81L696.717 1719.47H754.968L783.458 1769.16ZM879.853 1713.64L851.724 1763.28H794.228L765.755 1714.33L793.708 1665H851.96L879.853 1713.64Z" fill="#B5A89B"/>
<path d="M924.773 1999.9H932.664V2005.8H924.773V2019H917.508V2005.8H891.609V2001.54L917.078 1962.12H924.773V1999.9ZM899.812 1999.9H917.508V1972.01L916.648 1973.57L899.812 1999.9Z" fill="black"/>
<path d="M739.758 2077.97C739.758 2080.81 739.003 2083.33 737.492 2085.55C736.008 2087.76 733.99 2089.49 731.438 2090.74C734.406 2092.02 736.75 2093.88 738.469 2096.33C740.214 2098.78 741.086 2101.55 741.086 2104.65C741.086 2109.57 739.419 2113.49 736.086 2116.41C732.779 2119.32 728.417 2120.78 723 2120.78C717.531 2120.78 713.143 2119.32 709.836 2116.41C706.555 2113.46 704.914 2109.54 704.914 2104.65C704.914 2101.58 705.747 2098.8 707.414 2096.33C709.107 2093.85 711.438 2091.98 714.406 2090.7C711.88 2089.45 709.888 2087.72 708.43 2085.51C706.971 2083.29 706.242 2080.78 706.242 2077.97C706.242 2073.18 707.779 2069.38 710.852 2066.56C713.924 2063.75 717.974 2062.34 723 2062.34C728 2062.34 732.036 2063.75 735.109 2066.56C738.208 2069.38 739.758 2073.18 739.758 2077.97ZM733.859 2104.49C733.859 2101.32 732.844 2098.72 730.812 2096.72C728.807 2094.71 726.177 2093.71 722.922 2093.71C719.667 2093.71 717.049 2094.7 715.07 2096.68C713.117 2098.66 712.141 2101.26 712.141 2104.49C712.141 2107.72 713.091 2110.26 714.992 2112.11C716.919 2113.96 719.589 2114.88 723 2114.88C726.385 2114.88 729.042 2113.96 730.969 2112.11C732.896 2110.23 733.859 2107.7 733.859 2104.49ZM723 2068.28C720.161 2068.28 717.857 2069.17 716.086 2070.94C714.341 2072.68 713.469 2075.07 713.469 2078.09C713.469 2080.98 714.328 2083.32 716.047 2085.12C717.792 2086.89 720.109 2087.77 723 2087.77C725.891 2087.77 728.195 2086.89 729.914 2085.12C731.659 2083.32 732.531 2080.98 732.531 2078.09C732.531 2075.2 731.633 2072.84 729.836 2071.02C728.039 2069.19 725.76 2068.28 723 2068.28Z" fill="black"/>
<path d="M646.21 2069.68H608.944V2064.48L628.632 2042.61C631.548 2039.3 633.553 2036.62 634.647 2034.56C635.767 2032.48 636.327 2030.33 636.327 2028.12C636.327 2025.15 635.428 2022.71 633.632 2020.81C631.835 2018.91 629.439 2017.96 626.444 2017.96C622.85 2017.96 620.051 2018.99 618.046 2021.05C616.066 2023.08 615.077 2025.92 615.077 2029.56H607.85C607.85 2024.33 609.53 2020.1 612.889 2016.87C616.275 2013.64 620.793 2012.02 626.444 2012.02C631.731 2012.02 635.91 2013.42 638.983 2016.2C642.056 2018.96 643.593 2022.65 643.593 2027.26C643.593 2032.86 640.025 2039.52 632.889 2047.26L617.655 2063.78H646.21V2069.68Z" fill="black"/>
<path d="M936.531 2120H899.266V2114.8L918.953 2092.93C921.87 2089.62 923.875 2086.94 924.969 2084.88C926.089 2082.8 926.648 2080.65 926.648 2078.44C926.648 2075.47 925.75 2073.03 923.953 2071.13C922.156 2069.23 919.76 2068.28 916.766 2068.28C913.172 2068.28 910.372 2069.31 908.367 2071.37C906.388 2073.4 905.398 2076.24 905.398 2079.88H898.172C898.172 2074.65 899.852 2070.42 903.211 2067.19C906.596 2063.96 911.115 2062.34 916.766 2062.34C922.052 2062.34 926.232 2063.74 929.305 2066.52C932.378 2069.28 933.914 2072.97 933.914 2077.58C933.914 2083.18 930.346 2089.84 923.211 2097.58L907.977 2114.1H936.531V2120Z" fill="black"/>
<path d="M835.452 2151.58H843.343V2157.48H835.452V2170.68H828.186V2157.48H802.288V2153.22L827.757 2113.8H835.452V2151.58ZM810.491 2151.58H828.186V2123.69L827.327 2125.25L810.491 2151.58Z" fill="black"/>
<path d="M834.452 2050.58H842.343V2056.48H834.452V2069.68H827.186V2056.48H801.288V2052.22L826.757 2012.8H834.452V2050.58ZM809.491 2050.58H827.186V2022.69L826.327 2024.25L809.491 2050.58Z" fill="black"/>
<path fill-rule="evenodd" clip-rule="evenodd" d="M259.445 1485.54C260.332 1483.97 261.994 1483 263.795 1483H327.856C329.648 1483 331.302 1483.96 332.194 1485.51L361.99 1537.47H422.19C423.982 1537.47 425.636 1538.43 426.528 1539.99L455.943 1591.28H517.853C519.644 1591.28 521.299 1592.24 522.19 1593.8L553.545 1648.48C554.427 1650.02 554.429 1651.91 553.548 1653.45L523.97 1705.19L553.545 1756.76C554.427 1758.3 554.429 1760.19 553.548 1761.73L523.97 1813.47L553.545 1865.05C554.427 1866.59 554.429 1868.48 553.548 1870.02L522.828 1923.75C521.938 1925.31 520.281 1926.27 518.487 1926.27H456.867L427.165 1978.23C426.275 1979.79 424.618 1980.75 422.824 1980.75H362.154L332.831 2032.04C331.941 2033.6 330.284 2034.56 328.49 2034.56H264.429C262.648 2034.56 261.002 2033.61 260.107 2032.07L230.254 1980.75H167.438C165.657 1980.75 164.011 1979.8 163.116 1978.26L133.263 1926.94H72.4394C70.6589 1926.94 69.0126 1925.99 68.1174 1924.45L36.6779 1870.4C35.7842 1868.86 35.7735 1866.97 36.6498 1865.42L66.3147 1813.07L36.6779 1762.11C35.7842 1760.58 35.7735 1758.68 36.6498 1757.13L66.3147 1704.78L36.6779 1653.83C35.7842 1652.29 35.7735 1650.4 36.6498 1648.85L67.455 1594.48C68.3427 1592.92 70.0044 1591.95 71.8052 1591.95H133.023L162.453 1540.01C163.341 1538.44 165.003 1537.47 166.803 1537.47H230.014L259.445 1485.54ZM267.228 1916.14H324.724L352.638 1866.88L324.202 1817.99H266.633L238.755 1867.19L267.228 1916.14ZM333.973 1921.76L362.066 1970.75H419.923L447.784 1922.01L419.37 1872.46H362.154L333.973 1921.76ZM132.948 1916.94L161.008 1867.41L133.046 1818.65H74.6436L46.7653 1867.85L75.3155 1916.94H132.948ZM170.314 1970.75L142.093 1922.23L170.544 1872.46H228.045L256.458 1922.01L228.598 1970.75H170.314ZM161.008 1759.13L133.023 1808.52H75.2382L46.7653 1759.57L74.6436 1710.37H133.046L161.008 1759.13ZM421.275 1860.1L447.666 1813.52L419.37 1764.18H362.154L333.973 1813.47L361.99 1862.33H419.999L421.275 1860.1ZM457.224 1807.85H515.662L543.446 1759.25L515.032 1709.7H456.867L429.963 1756.76L428.752 1758.9L457.224 1807.85ZM170.236 1862.33L142.093 1813.94L170.544 1764.18H228.045L256.458 1813.73L228.674 1862.33H170.236ZM161.008 1650.84L133.023 1700.23H75.2382L46.7653 1651.28L74.7189 1601.95H132.97L161.008 1650.84ZM515.032 1817.99H456.867L429.968 1865.04L428.752 1867.19L457.302 1916.27H515.586L543.446 1867.54L515.032 1817.99ZM421.275 1751.81L447.666 1705.24L419.37 1655.89H362.154L333.973 1705.19L361.99 1754.04H419.999L421.275 1751.81ZM457.224 1699.57H515.662L543.446 1650.97L514.956 1601.28H456.943L429.965 1648.48L428.752 1650.62L457.224 1699.57ZM170.236 1754.04L142.093 1705.66L170.544 1655.89H228.045L256.458 1705.44L228.674 1754.04H170.236ZM421.275 1643.53L447.666 1596.95L419.294 1547.47H362.23L333.973 1596.9L361.99 1645.76H419.999L421.275 1643.53ZM324.202 1926.27L353.238 1976.19L325.59 2024.56H267.305L238.755 1975.47L266.633 1926.27H324.202ZM352.638 1758.59L324.724 1807.85H267.228L238.755 1758.9L266.633 1709.7H324.202L352.638 1758.59ZM352.638 1650.31L324.724 1699.57H267.228L238.755 1650.62L266.633 1601.42H324.202L352.638 1650.31ZM256.458 1597.16L228.674 1645.76H170.236L141.764 1596.81L169.717 1547.47H227.968L256.458 1597.16ZM352.853 1541.64L324.724 1591.28H267.228L238.755 1542.33L266.708 1493H324.96L352.853 1541.64Z" fill="#B5A89B"/>
<path fill-rule="evenodd" clip-rule="evenodd" d="M259.445 1485.54C260.332 1483.97 261.994 1483 263.795 1483H327.856C329.648 1483 331.302 1483.96 332.194 1485.51L361.99 1537.47H422.19C423.982 1537.47 425.636 1538.43 426.528 1539.99L455.943 1591.28H517.853C519.644 1591.28 521.299 1592.24 522.19 1593.8L553.545 1648.48C554.427 1650.02 554.429 1651.91 553.548 1653.45L523.97 1705.19L553.545 1756.76C554.427 1758.3 554.429 1760.19 553.548 1761.73L523.97 1813.47L553.545 1865.05C554.427 1866.59 554.429 1868.48 553.548 1870.02L522.828 1923.75C521.938 1925.31 520.281 1926.27 518.487 1926.27H456.867L427.165 1978.23C426.275 1979.79 424.618 1980.75 422.824 1980.75H362.154L332.831 2032.04C331.941 2033.6 330.284 2034.56 328.49 2034.56H264.429C262.648 2034.56 261.002 2033.61 260.107 2032.07L230.254 1980.75H167.438C165.657 1980.75 164.011 1979.8 163.116 1978.26L133.263 1926.94H72.4394C70.6589 1926.94 69.0126 1925.99 68.1174 1924.45L36.6779 1870.4C35.7842 1868.86 35.7735 1866.97 36.6498 1865.42L66.3147 1813.07L36.6779 1762.11C35.7842 1760.58 35.7735 1758.68 36.6498 1757.13L66.3147 1704.78L36.6779 1653.83C35.7842 1652.29 35.7735 1650.4 36.6498 1648.85L67.455 1594.48C68.3427 1592.92 70.0044 1591.95 71.8052 1591.95H133.023L162.453 1540.01C163.341 1538.44 165.003 1537.47 166.803 1537.47H230.014L259.445 1485.54ZM267.228 1916.14H324.724L352.638 1866.88L324.202 1817.99H266.633L238.755 1867.19L267.228 1916.14ZM333.973 1921.76L362.066 1970.75H419.923L447.784 1922.01L419.37 1872.46H362.154L333.973 1921.76ZM132.948 1916.94L161.008 1867.41L133.046 1818.65H74.6436L46.7653 1867.85L75.3155 1916.94H132.948ZM170.314 1970.75L142.093 1922.23L170.544 1872.46H228.045L256.458 1922.01L228.598 1970.75H170.314ZM161.008 1759.13L133.023 1808.52H75.2382L46.7653 1759.57L74.6436 1710.37H133.046L161.008 1759.13ZM421.275 1860.1L447.666 1813.52L419.37 1764.18H362.154L333.973 1813.47L361.99 1862.33H419.999L421.275 1860.1ZM457.224 1807.85H515.662L543.446 1759.25L515.032 1709.7H456.867L429.963 1756.76L428.752 1758.9L457.224 1807.85ZM170.236 1862.33L142.093 1813.94L170.544 1764.18H228.045L256.458 1813.73L228.674 1862.33H170.236ZM161.008 1650.84L133.023 1700.23H75.2382L46.7653 1651.28L74.7189 1601.95H132.97L161.008 1650.84ZM515.032 1817.99H456.867L429.968 1865.04L428.752 1867.19L457.302 1916.27H515.586L543.446 1867.54L515.032 1817.99ZM421.275 1751.81L447.666 1705.24L419.37 1655.89H362.154L333.973 1705.19L361.99 1754.04H419.999L421.275 1751.81ZM457.224 1699.57H515.662L543.446 1650.97L514.956 1601.28H456.943L429.965 1648.48L428.752 1650.62L457.224 1699.57ZM170.236 1754.04L142.093 1705.66L170.544 1655.89H228.045L256.458 1705.44L228.674 1754.04H170.236ZM421.275 1643.53L447.666 1596.95L419.294 1547.47H362.23L333.973 1596.9L361.99 1645.76H419.999L421.275 1643.53ZM324.202 1926.27L353.238 1976.19L325.59 2024.56H267.305L238.755 1975.47L266.633 1926.27H324.202ZM352.638 1758.59L324.724 1807.85H267.228L238.755 1758.9L266.633 1709.7H324.202L352.638 1758.59ZM352.638 1650.31L324.724 1699.57H267.228L238.755 1650.62L266.633 1601.42H324.202L352.638 1650.31ZM256.458 1597.16L228.674 1645.76H170.236L141.764 1596.81L169.717 1547.47H227.968L256.458 1597.16ZM352.853 1541.64L324.724 1591.28H267.228L238.755 1542.33L266.708 1493H324.96L352.853 1541.64Z" fill="#B5A89B"/>
<path d="M314.21 1785.68H276.944V1780.48L296.632 1758.61C299.548 1755.3 301.553 1752.62 302.647 1750.56C303.767 1748.48 304.327 1746.33 304.327 1744.12C304.327 1741.15 303.428 1738.71 301.632 1736.81C299.835 1734.91 297.439 1733.96 294.444 1733.96C290.85 1733.96 288.051 1734.99 286.046 1737.05C284.066 1739.08 283.077 1741.92 283.077 1745.56H275.85C275.85 1740.33 277.53 1736.1 280.889 1732.87C284.275 1729.64 288.793 1728.02 294.444 1728.02C299.731 1728.02 303.91 1729.42 306.983 1732.2C310.056 1734.96 311.593 1738.65 311.593 1743.26C311.593 1748.86 308.025 1755.52 300.889 1763.26L285.655 1779.78H314.21V1785.68Z" fill="black"/>
<path d="M210.452 1823.58H218.343V1829.48H210.452V1842.68H203.186V1829.48H177.288V1825.22L202.757 1785.8H210.452V1823.58ZM185.491 1823.58H203.186V1795.69L202.327 1797.25L185.491 1823.58Z" fill="black"/>
<path d="M397.452 1715.58H405.343V1721.48H397.452V1734.68H390.186V1721.48H364.288V1717.22L389.757 1677.8H397.452V1715.58ZM372.491 1715.58H390.186V1687.69L389.327 1689.25L372.491 1715.58Z" fill="black"/>
<path d="M112.773 1766.9H120.664V1772.8H112.773V1786H105.508V1772.8H79.6094V1768.54L105.078 1729.12H112.773V1766.9ZM87.8125 1766.9H105.508V1739.01L104.648 1740.57L87.8125 1766.9Z" fill="black"/>
<path d="M119.21 1897.68H81.9441V1892.48L101.632 1870.61C104.548 1867.3 106.553 1864.62 107.647 1862.56C108.767 1860.48 109.327 1858.33 109.327 1856.12C109.327 1853.15 108.428 1850.71 106.632 1848.81C104.835 1846.91 102.439 1845.96 99.4441 1845.96C95.8503 1845.96 93.0509 1846.99 91.0457 1849.05C89.0665 1851.08 88.0769 1853.92 88.0769 1857.56H80.8503C80.8503 1852.33 82.53 1848.1 85.8894 1844.87C89.2748 1841.64 93.7931 1840.02 99.4441 1840.02C104.731 1840.02 108.91 1841.42 111.983 1844.2C115.056 1846.96 116.593 1850.65 116.593 1855.26C116.593 1860.86 113.025 1867.52 105.889 1875.26L90.655 1891.78H119.21V1897.68Z" fill="black"/>
<path d="M207.773 1930.9H215.664V1936.8H207.773V1950H200.508V1936.8H174.609V1932.54L200.078 1893.12H207.773V1930.9ZM182.812 1930.9H200.508V1903.01L199.648 1904.57L182.812 1930.9Z" fill="black"/>
<path d="M217.531 1735H180.266V1729.8L199.953 1707.93C202.87 1704.62 204.875 1701.94 205.969 1699.88C207.089 1697.8 207.648 1695.65 207.648 1693.44C207.648 1690.47 206.75 1688.03 204.953 1686.13C203.156 1684.23 200.76 1683.28 197.766 1683.28C194.172 1683.28 191.372 1684.31 189.367 1686.37C187.388 1688.4 186.398 1691.24 186.398 1694.88H179.172C179.172 1689.65 180.852 1685.42 184.211 1682.19C187.596 1678.96 192.115 1677.34 197.766 1677.34C203.052 1677.34 207.232 1678.74 210.305 1681.52C213.378 1684.28 214.914 1687.97 214.914 1692.58C214.914 1698.18 211.346 1704.84 204.211 1712.58L188.977 1729.1H217.531V1735Z" fill="black"/>
<path d="M315.21 1998.68H277.944V1993.48L297.632 1971.61C300.548 1968.3 302.553 1965.62 303.647 1963.56C304.767 1961.48 305.327 1959.33 305.327 1957.12C305.327 1954.15 304.428 1951.71 302.632 1949.81C300.835 1947.91 298.439 1946.96 295.444 1946.96C291.85 1946.96 289.051 1947.99 287.046 1950.05C285.066 1952.08 284.077 1954.92 284.077 1958.56H276.85C276.85 1953.33 278.53 1949.1 281.889 1945.87C285.275 1942.64 289.793 1941.02 295.444 1941.02C300.731 1941.02 304.91 1942.42 307.983 1945.2C311.056 1947.96 312.593 1951.65 312.593 1956.26C312.593 1961.86 309.025 1968.52 301.889 1976.26L286.655 1992.78H315.21V1998.68Z" fill="black"/>
<path d="M541.822 662.068C539.098 661.614 536.522 663.454 536.068 666.178L528.67 710.566C528.216 713.29 530.056 715.866 532.78 716.32C535.504 716.774 538.08 714.934 538.534 712.21L545.11 672.754L584.566 679.33C587.29 679.784 589.866 677.944 590.32 675.22C590.774 672.496 588.934 669.92 586.21 669.466L541.822 662.068ZM615.069 762.094L545.069 664.094L536.931 669.906L606.931 767.906L615.069 762.094Z" fill="black"/>
<path d="M826.536 605.464C824.583 603.512 821.417 603.512 819.464 605.464L787.645 637.284C785.692 639.237 785.692 642.403 787.645 644.355C789.597 646.308 792.763 646.308 794.716 644.355L823 616.071L851.284 644.355C853.237 646.308 856.403 646.308 858.355 644.355C860.308 642.403 860.308 639.237 858.355 637.284L826.536 605.464ZM828 679V609H818V679H828Z" fill="black"/>
<path d="M536.093 1545.96C536.622 1548.67 539.249 1550.44 541.959 1549.91L586.124 1541.28C588.834 1540.75 590.602 1538.12 590.072 1535.41C589.542 1532.7 586.916 1530.93 584.206 1531.46L544.948 1539.13L537.277 1499.88C536.748 1497.17 534.121 1495.4 531.411 1495.93C528.701 1496.46 526.933 1499.08 527.463 1501.79L536.093 1545.96ZM606.852 1438.21L536.852 1542.21L545.148 1547.79L615.148 1443.79L606.852 1438.21Z" fill="black"/>
<path d="M1102.92 669.106C1102.43 666.389 1099.82 664.587 1097.11 665.081L1052.83 673.13C1050.11 673.624 1048.31 676.227 1048.81 678.944C1049.3 681.661 1051.9 683.463 1054.62 682.969L1093.98 675.814L1101.13 715.169C1101.62 717.885 1104.23 719.687 1106.94 719.193C1109.66 718.7 1111.46 716.097 1110.97 713.38L1102.92 669.106ZM1039.11 763.846L1102.11 672.846L1093.89 667.154L1030.89 758.154L1039.11 763.846Z" fill="black"/>
<path d="M819.464 1649.54C821.417 1651.49 824.583 1651.49 826.536 1649.54L858.355 1617.72C860.308 1615.76 860.308 1612.6 858.355 1610.64C856.403 1608.69 853.237 1608.69 851.284 1610.64L823 1638.93L794.716 1610.64C792.763 1608.69 789.597 1608.69 787.645 1610.64C785.692 1612.6 785.692 1615.76 787.645 1617.72L819.464 1649.54ZM818 1529V1646H828V1529H818Z" fill="black"/>
<path d="M1113.35 1549.96C1116.09 1550.32 1118.6 1548.38 1118.96 1545.65L1124.78 1501.02C1125.14 1498.29 1123.21 1495.78 1120.47 1495.42C1117.73 1495.06 1115.22 1496.99 1114.86 1499.73L1109.69 1539.4L1070.02 1534.22C1067.29 1533.86 1064.78 1535.79 1064.42 1538.53C1064.06 1541.27 1065.99 1543.78 1068.73 1544.14L1113.35 1549.96ZM1030.04 1444.05L1110.04 1548.05L1117.96 1541.95L1037.96 1437.95L1030.04 1444.05Z" fill="black"/>
</svg>
