<svg width="1954" height="2248" viewBox="0 0 1954 2248" fill="none" xmlns="http://www.w3.org/2000/svg">
<rect width="1954" height="2248" fill="white"/>
<path fill-rule="evenodd" clip-rule="evenodd" d="M927.021 693.535C927.908 691.968 929.57 691 931.371 691H1027.8C1029.59 691 1031.25 691.959 1032.14 693.513L1077.72 773H1169.8C1171.59 773 1173.25 773.959 1174.14 775.513L1219.15 854H1313.8C1315.59 854 1317.25 854.959 1318.14 856.513L1365.34 938.822C1366.22 940.361 1366.22 942.251 1365.34 943.791L1320.1 1022.93L1365.34 1101.82C1366.22 1103.36 1366.22 1105.25 1365.34 1106.79L1320.1 1185.93L1365.34 1264.82C1366.22 1266.36 1366.22 1268.25 1365.34 1269.79L1319.1 1350.68C1318.21 1352.24 1316.55 1353.2 1314.76 1353.2H1220.54L1175.1 1432.68C1174.21 1434.24 1172.55 1435.2 1170.76 1435.2H1077.96L1033.1 1513.68C1032.21 1515.24 1030.55 1516.2 1028.76 1516.2H932.325C930.545 1516.2 928.899 1515.25 928.003 1513.71L882.336 1435.2H786.325C784.545 1435.2 782.899 1434.25 782.003 1432.71L736.336 1354.2H643.325C641.545 1354.2 639.899 1353.25 639.003 1351.71L591.678 1270.35C590.784 1268.81 590.773 1266.92 591.65 1265.37L637.019 1185.3L591.678 1107.35C590.784 1105.81 590.773 1103.92 591.65 1102.37L637.019 1022.3L591.678 944.35C590.784 942.813 590.773 940.918 591.65 939.371L638.021 857.535C638.908 855.968 640.57 855 642.371 855H735.993L781.021 775.535C781.908 773.968 783.57 773 785.371 773H881.802L881.826 773C881.881 773 881.936 773.001 881.991 773.004L927.021 693.535ZM935.085 1343H1024.56L1068.02 1266.3L1023.75 1190.2H934.171L890.765 1266.8L935.085 1343ZM1034.1 1348.93L1077.83 1425.2H1167.86L1211.24 1349.31L1167.02 1272.2H1077.96L1034.1 1348.93ZM735.88 1344.2L779.555 1267.12L736.02 1191.2H645.171L601.765 1267.8L646.201 1344.2H735.88ZM789.201 1425.2L745.258 1349.65L789.535 1272.2H879.02L923.238 1349.31L879.856 1425.2H789.201ZM779.555 1104.12L735.993 1181H646.085L601.765 1104.8L645.171 1028.2H736.02L779.555 1104.12ZM1170.62 1257.36L1170.62 1257.36L1211.06 1186L1167.02 1109.2H1077.96L1034.1 1185.93L1077.72 1262H1167.97L1170.62 1257.36ZM1221.09 1180H1311.97L1355.24 1104.31L1311.02 1027.2H1220.54L1179.31 1099.31L1179.31 1099.31L1176.77 1103.8L1221.09 1180ZM789.085 1262L745.258 1186.65L789.535 1109.2H879.02L923.238 1186.31L879.97 1262H789.085ZM779.555 941.121L735.993 1018H646.085L601.765 941.803L645.284 865H735.905L779.555 941.121ZM1311.02 1190.2H1220.54L1179.32 1262.3L1179.31 1262.31L1176.77 1266.8L1221.2 1343.2H1311.86L1355.24 1267.31L1311.02 1190.2ZM1170.62 1094.36L1170.62 1094.36L1211.06 1023L1167.02 946.2H1077.96L1034.1 1022.93L1077.72 1099H1167.97L1170.62 1094.36ZM1221.09 1017H1311.97L1355.24 941.313L1310.91 864H1220.65L1179.31 936.312L1176.77 940.803L1221.09 1017ZM789.085 1099L745.258 1023.65L789.535 946.2H879.02L923.238 1023.31L879.97 1099H789.085ZM1170.62 931.362L1170.62 931.359L1211.06 859.998L1166.91 783H1078.08L1034.1 859.93L1077.72 936H1167.97L1170.62 931.362ZM1023.75 1353.2L1068.93 1430.86L1025.86 1506.2H935.201L890.765 1429.8L934.171 1353.2H1023.75ZM1068.02 1103.3L1024.56 1180H935.085L890.765 1103.8L934.171 1027.2H1023.75L1068.02 1103.3ZM1068.02 940.302L1024.56 1017H935.085L890.765 940.803L934.171 864.2H1023.75L1068.02 940.302ZM923.238 860.313L879.97 936H789.085L744.765 859.803L788.284 783H878.905L923.238 860.313ZM1068.34 776.741L1024.56 854H935.085L890.765 777.803L934.284 701H1024.91L1068.34 776.741Z" fill="#B5A89B"/>
<path fill-rule="evenodd" clip-rule="evenodd" d="M927.021 693.535C927.908 691.968 929.57 691 931.371 691H1027.8C1029.59 691 1031.25 691.959 1032.14 693.513L1077.72 773H1169.8C1171.59 773 1173.25 773.959 1174.14 775.513L1219.15 854H1313.8C1315.59 854 1317.25 854.959 1318.14 856.513L1365.34 938.822C1366.22 940.361 1366.22 942.251 1365.34 943.791L1320.1 1022.93L1365.34 1101.82C1366.22 1103.36 1366.22 1105.25 1365.34 1106.79L1320.1 1185.93L1365.34 1264.82C1366.22 1266.36 1366.22 1268.25 1365.34 1269.79L1319.1 1350.68C1318.21 1352.24 1316.55 1353.2 1314.76 1353.2H1220.54L1175.1 1432.68C1174.21 1434.24 1172.55 1435.2 1170.76 1435.2H1077.96L1033.1 1513.68C1032.21 1515.24 1030.55 1516.2 1028.76 1516.2H932.325C930.545 1516.2 928.899 1515.25 928.003 1513.71L882.336 1435.2H786.325C784.545 1435.2 782.899 1434.25 782.003 1432.71L736.336 1354.2H643.325C641.545 1354.2 639.899 1353.25 639.003 1351.71L591.678 1270.35C590.784 1268.81 590.773 1266.92 591.65 1265.37L637.019 1185.3L591.678 1107.35C590.784 1105.81 590.773 1103.92 591.65 1102.37L637.019 1022.3L591.678 944.35C590.784 942.813 590.773 940.918 591.65 939.371L638.021 857.535C638.908 855.968 640.57 855 642.371 855H735.993L781.021 775.535C781.908 773.968 783.57 773 785.371 773H881.802L881.826 773C881.881 773 881.936 773.001 881.991 773.004L927.021 693.535ZM935.085 1343H1024.56L1068.02 1266.3L1023.75 1190.2H934.171L890.765 1266.8L935.085 1343ZM1034.1 1348.93L1077.83 1425.2H1167.86L1211.24 1349.31L1167.02 1272.2H1077.96L1034.1 1348.93ZM735.88 1344.2L779.555 1267.12L736.02 1191.2H645.171L601.765 1267.8L646.201 1344.2H735.88ZM789.201 1425.2L745.258 1349.65L789.535 1272.2H879.02L923.238 1349.31L879.856 1425.2H789.201ZM779.555 1104.12L735.993 1181H646.085L601.765 1104.8L645.171 1028.2H736.02L779.555 1104.12ZM1170.62 1257.36L1170.62 1257.36L1211.06 1186L1167.02 1109.2H1077.96L1034.1 1185.93L1077.72 1262H1167.97L1170.62 1257.36ZM1221.09 1180H1311.97L1355.24 1104.31L1311.02 1027.2H1220.54L1179.31 1099.31L1179.31 1099.31L1176.77 1103.8L1221.09 1180ZM789.085 1262L745.258 1186.65L789.535 1109.2H879.02L923.238 1186.31L879.97 1262H789.085ZM779.555 941.121L735.993 1018H646.085L601.765 941.803L645.284 865H735.905L779.555 941.121ZM1311.02 1190.2H1220.54L1179.32 1262.3L1179.31 1262.31L1176.77 1266.8L1221.2 1343.2H1311.86L1355.24 1267.31L1311.02 1190.2ZM1170.62 1094.36L1170.62 1094.36L1211.06 1023L1167.02 946.2H1077.96L1034.1 1022.93L1077.72 1099H1167.97L1170.62 1094.36ZM1221.09 1017H1311.97L1355.24 941.313L1310.91 864H1220.65L1179.31 936.312L1176.77 940.803L1221.09 1017ZM789.085 1099L745.258 1023.65L789.535 946.2H879.02L923.238 1023.31L879.97 1099H789.085ZM1170.62 931.362L1170.62 931.359L1211.06 859.998L1166.91 783H1078.08L1034.1 859.93L1077.72 936H1167.97L1170.62 931.362ZM1023.75 1353.2L1068.93 1430.86L1025.86 1506.2H935.201L890.765 1429.8L934.171 1353.2H1023.75ZM1068.02 1103.3L1024.56 1180H935.085L890.765 1103.8L934.171 1027.2H1023.75L1068.02 1103.3ZM1068.02 940.302L1024.56 1017H935.085L890.765 940.803L934.171 864.2H1023.75L1068.02 940.302ZM923.238 860.313L879.97 936H789.085L744.765 859.803L788.284 783H878.905L923.238 860.313ZM1068.34 776.741L1024.56 854H935.085L890.765 777.803L934.284 701H1024.91L1068.34 776.741Z" fill="#B5A89B"/>
<path d="M1002.91 1138H956.332V1131.51L980.941 1104.16C984.587 1100.03 987.094 1096.68 988.461 1094.1C989.861 1091.5 990.561 1088.81 990.561 1086.05C990.561 1082.34 989.438 1079.29 987.191 1076.92C984.945 1074.54 981.951 1073.35 978.207 1073.35C973.715 1073.35 970.215 1074.64 967.709 1077.21C965.235 1079.75 963.998 1083.3 963.998 1087.85H954.965C954.965 1081.31 957.064 1076.02 961.264 1071.98C965.495 1067.95 971.143 1065.93 978.207 1065.93C984.815 1065.93 990.04 1067.67 993.881 1071.15C997.722 1074.6 999.643 1079.21 999.643 1084.97C999.643 1091.97 995.183 1100.3 986.264 1109.97L967.221 1130.63H1002.91V1138Z" fill="black"/>
<path d="M847.467 1199.12H857.33V1206.5H847.467V1223H838.385V1206.5H806.012V1201.17L837.848 1151.91H847.467V1199.12ZM816.266 1199.12H838.385V1164.26L837.311 1166.21L816.266 1199.12Z" fill="black"/>
<path d="M1129.47 1037.12H1139.33V1044.5H1129.47V1061H1120.38V1044.5H1088.01V1039.17L1119.85 989.906H1129.47V1037.12ZM1098.27 1037.12H1120.38V1002.26L1119.31 1004.21L1098.27 1037.12Z" fill="black"/>
<path d="M847.467 1037.12H857.33V1044.5H847.467V1061H838.385V1044.5H806.012V1039.17L837.848 989.906H847.467V1037.12ZM816.266 1037.12H838.385V1002.26L837.311 1004.21L816.266 1037.12Z" fill="black"/>
<path d="M708.914 1306H662.332V1299.51L686.941 1272.16C690.587 1268.03 693.094 1264.68 694.461 1262.1C695.861 1259.5 696.561 1256.81 696.561 1254.05C696.561 1250.34 695.438 1247.29 693.191 1244.92C690.945 1242.54 687.951 1241.35 684.207 1241.35C679.715 1241.35 676.215 1242.64 673.709 1245.21C671.235 1247.75 669.998 1251.3 669.998 1255.85H660.965C660.965 1249.31 663.064 1244.02 667.264 1239.98C671.495 1235.95 677.143 1233.93 684.207 1233.93C690.815 1233.93 696.04 1235.67 699.881 1239.15C703.722 1242.6 705.643 1247.21 705.643 1252.97C705.643 1259.97 701.183 1268.3 692.264 1277.97L673.221 1298.63H708.914V1306Z" fill="black"/>
<path d="M1145.91 1213H1099.33V1206.51L1123.94 1179.16C1127.59 1175.03 1130.09 1171.68 1131.46 1169.1C1132.86 1166.5 1133.56 1163.81 1133.56 1161.05C1133.56 1157.34 1132.44 1154.29 1130.19 1151.92C1127.95 1149.54 1124.95 1148.35 1121.21 1148.35C1116.71 1148.35 1113.22 1149.64 1110.71 1152.21C1108.24 1154.75 1107 1158.3 1107 1162.85H1097.96C1097.96 1156.31 1100.06 1151.02 1104.26 1146.98C1108.5 1142.95 1114.14 1140.93 1121.21 1140.93C1127.82 1140.93 1133.04 1142.67 1136.88 1146.15C1140.72 1149.6 1142.64 1154.21 1142.64 1159.97C1142.64 1166.97 1138.18 1175.3 1129.26 1184.97L1110.22 1205.63H1145.91V1213Z" fill="black"/>
<path d="M1002.91 985H956.332V978.506L980.941 951.162C984.587 947.028 987.094 943.675 988.461 941.104C989.861 938.499 990.561 935.814 990.561 933.047C990.561 929.336 989.438 926.292 987.191 923.916C984.945 921.54 981.951 920.352 978.207 920.352C973.715 920.352 970.215 921.637 967.709 924.209C965.235 926.748 963.998 930.296 963.998 934.854H954.965C954.965 928.311 957.064 923.021 961.264 918.984C965.495 914.948 971.143 912.93 978.207 912.93C984.815 912.93 990.04 914.671 993.881 918.154C997.722 921.605 999.643 926.211 999.643 931.973C999.643 938.971 995.183 947.305 986.264 956.973L967.221 977.627H1002.91V985Z" fill="black"/>
<path d="M1003.91 1459H957.332V1452.51L981.941 1425.16C985.587 1421.03 988.094 1417.68 989.461 1415.1C990.861 1412.5 991.561 1409.81 991.561 1407.05C991.561 1403.34 990.438 1400.29 988.191 1397.92C985.945 1395.54 982.951 1394.35 979.207 1394.35C974.715 1394.35 971.215 1395.64 968.709 1398.21C966.235 1400.75 964.998 1404.3 964.998 1408.85H955.965C955.965 1402.31 958.064 1397.02 962.264 1392.98C966.495 1388.95 972.143 1386.93 979.207 1386.93C985.815 1386.93 991.04 1388.67 994.881 1392.15C998.722 1395.6 1000.64 1400.21 1000.64 1405.97C1000.64 1412.97 996.183 1421.3 987.264 1430.97L968.221 1451.63H1003.91V1459Z" fill="black"/>
<path d="M1002.91 1306H956.332V1299.51L980.941 1272.16C984.587 1268.03 987.094 1264.68 988.461 1262.1C989.861 1259.5 990.561 1256.81 990.561 1254.05C990.561 1250.34 989.438 1247.29 987.191 1244.92C984.945 1242.54 981.951 1241.35 978.207 1241.35C973.715 1241.35 970.215 1242.64 967.709 1245.21C965.235 1247.75 963.998 1251.3 963.998 1255.85H954.965C954.965 1249.31 957.064 1244.02 961.264 1239.98C965.495 1235.95 971.143 1233.93 978.207 1233.93C984.815 1233.93 990.04 1235.67 993.881 1239.15C997.722 1242.6 999.643 1247.21 999.643 1252.97C999.643 1259.97 995.183 1268.3 986.264 1277.97L967.221 1298.63H1002.91V1306Z" fill="black"/>
<path fill-rule="evenodd" clip-rule="evenodd" d="M1620.44 247.535C1621.33 245.968 1622.99 245 1624.79 245H1688.86C1690.65 245 1692.3 245.959 1693.19 247.513L1722.99 299.475H1783.19C1784.98 299.475 1786.64 300.433 1787.53 301.987L1816.94 353.285H1878.85C1880.64 353.285 1882.3 354.243 1883.19 355.798L1914.55 410.478C1915.43 412.016 1915.43 413.907 1914.55 415.446L1884.97 467.186L1914.55 518.762C1915.43 520.301 1915.43 522.191 1914.55 523.731L1884.97 575.471L1914.55 627.047C1915.43 628.586 1915.43 630.476 1914.55 632.016L1883.83 685.753C1882.94 687.311 1881.28 688.272 1879.49 688.272H1817.87L1788.17 740.228C1787.27 741.785 1785.62 742.747 1783.82 742.747H1723.15L1693.83 794.038C1692.94 795.596 1691.28 796.557 1689.49 796.557H1625.43C1623.65 796.557 1622 795.61 1621.11 794.071L1591.25 742.747H1528.44C1526.66 742.747 1525.01 741.8 1524.12 740.26L1494.26 688.936H1433.44C1431.66 688.936 1430.01 687.989 1429.12 686.45L1397.68 632.398C1396.78 630.862 1396.77 628.966 1397.65 627.419L1427.31 575.066L1397.68 524.113C1396.78 522.577 1396.77 520.681 1397.65 519.134L1427.31 466.781L1397.68 415.829C1396.78 414.292 1396.77 412.396 1397.65 410.85L1428.45 356.484C1429.34 354.917 1431 353.949 1432.81 353.949H1494.02L1523.45 302.01C1524.34 300.443 1526 299.475 1527.8 299.475H1591.01L1620.44 247.535ZM1628.23 678.139H1685.72L1713.64 628.876L1685.2 579.987H1627.63L1599.75 629.187L1628.23 678.139ZM1694.97 683.756L1723.07 732.747H1780.92L1808.78 684.013L1780.37 634.462H1723.15L1694.97 683.756ZM1493.95 678.936L1522.01 629.414L1494.05 580.651H1435.64L1407.77 629.852L1436.32 678.936H1493.95ZM1531.31 732.747L1503.09 684.229L1531.54 634.462H1589.04L1617.46 684.013L1589.6 732.747H1531.31ZM1522.01 521.13L1494.02 570.519H1436.24L1407.77 521.567L1435.64 472.367H1494.05L1522.01 521.13ZM1782.27 622.098L1808.67 575.523L1780.37 526.177H1723.15L1694.97 575.471L1722.99 624.329H1781L1782.27 622.098ZM1818.22 569.854H1876.66L1904.45 521.253L1876.03 471.702H1817.87L1790.96 518.764L1789.75 520.903L1818.22 569.854ZM1531.24 624.329L1503.09 575.944L1531.54 526.177H1589.04L1617.46 575.728L1589.67 624.329H1531.24ZM1522.01 412.845L1494.02 462.234H1436.24L1407.77 413.282L1435.72 363.949H1493.97L1522.01 412.845ZM1876.03 579.987H1817.87L1790.97 627.04L1789.75 629.187L1818.3 678.272H1876.59L1904.45 629.538L1876.03 579.987ZM1782.27 513.813L1808.67 467.238L1780.37 417.892H1723.15L1694.97 467.186L1722.99 516.044H1781L1782.27 513.813ZM1818.22 461.57H1876.66L1904.45 412.969L1875.96 363.285H1817.94L1790.97 410.476L1789.75 412.618L1818.22 461.57ZM1531.24 516.044L1503.09 467.659L1531.54 417.892H1589.04L1617.46 467.443L1589.67 516.044H1531.24ZM1782.27 405.528L1808.67 358.953L1780.29 309.475H1723.23L1694.97 358.901L1722.99 407.759H1781L1782.27 405.528ZM1685.2 688.272L1714.24 738.193L1686.59 786.557H1628.31L1599.75 737.472L1627.63 688.272H1685.2ZM1713.64 520.592L1685.72 569.854H1628.23L1599.75 520.903L1627.63 471.702H1685.2L1713.64 520.592ZM1713.64 412.307L1685.72 461.57H1628.23L1599.75 412.618L1627.63 363.418H1685.2L1713.64 412.307ZM1617.46 359.158L1589.67 407.759H1531.24L1502.76 358.808L1530.72 309.475H1588.97L1617.46 359.158ZM1713.85 303.643L1685.72 353.285H1628.23L1599.75 304.333L1627.71 255H1685.96L1713.85 303.643Z" fill="#B5A89B"/>
<path fill-rule="evenodd" clip-rule="evenodd" d="M1620.44 247.535C1621.33 245.968 1622.99 245 1624.79 245H1688.86C1690.65 245 1692.3 245.959 1693.19 247.513L1722.99 299.475H1783.19C1784.98 299.475 1786.64 300.433 1787.53 301.987L1816.94 353.285H1878.85C1880.64 353.285 1882.3 354.243 1883.19 355.798L1914.55 410.478C1915.43 412.016 1915.43 413.907 1914.55 415.446L1884.97 467.186L1914.55 518.762C1915.43 520.301 1915.43 522.191 1914.55 523.731L1884.97 575.471L1914.55 627.047C1915.43 628.586 1915.43 630.476 1914.55 632.016L1883.83 685.753C1882.94 687.311 1881.28 688.272 1879.49 688.272H1817.87L1788.17 740.228C1787.27 741.785 1785.62 742.747 1783.82 742.747H1723.15L1693.83 794.038C1692.94 795.596 1691.28 796.557 1689.49 796.557H1625.43C1623.65 796.557 1622 795.61 1621.11 794.071L1591.25 742.747H1528.44C1526.66 742.747 1525.01 741.8 1524.12 740.26L1494.26 688.936H1433.44C1431.66 688.936 1430.01 687.989 1429.12 686.45L1397.68 632.398C1396.78 630.862 1396.77 628.966 1397.65 627.419L1427.31 575.066L1397.68 524.113C1396.78 522.577 1396.77 520.681 1397.65 519.134L1427.31 466.781L1397.68 415.829C1396.78 414.292 1396.77 412.396 1397.65 410.85L1428.45 356.484C1429.34 354.917 1431 353.949 1432.81 353.949H1494.02L1523.45 302.01C1524.34 300.443 1526 299.475 1527.8 299.475H1591.01L1620.44 247.535ZM1628.23 678.139H1685.72L1713.64 628.876L1685.2 579.987H1627.63L1599.75 629.187L1628.23 678.139ZM1694.97 683.756L1723.07 732.747H1780.92L1808.78 684.013L1780.37 634.462H1723.15L1694.97 683.756ZM1493.95 678.936L1522.01 629.414L1494.05 580.651H1435.64L1407.77 629.852L1436.32 678.936H1493.95ZM1531.31 732.747L1503.09 684.229L1531.54 634.462H1589.04L1617.46 684.013L1589.6 732.747H1531.31ZM1522.01 521.13L1494.02 570.519H1436.24L1407.77 521.567L1435.64 472.367H1494.05L1522.01 521.13ZM1782.27 622.098L1808.67 575.523L1780.37 526.177H1723.15L1694.97 575.471L1722.99 624.329H1781L1782.27 622.098ZM1818.22 569.854H1876.66L1904.45 521.253L1876.03 471.702H1817.87L1790.96 518.764L1789.75 520.903L1818.22 569.854ZM1531.24 624.329L1503.09 575.944L1531.54 526.177H1589.04L1617.46 575.728L1589.67 624.329H1531.24ZM1522.01 412.845L1494.02 462.234H1436.24L1407.77 413.282L1435.72 363.949H1493.97L1522.01 412.845ZM1876.03 579.987H1817.87L1790.97 627.04L1789.75 629.187L1818.3 678.272H1876.59L1904.45 629.538L1876.03 579.987ZM1782.27 513.813L1808.67 467.238L1780.37 417.892H1723.15L1694.97 467.186L1722.99 516.044H1781L1782.27 513.813ZM1818.22 461.57H1876.66L1904.45 412.969L1875.96 363.285H1817.94L1790.97 410.476L1789.75 412.618L1818.22 461.57ZM1531.24 516.044L1503.09 467.659L1531.54 417.892H1589.04L1617.46 467.443L1589.67 516.044H1531.24ZM1782.27 405.528L1808.67 358.953L1780.29 309.475H1723.23L1694.97 358.901L1722.99 407.759H1781L1782.27 405.528ZM1685.2 688.272L1714.24 738.193L1686.59 786.557H1628.31L1599.75 737.472L1627.63 688.272H1685.2ZM1713.64 520.592L1685.72 569.854H1628.23L1599.75 520.903L1627.63 471.702H1685.2L1713.64 520.592ZM1713.64 412.307L1685.72 461.57H1628.23L1599.75 412.618L1627.63 363.418H1685.2L1713.64 412.307ZM1617.46 359.158L1589.67 407.759H1531.24L1502.76 358.808L1530.72 309.475H1588.97L1617.46 359.158ZM1713.85 303.643L1685.72 353.285H1628.23L1599.75 304.333L1627.71 255H1685.96L1713.85 303.643Z" fill="#B5A89B"/>
<path d="M1772.53 494H1735.27V488.805L1754.95 466.93C1757.87 463.622 1759.88 460.94 1760.97 458.883C1762.09 456.799 1762.65 454.651 1762.65 452.438C1762.65 449.469 1761.75 447.034 1759.95 445.133C1758.16 443.232 1755.76 442.281 1752.77 442.281C1749.17 442.281 1746.37 443.31 1744.37 445.367C1742.39 447.398 1741.4 450.237 1741.4 453.883H1734.17C1734.17 448.648 1735.85 444.417 1739.21 441.188C1742.6 437.958 1747.11 436.344 1752.77 436.344C1758.05 436.344 1762.23 437.737 1765.3 440.523C1768.38 443.284 1769.91 446.969 1769.91 451.578C1769.91 457.177 1766.35 463.844 1759.21 471.578L1743.98 488.102H1772.53V494Z" fill="black"/>
<path d="M1668.77 531.898H1676.66V537.797H1668.77V551H1661.51V537.797H1635.61V533.539L1661.08 494.125H1668.77V531.898ZM1643.81 531.898H1661.51V504.008L1660.65 505.57L1643.81 531.898Z" fill="black"/>
<path d="M1855.77 423.898H1863.66V429.797H1855.77V443H1848.51V429.797H1822.61V425.539L1848.08 386.125H1855.77V423.898ZM1830.81 423.898H1848.51V396.008L1847.65 397.57L1830.81 423.898Z" fill="black"/>
<path d="M1855.77 530.898H1863.66V536.797H1855.77V550H1848.51V536.797H1822.61V532.539L1848.08 493.125H1855.77V530.898ZM1830.81 530.898H1848.51V503.008L1847.65 504.57L1830.81 530.898Z" fill="black"/>
<path d="M1668.77 420.898H1676.66V426.797H1668.77V440H1661.51V426.797H1635.61V422.539L1661.08 383.125H1668.77V420.898ZM1643.81 420.898H1661.51V393.008L1660.65 394.57L1643.81 420.898Z" fill="black"/>
<path d="M1577.53 606H1540.27V600.805L1559.95 578.93C1562.87 575.622 1564.88 572.94 1565.97 570.883C1567.09 568.799 1567.65 566.651 1567.65 564.438C1567.65 561.469 1566.75 559.034 1564.95 557.133C1563.16 555.232 1560.76 554.281 1557.77 554.281C1554.17 554.281 1551.37 555.31 1549.37 557.367C1547.39 559.398 1546.4 562.237 1546.4 565.883H1539.17C1539.17 560.648 1540.85 556.417 1544.21 553.188C1547.6 549.958 1552.11 548.344 1557.77 548.344C1563.05 548.344 1567.23 549.737 1570.3 552.523C1573.38 555.284 1574.91 558.969 1574.91 563.578C1574.91 569.177 1571.35 575.844 1564.21 583.578L1548.98 600.102H1577.53V606Z" fill="black"/>
<path d="M1772.53 390H1735.27V384.805L1754.95 362.93C1757.87 359.622 1759.88 356.94 1760.97 354.883C1762.09 352.799 1762.65 350.651 1762.65 348.438C1762.65 345.469 1761.75 343.034 1759.95 341.133C1758.16 339.232 1755.76 338.281 1752.77 338.281C1749.17 338.281 1746.37 339.31 1744.37 341.367C1742.39 343.398 1741.4 346.237 1741.4 349.883H1734.17C1734.17 344.648 1735.85 340.417 1739.21 337.188C1742.6 333.958 1747.11 332.344 1752.77 332.344C1758.05 332.344 1762.23 333.737 1765.3 336.523C1768.38 339.284 1769.91 342.969 1769.91 347.578C1769.91 353.177 1766.35 359.844 1759.21 367.578L1743.98 384.102H1772.53V390Z" fill="black"/>
<path d="M1865.53 658H1828.27V652.805L1847.95 630.93C1850.87 627.622 1852.88 624.94 1853.97 622.883C1855.09 620.799 1855.65 618.651 1855.65 616.438C1855.65 613.469 1854.75 611.034 1852.95 609.133C1851.16 607.232 1848.76 606.281 1845.77 606.281C1842.17 606.281 1839.37 607.31 1837.37 609.367C1835.39 611.398 1834.4 614.237 1834.4 617.883H1827.17C1827.17 612.648 1828.85 608.417 1832.21 605.188C1835.6 601.958 1840.11 600.344 1845.77 600.344C1851.05 600.344 1855.23 601.737 1858.3 604.523C1861.38 607.284 1862.91 610.969 1862.91 615.578C1862.91 621.177 1859.35 627.844 1852.21 635.578L1836.98 652.102H1865.53V658Z" fill="black"/>
<path fill-rule="evenodd" clip-rule="evenodd" d="M943.445 50.5351C944.332 48.9683 945.994 48 947.795 48H1011.86C1013.65 48 1015.3 48.9586 1016.19 50.5128L1045.99 102.475H1106.19C1107.98 102.475 1109.64 103.433 1110.53 104.987L1139.94 156.285H1201.85C1203.64 156.285 1205.3 157.243 1206.19 158.798L1237.55 213.478C1238.43 215.016 1238.43 216.907 1237.55 218.446L1207.97 270.186L1237.55 321.762C1238.43 323.301 1238.43 325.191 1237.55 326.731L1207.97 378.471L1237.55 430.047C1238.43 431.586 1238.43 433.476 1237.55 435.016L1206.83 488.753C1205.94 490.311 1204.28 491.272 1202.49 491.272H1140.87L1111.17 543.228C1110.27 544.785 1108.62 545.747 1106.82 545.747H1046.15L1016.83 597.038C1015.94 598.596 1014.28 599.557 1012.49 599.557H948.429C946.648 599.557 945.002 598.61 944.107 597.071L914.254 545.747H851.438C849.657 545.747 848.011 544.8 847.116 543.26L817.263 491.936H756.439C754.659 491.936 753.013 490.989 752.117 489.45L720.678 435.398C719.784 433.862 719.773 431.966 720.65 430.419L750.315 378.066L720.678 327.113C719.784 325.577 719.773 323.681 720.65 322.134L750.315 269.781L720.678 218.829C719.784 217.292 719.773 215.396 720.65 213.85L751.455 159.484C752.343 157.917 754.004 156.949 755.805 156.949H817.023L846.453 105.01C847.341 103.443 849.003 102.475 850.803 102.475H914.014L943.445 50.5351ZM951.228 481.139H1008.72L1036.64 431.876L1008.2 382.987H950.633L922.755 432.187L951.228 481.139ZM1017.97 486.756L1046.07 535.747H1103.92L1131.78 487.013L1103.37 437.462H1046.15L1017.97 486.756ZM816.948 481.936L845.008 432.414L817.046 383.651H758.644L730.765 432.852L759.315 481.936H816.948ZM854.314 535.747L826.093 487.229L854.544 437.462H912.045L940.458 487.013L912.598 535.747H854.314ZM845.008 324.13L817.023 373.519H759.238L730.765 324.567L758.644 275.367H817.046L845.008 324.13ZM1105.27 425.098L1131.67 378.523L1103.37 329.177H1046.15L1017.97 378.471L1045.99 427.329H1104L1105.27 425.098ZM1141.22 372.854H1199.66L1227.45 324.253L1199.03 274.702H1140.87L1113.96 321.764L1112.75 323.903L1141.22 372.854ZM854.236 427.329L826.093 378.944L854.544 329.177H912.045L940.458 378.728L912.674 427.329H854.236ZM845.008 215.845L817.023 265.234H759.238L730.765 216.282L758.719 166.949H816.97L845.008 215.845ZM1199.03 382.987H1140.87L1113.97 430.04L1112.75 432.187L1141.3 481.272H1199.59L1227.45 432.538L1199.03 382.987ZM1105.27 316.813L1131.67 270.238L1103.37 220.892H1046.15L1017.97 270.186L1045.99 319.044H1104L1105.27 316.813ZM1141.22 264.57H1199.66L1227.45 215.969L1198.96 166.285H1140.94L1113.97 213.476L1112.75 215.618L1141.22 264.57ZM854.236 319.044L826.093 270.659L854.544 220.892H912.045L940.458 270.443L912.674 319.044H854.236ZM1105.27 208.528L1131.67 161.953L1103.29 112.475H1046.23L1017.97 161.901L1045.99 210.759H1104L1105.27 208.528ZM1008.2 491.272L1037.24 541.193L1009.59 589.557H951.305L922.755 540.472L950.633 491.272H1008.2ZM1036.64 323.592L1008.72 372.854H951.228L922.755 323.903L950.633 274.702H1008.2L1036.64 323.592ZM1036.64 215.307L1008.72 264.57H951.228L922.755 215.618L950.633 166.418H1008.2L1036.64 215.307ZM940.458 162.158L912.674 210.759H854.236L825.764 161.808L853.717 112.475H911.968L940.458 162.158ZM1036.85 106.643L1008.72 156.285H951.228L922.755 107.333L950.708 58H1008.96L1036.85 106.643Z" fill="#B5A89B"/>
<path fill-rule="evenodd" clip-rule="evenodd" d="M943.445 50.5351C944.332 48.9683 945.994 48 947.795 48H1011.86C1013.65 48 1015.3 48.9586 1016.19 50.5128L1045.99 102.475H1106.19C1107.98 102.475 1109.64 103.433 1110.53 104.987L1139.94 156.285H1201.85C1203.64 156.285 1205.3 157.243 1206.19 158.798L1237.55 213.478C1238.43 215.016 1238.43 216.907 1237.55 218.446L1207.97 270.186L1237.55 321.762C1238.43 323.301 1238.43 325.191 1237.55 326.731L1207.97 378.471L1237.55 430.047C1238.43 431.586 1238.43 433.476 1237.55 435.016L1206.83 488.753C1205.94 490.311 1204.28 491.272 1202.49 491.272H1140.87L1111.17 543.228C1110.27 544.785 1108.62 545.747 1106.82 545.747H1046.15L1016.83 597.038C1015.94 598.596 1014.28 599.557 1012.49 599.557H948.429C946.648 599.557 945.002 598.61 944.107 597.071L914.254 545.747H851.438C849.657 545.747 848.011 544.8 847.116 543.26L817.263 491.936H756.439C754.659 491.936 753.013 490.989 752.117 489.45L720.678 435.398C719.784 433.862 719.773 431.966 720.65 430.419L750.315 378.066L720.678 327.113C719.784 325.577 719.773 323.681 720.65 322.134L750.315 269.781L720.678 218.829C719.784 217.292 719.773 215.396 720.65 213.85L751.455 159.484C752.343 157.917 754.004 156.949 755.805 156.949H817.023L846.453 105.01C847.341 103.443 849.003 102.475 850.803 102.475H914.014L943.445 50.5351ZM951.228 481.139H1008.72L1036.64 431.876L1008.2 382.987H950.633L922.755 432.187L951.228 481.139ZM1017.97 486.756L1046.07 535.747H1103.92L1131.78 487.013L1103.37 437.462H1046.15L1017.97 486.756ZM816.948 481.936L845.008 432.414L817.046 383.651H758.644L730.765 432.852L759.315 481.936H816.948ZM854.314 535.747L826.093 487.229L854.544 437.462H912.045L940.458 487.013L912.598 535.747H854.314ZM845.008 324.13L817.023 373.519H759.238L730.765 324.567L758.644 275.367H817.046L845.008 324.13ZM1105.27 425.098L1131.67 378.523L1103.37 329.177H1046.15L1017.97 378.471L1045.99 427.329H1104L1105.27 425.098ZM1141.22 372.854H1199.66L1227.45 324.253L1199.03 274.702H1140.87L1113.96 321.764L1112.75 323.903L1141.22 372.854ZM854.236 427.329L826.093 378.944L854.544 329.177H912.045L940.458 378.728L912.674 427.329H854.236ZM845.008 215.845L817.023 265.234H759.238L730.765 216.282L758.719 166.949H816.97L845.008 215.845ZM1199.03 382.987H1140.87L1113.97 430.04L1112.75 432.187L1141.3 481.272H1199.59L1227.45 432.538L1199.03 382.987ZM1105.27 316.813L1131.67 270.238L1103.37 220.892H1046.15L1017.97 270.186L1045.99 319.044H1104L1105.27 316.813ZM1141.22 264.57H1199.66L1227.45 215.969L1198.96 166.285H1140.94L1113.97 213.476L1112.75 215.618L1141.22 264.57ZM854.236 319.044L826.093 270.659L854.544 220.892H912.045L940.458 270.443L912.674 319.044H854.236ZM1105.27 208.528L1131.67 161.953L1103.29 112.475H1046.23L1017.97 161.901L1045.99 210.759H1104L1105.27 208.528ZM1008.2 491.272L1037.24 541.193L1009.59 589.557H951.305L922.755 540.472L950.633 491.272H1008.2ZM1036.64 323.592L1008.72 372.854H951.228L922.755 323.903L950.633 274.702H1008.2L1036.64 323.592ZM1036.64 215.307L1008.72 264.57H951.228L922.755 215.618L950.633 166.418H1008.2L1036.64 215.307ZM940.458 162.158L912.674 210.759H854.236L825.764 161.808L853.717 112.475H911.968L940.458 162.158ZM1036.85 106.643L1008.72 156.285H951.228L922.755 107.333L950.708 58H1008.96L1036.85 106.643Z" fill="#B5A89B"/>
<path d="M898.758 145.969C898.758 148.807 898.003 151.333 896.492 153.547C895.008 155.76 892.99 157.492 890.438 158.742C893.406 160.018 895.75 161.88 897.469 164.328C899.214 166.776 900.086 169.549 900.086 172.648C900.086 177.57 898.419 181.49 895.086 184.406C891.779 187.323 887.417 188.781 882 188.781C876.531 188.781 872.143 187.323 868.836 184.406C865.555 181.464 863.914 177.544 863.914 172.648C863.914 169.576 864.747 166.802 866.414 164.328C868.107 161.854 870.438 159.979 873.406 158.703C870.88 157.453 868.888 155.721 867.43 153.508C865.971 151.294 865.242 148.781 865.242 145.969C865.242 141.177 866.779 137.375 869.852 134.562C872.924 131.75 876.974 130.344 882 130.344C887 130.344 891.036 131.75 894.109 134.562C897.208 137.375 898.758 141.177 898.758 145.969ZM892.859 172.492C892.859 169.315 891.844 166.724 889.812 164.719C887.807 162.714 885.177 161.711 881.922 161.711C878.667 161.711 876.049 162.701 874.07 164.68C872.117 166.659 871.141 169.263 871.141 172.492C871.141 175.721 872.091 178.26 873.992 180.109C875.919 181.958 878.589 182.883 882 182.883C885.385 182.883 888.042 181.958 889.969 180.109C891.896 178.234 892.859 175.695 892.859 172.492ZM882 136.281C879.161 136.281 876.857 137.167 875.086 138.938C873.341 140.682 872.469 143.065 872.469 146.086C872.469 148.977 873.328 151.32 875.047 153.117C876.792 154.888 879.109 155.773 882 155.773C884.891 155.773 887.195 154.888 888.914 153.117C890.659 151.32 891.531 148.977 891.531 146.086C891.531 143.195 890.633 140.839 888.836 139.016C887.039 137.193 884.76 136.281 882 136.281Z" fill="black"/>
<path d="M1081.77 179.898H1089.66V185.797H1081.77V199H1074.51V185.797H1048.61V181.539L1074.08 142.125H1081.77V179.898ZM1056.81 179.898H1074.51V152.008L1073.65 153.57L1056.81 179.898Z" fill="black"/>
<path d="M985.773 225.898H993.664V231.797H985.773V245H978.508V231.797H952.609V227.539L978.078 188.125H985.773V225.898ZM960.812 225.898H978.508V198.008L977.648 199.57L960.812 225.898Z" fill="black"/>
<path d="M988.773 116.898H996.664V122.797H988.773V136H981.508V122.797H955.609V118.539L981.078 79.125H988.773V116.898ZM963.812 116.898H981.508V89.0078L980.648 90.5703L963.812 116.898Z" fill="black"/>
<path d="M806.531 245H769.266V239.805L788.953 217.93C791.87 214.622 793.875 211.94 794.969 209.883C796.089 207.799 796.648 205.651 796.648 203.438C796.648 200.469 795.75 198.034 793.953 196.133C792.156 194.232 789.76 193.281 786.766 193.281C783.172 193.281 780.372 194.31 778.367 196.367C776.388 198.398 775.398 201.237 775.398 204.883H768.172C768.172 199.648 769.852 195.417 773.211 192.188C776.596 188.958 781.115 187.344 786.766 187.344C792.052 187.344 796.232 188.737 799.305 191.523C802.378 194.284 803.914 197.969 803.914 202.578C803.914 208.177 800.346 214.844 793.211 222.578L777.977 239.102H806.531V245Z" fill="black"/>
<path d="M1093.53 300H1056.27V294.805L1075.95 272.93C1078.87 269.622 1080.88 266.94 1081.97 264.883C1083.09 262.799 1083.65 260.651 1083.65 258.438C1083.65 255.469 1082.75 253.034 1080.95 251.133C1079.16 249.232 1076.76 248.281 1073.77 248.281C1070.17 248.281 1067.37 249.31 1065.37 251.367C1063.39 253.398 1062.4 256.237 1062.4 259.883H1055.17C1055.17 254.648 1056.85 250.417 1060.21 247.188C1063.6 243.958 1068.11 242.344 1073.77 242.344C1079.05 242.344 1083.23 243.737 1086.3 246.523C1089.38 249.284 1090.91 252.969 1090.91 257.578C1090.91 263.177 1087.35 269.844 1080.21 277.578L1064.98 294.102H1093.53V300Z" fill="black"/>
<path fill-rule="evenodd" clip-rule="evenodd" d="M290.445 349.535C291.332 347.968 292.994 347 294.795 347H358.856C360.648 347 362.302 347.959 363.194 349.513L392.99 401.475H453.19C454.982 401.475 456.636 402.433 457.528 403.987L486.943 455.285H548.853C550.644 455.285 552.299 456.243 553.19 457.798L584.545 512.478C585.427 514.016 585.429 515.907 584.548 517.446L554.97 569.186L584.545 620.762C585.427 622.301 585.429 624.191 584.548 625.731L554.97 677.471L584.545 729.047C585.427 730.586 585.429 732.476 584.548 734.016L553.828 787.753C552.938 789.311 551.281 790.272 549.487 790.272H487.867L458.165 842.228C457.275 843.785 455.618 844.747 453.824 844.747H393.154L363.831 896.038C362.941 897.596 361.284 898.557 359.49 898.557H295.429C293.648 898.557 292.002 897.61 291.107 896.071L261.254 844.747H198.438C196.657 844.747 195.011 843.8 194.116 842.26L164.263 790.936H103.439C101.659 790.936 100.013 789.989 99.1174 788.45L67.6779 734.398C66.7842 732.862 66.7735 730.966 67.6498 729.419L97.3147 677.066L67.6779 626.113C66.7842 624.577 66.7735 622.681 67.6498 621.134L97.3147 568.781L67.6779 517.829C66.7842 516.292 66.7735 514.396 67.6498 512.85L98.455 458.484C99.3427 456.917 101.004 455.949 102.805 455.949H164.023L193.453 404.01C194.341 402.443 196.003 401.475 197.803 401.475H261.014L290.445 349.535ZM298.228 780.139H355.724L383.638 730.876L355.202 681.987H297.633L269.755 731.187L298.228 780.139ZM364.973 785.756L393.066 834.747H450.923L478.784 786.013L450.37 736.462H393.154L364.973 785.756ZM163.948 780.936L192.008 731.414L164.046 682.651H105.644L77.7653 731.852L106.315 780.936H163.948ZM201.314 834.747L173.093 786.229L201.544 736.462H259.045L287.458 786.013L259.598 834.747H201.314ZM192.008 623.13L164.023 672.519H106.238L77.7653 623.567L105.644 574.367H164.046L192.008 623.13ZM452.275 724.098L478.666 677.523L450.37 628.177H393.154L364.973 677.471L392.99 726.329H450.999L452.275 724.098ZM488.224 671.854H546.662L574.446 623.253L546.032 573.702H487.867L460.963 620.764L459.752 622.903L488.224 671.854ZM201.236 726.329L173.093 677.944L201.544 628.177H259.045L287.458 677.728L259.674 726.329H201.236ZM192.008 514.845L164.023 564.234H106.238L77.7653 515.282L105.719 465.949H163.97L192.008 514.845ZM546.032 681.987H487.867L460.968 729.04L459.752 731.187L488.302 780.272H546.586L574.446 731.538L546.032 681.987ZM452.275 615.813L478.666 569.238L450.37 519.892H393.154L364.973 569.186L392.99 618.044H450.999L452.275 615.813ZM488.224 563.57H546.662L574.446 514.969L545.956 465.285H487.943L460.965 512.476L459.752 514.618L488.224 563.57ZM201.236 618.044L173.093 569.659L201.544 519.892H259.045L287.458 569.443L259.674 618.044H201.236ZM452.275 507.528L478.666 460.953L450.294 411.475H393.23L364.973 460.901L392.99 509.759H450.999L452.275 507.528ZM355.202 790.272L384.238 840.193L356.59 888.557H298.305L269.755 839.472L297.633 790.272H355.202ZM383.638 622.592L355.724 671.854H298.228L269.755 622.903L297.633 573.702H355.202L383.638 622.592ZM383.638 514.307L355.724 563.57H298.228L269.755 514.618L297.633 465.418H355.202L383.638 514.307ZM287.458 461.158L259.674 509.759H201.236L172.764 460.808L200.717 411.475H258.968L287.458 461.158ZM383.853 405.643L355.724 455.285H298.228L269.755 406.333L297.708 357H355.96L383.853 405.643Z" fill="#B5A89B"/>
<path fill-rule="evenodd" clip-rule="evenodd" d="M290.445 349.535C291.332 347.968 292.994 347 294.795 347H358.856C360.648 347 362.302 347.959 363.194 349.513L392.99 401.475H453.19C454.982 401.475 456.636 402.433 457.528 403.987L486.943 455.285H548.853C550.644 455.285 552.299 456.243 553.19 457.798L584.545 512.478C585.427 514.016 585.429 515.907 584.548 517.446L554.97 569.186L584.545 620.762C585.427 622.301 585.429 624.191 584.548 625.731L554.97 677.471L584.545 729.047C585.427 730.586 585.429 732.476 584.548 734.016L553.828 787.753C552.938 789.311 551.281 790.272 549.487 790.272H487.867L458.165 842.228C457.275 843.785 455.618 844.747 453.824 844.747H393.154L363.831 896.038C362.941 897.596 361.284 898.557 359.49 898.557H295.429C293.648 898.557 292.002 897.61 291.107 896.071L261.254 844.747H198.438C196.657 844.747 195.011 843.8 194.116 842.26L164.263 790.936H103.439C101.659 790.936 100.013 789.989 99.1174 788.45L67.6779 734.398C66.7842 732.862 66.7735 730.966 67.6498 729.419L97.3147 677.066L67.6779 626.113C66.7842 624.577 66.7735 622.681 67.6498 621.134L97.3147 568.781L67.6779 517.829C66.7842 516.292 66.7735 514.396 67.6498 512.85L98.455 458.484C99.3427 456.917 101.004 455.949 102.805 455.949H164.023L193.453 404.01C194.341 402.443 196.003 401.475 197.803 401.475H261.014L290.445 349.535ZM298.228 780.139H355.724L383.638 730.876L355.202 681.987H297.633L269.755 731.187L298.228 780.139ZM364.973 785.756L393.066 834.747H450.923L478.784 786.013L450.37 736.462H393.154L364.973 785.756ZM163.948 780.936L192.008 731.414L164.046 682.651H105.644L77.7653 731.852L106.315 780.936H163.948ZM201.314 834.747L173.093 786.229L201.544 736.462H259.045L287.458 786.013L259.598 834.747H201.314ZM192.008 623.13L164.023 672.519H106.238L77.7653 623.567L105.644 574.367H164.046L192.008 623.13ZM452.275 724.098L478.666 677.523L450.37 628.177H393.154L364.973 677.471L392.99 726.329H450.999L452.275 724.098ZM488.224 671.854H546.662L574.446 623.253L546.032 573.702H487.867L460.963 620.764L459.752 622.903L488.224 671.854ZM201.236 726.329L173.093 677.944L201.544 628.177H259.045L287.458 677.728L259.674 726.329H201.236ZM192.008 514.845L164.023 564.234H106.238L77.7653 515.282L105.719 465.949H163.97L192.008 514.845ZM546.032 681.987H487.867L460.968 729.04L459.752 731.187L488.302 780.272H546.586L574.446 731.538L546.032 681.987ZM452.275 615.813L478.666 569.238L450.37 519.892H393.154L364.973 569.186L392.99 618.044H450.999L452.275 615.813ZM488.224 563.57H546.662L574.446 514.969L545.956 465.285H487.943L460.965 512.476L459.752 514.618L488.224 563.57ZM201.236 618.044L173.093 569.659L201.544 519.892H259.045L287.458 569.443L259.674 618.044H201.236ZM452.275 507.528L478.666 460.953L450.294 411.475H393.23L364.973 460.901L392.99 509.759H450.999L452.275 507.528ZM355.202 790.272L384.238 840.193L356.59 888.557H298.305L269.755 839.472L297.633 790.272H355.202ZM383.638 622.592L355.724 671.854H298.228L269.755 622.903L297.633 573.702H355.202L383.638 622.592ZM383.638 514.307L355.724 563.57H298.228L269.755 514.618L297.633 465.418H355.202L383.638 514.307ZM287.458 461.158L259.674 509.759H201.236L172.764 460.808L200.717 411.475H258.968L287.458 461.158ZM383.853 405.643L355.724 455.285H298.228L269.755 406.333L297.708 357H355.96L383.853 405.643Z" fill="#B5A89B"/>
<path d="M144.773 629.898H152.664V635.797H144.773V649H137.508V635.797H111.609V631.539L137.078 592.125H144.773V629.898ZM119.812 629.898H137.508V602.008L136.648 603.57L119.812 629.898Z" fill="black"/>
<path d="M144.773 739.898H152.664V745.797H144.773V759H137.508V745.797H111.609V741.539L137.078 702.125H144.773V739.898ZM119.812 739.898H137.508V712.008L136.648 713.57L119.812 739.898Z" fill="black"/>
<path d="M329.773 516.898H337.664V522.797H329.773V536H322.508V522.797H296.609V518.539L322.078 479.125H329.773V516.898ZM304.812 516.898H322.508V489.008L321.648 490.57L304.812 516.898Z" fill="black"/>
<path d="M140.773 521.898H148.664V527.797H140.773V541H133.508V527.797H107.609V523.539L133.078 484.125H140.773V521.898ZM115.812 521.898H133.508V494.008L132.648 495.57L115.812 521.898Z" fill="black"/>
<path d="M240.773 577.898H248.664V583.797H240.773V597H233.508V583.797H207.609V579.539L233.078 540.125H240.773V577.898ZM215.812 577.898H233.508V550.008L232.648 551.57L215.812 577.898Z" fill="black"/>
<path d="M246.531 486H209.266V480.805L228.953 458.93C231.87 455.622 233.875 452.94 234.969 450.883C236.089 448.799 236.648 446.651 236.648 444.438C236.648 441.469 235.75 439.034 233.953 437.133C232.156 435.232 229.76 434.281 226.766 434.281C223.172 434.281 220.372 435.31 218.367 437.367C216.388 439.398 215.398 442.237 215.398 445.883H208.172C208.172 440.648 209.852 436.417 213.211 433.188C216.596 429.958 221.115 428.344 226.766 428.344C232.052 428.344 236.232 429.737 239.305 432.523C242.378 435.284 243.914 438.969 243.914 443.578C243.914 449.177 240.346 455.844 233.211 463.578L217.977 480.102H246.531V486Z" fill="black"/>
<path d="M248.531 704H211.266V698.805L230.953 676.93C233.87 673.622 235.875 670.94 236.969 668.883C238.089 666.799 238.648 664.651 238.648 662.438C238.648 659.469 237.75 657.034 235.953 655.133C234.156 653.232 231.76 652.281 228.766 652.281C225.172 652.281 222.372 653.31 220.367 655.367C218.388 657.398 217.398 660.237 217.398 663.883H210.172C210.172 658.648 211.852 654.417 215.211 651.188C218.596 647.958 223.115 646.344 228.766 646.344C234.052 646.344 238.232 647.737 241.305 650.523C244.378 653.284 245.914 656.969 245.914 661.578C245.914 667.177 242.346 673.844 235.211 681.578L219.977 698.102H248.531V704Z" fill="black"/>
<path fill-rule="evenodd" clip-rule="evenodd" d="M1556.44 1377.54C1557.33 1375.97 1558.99 1375 1560.79 1375H1624.86C1626.65 1375 1628.3 1375.96 1629.19 1377.51L1658.99 1429.47H1719.19C1720.98 1429.47 1722.64 1430.43 1723.53 1431.99L1752.94 1483.28H1814.85C1816.64 1483.28 1818.3 1484.24 1819.19 1485.8L1850.55 1540.48C1851.43 1542.02 1851.43 1543.91 1850.55 1545.45L1820.97 1597.19L1850.55 1648.76C1851.43 1650.3 1851.43 1652.19 1850.55 1653.73L1820.97 1705.47L1850.55 1757.05C1851.43 1758.59 1851.43 1760.48 1850.55 1762.02L1819.83 1815.75C1818.94 1817.31 1817.28 1818.27 1815.49 1818.27H1753.87L1724.17 1870.23C1723.27 1871.79 1721.62 1872.75 1719.82 1872.75H1659.15L1629.83 1924.04C1628.94 1925.6 1627.28 1926.56 1625.49 1926.56H1561.43C1559.65 1926.56 1558 1925.61 1557.11 1924.07L1527.25 1872.75H1464.44C1462.66 1872.75 1461.01 1871.8 1460.12 1870.26L1430.26 1818.94H1369.44C1367.66 1818.94 1366.01 1817.99 1365.12 1816.45L1333.68 1762.4C1332.78 1760.86 1332.77 1758.97 1333.65 1757.42L1363.31 1705.07L1333.68 1654.11C1332.78 1652.58 1332.77 1650.68 1333.65 1649.13L1363.31 1596.78L1333.68 1545.83C1332.78 1544.29 1332.77 1542.4 1333.65 1540.85L1364.45 1486.48C1365.34 1484.92 1367 1483.95 1368.81 1483.95H1430.02L1459.45 1432.01C1460.34 1430.44 1462 1429.47 1463.8 1429.47H1527.01L1556.44 1377.54ZM1564.23 1808.14H1621.72L1649.64 1758.88L1621.2 1709.99H1563.63L1535.75 1759.19L1564.23 1808.14ZM1630.97 1813.76L1659.07 1862.75H1716.92L1744.78 1814.01L1716.37 1764.46H1659.15L1630.97 1813.76ZM1429.95 1808.94L1458.01 1759.41L1430.05 1710.65H1371.64L1343.77 1759.85L1372.32 1808.94H1429.95ZM1467.31 1862.75L1439.09 1814.23L1467.54 1764.46H1525.04L1553.46 1814.01L1525.6 1862.75H1467.31ZM1458.01 1651.13L1430.02 1700.52H1372.24L1343.77 1651.57L1371.64 1602.37H1430.05L1458.01 1651.13ZM1718.27 1752.1L1744.67 1705.52L1716.37 1656.18H1659.15L1630.97 1705.47L1658.99 1754.33H1717L1718.27 1752.1ZM1754.22 1699.85H1812.66L1840.45 1651.25L1812.03 1601.7H1753.87L1726.96 1648.76L1725.75 1650.9L1754.22 1699.85ZM1467.24 1754.33L1439.09 1705.94L1467.54 1656.18H1525.04L1553.46 1705.73L1525.67 1754.33H1467.24ZM1458.01 1542.84L1430.02 1592.23H1372.24L1343.77 1543.28L1371.72 1493.95H1429.97L1458.01 1542.84ZM1812.03 1709.99H1753.87L1726.97 1757.04L1725.75 1759.19L1754.3 1808.27H1812.59L1840.45 1759.54L1812.03 1709.99ZM1718.27 1643.81L1744.67 1597.24L1716.37 1547.89H1659.15L1630.97 1597.19L1658.99 1646.04H1717L1718.27 1643.81ZM1754.22 1591.57H1812.66L1840.45 1542.97L1811.96 1493.28H1753.94L1726.97 1540.48L1725.75 1542.62L1754.22 1591.57ZM1467.24 1646.04L1439.09 1597.66L1467.54 1547.89H1525.04L1553.46 1597.44L1525.67 1646.04H1467.24ZM1718.27 1535.53L1744.67 1488.95L1716.29 1439.47H1659.23L1630.97 1488.9L1658.99 1537.76H1717L1718.27 1535.53ZM1621.2 1818.27L1650.24 1868.19L1622.59 1916.56H1564.31L1535.75 1867.47L1563.63 1818.27H1621.2ZM1649.64 1650.59L1621.72 1699.85H1564.23L1535.75 1650.9L1563.63 1601.7H1621.2L1649.64 1650.59ZM1649.64 1542.31L1621.72 1591.57H1564.23L1535.75 1542.62L1563.63 1493.42H1621.2L1649.64 1542.31ZM1553.46 1489.16L1525.67 1537.76H1467.24L1438.76 1488.81L1466.72 1439.47H1524.97L1553.46 1489.16ZM1649.85 1433.64L1621.72 1483.28H1564.23L1535.75 1434.33L1563.71 1385H1621.96L1649.85 1433.64Z" fill="#B5A89B"/>
<path fill-rule="evenodd" clip-rule="evenodd" d="M1556.44 1377.54C1557.33 1375.97 1558.99 1375 1560.79 1375H1624.86C1626.65 1375 1628.3 1375.96 1629.19 1377.51L1658.99 1429.47H1719.19C1720.98 1429.47 1722.64 1430.43 1723.53 1431.99L1752.94 1483.28H1814.85C1816.64 1483.28 1818.3 1484.24 1819.19 1485.8L1850.55 1540.48C1851.43 1542.02 1851.43 1543.91 1850.55 1545.45L1820.97 1597.19L1850.55 1648.76C1851.43 1650.3 1851.43 1652.19 1850.55 1653.73L1820.97 1705.47L1850.55 1757.05C1851.43 1758.59 1851.43 1760.48 1850.55 1762.02L1819.83 1815.75C1818.94 1817.31 1817.28 1818.27 1815.49 1818.27H1753.87L1724.17 1870.23C1723.27 1871.79 1721.62 1872.75 1719.82 1872.75H1659.15L1629.83 1924.04C1628.94 1925.6 1627.28 1926.56 1625.49 1926.56H1561.43C1559.65 1926.56 1558 1925.61 1557.11 1924.07L1527.25 1872.75H1464.44C1462.66 1872.75 1461.01 1871.8 1460.12 1870.26L1430.26 1818.94H1369.44C1367.66 1818.94 1366.01 1817.99 1365.12 1816.45L1333.68 1762.4C1332.78 1760.86 1332.77 1758.97 1333.65 1757.42L1363.31 1705.07L1333.68 1654.11C1332.78 1652.58 1332.77 1650.68 1333.65 1649.13L1363.31 1596.78L1333.68 1545.83C1332.78 1544.29 1332.77 1542.4 1333.65 1540.85L1364.45 1486.48C1365.34 1484.92 1367 1483.95 1368.81 1483.95H1430.02L1459.45 1432.01C1460.34 1430.44 1462 1429.47 1463.8 1429.47H1527.01L1556.44 1377.54ZM1564.23 1808.14H1621.72L1649.64 1758.88L1621.2 1709.99H1563.63L1535.75 1759.19L1564.23 1808.14ZM1630.97 1813.76L1659.07 1862.75H1716.92L1744.78 1814.01L1716.37 1764.46H1659.15L1630.97 1813.76ZM1429.95 1808.94L1458.01 1759.41L1430.05 1710.65H1371.64L1343.77 1759.85L1372.32 1808.94H1429.95ZM1467.31 1862.75L1439.09 1814.23L1467.54 1764.46H1525.04L1553.46 1814.01L1525.6 1862.75H1467.31ZM1458.01 1651.13L1430.02 1700.52H1372.24L1343.77 1651.57L1371.64 1602.37H1430.05L1458.01 1651.13ZM1718.27 1752.1L1744.67 1705.52L1716.37 1656.18H1659.15L1630.97 1705.47L1658.99 1754.33H1717L1718.27 1752.1ZM1754.22 1699.85H1812.66L1840.45 1651.25L1812.03 1601.7H1753.87L1726.96 1648.76L1725.75 1650.9L1754.22 1699.85ZM1467.24 1754.33L1439.09 1705.94L1467.54 1656.18H1525.04L1553.46 1705.73L1525.67 1754.33H1467.24ZM1458.01 1542.84L1430.02 1592.23H1372.24L1343.77 1543.28L1371.72 1493.95H1429.97L1458.01 1542.84ZM1812.03 1709.99H1753.87L1726.97 1757.04L1725.75 1759.19L1754.3 1808.27H1812.59L1840.45 1759.54L1812.03 1709.99ZM1718.27 1643.81L1744.67 1597.24L1716.37 1547.89H1659.15L1630.97 1597.19L1658.99 1646.04H1717L1718.27 1643.81ZM1754.22 1591.57H1812.66L1840.45 1542.97L1811.96 1493.28H1753.94L1726.97 1540.48L1725.75 1542.62L1754.22 1591.57ZM1467.24 1646.04L1439.09 1597.66L1467.54 1547.89H1525.04L1553.46 1597.44L1525.67 1646.04H1467.24ZM1718.27 1535.53L1744.67 1488.95L1716.29 1439.47H1659.23L1630.97 1488.9L1658.99 1537.76H1717L1718.27 1535.53ZM1621.2 1818.27L1650.24 1868.19L1622.59 1916.56H1564.31L1535.75 1867.47L1563.63 1818.27H1621.2ZM1649.64 1650.59L1621.72 1699.85H1564.23L1535.75 1650.9L1563.63 1601.7H1621.2L1649.64 1650.59ZM1649.64 1542.31L1621.72 1591.57H1564.23L1535.75 1542.62L1563.63 1493.42H1621.2L1649.64 1542.31ZM1553.46 1489.16L1525.67 1537.76H1467.24L1438.76 1488.81L1466.72 1439.47H1524.97L1553.46 1489.16ZM1649.85 1433.64L1621.72 1483.28H1564.23L1535.75 1434.33L1563.71 1385H1621.96L1649.85 1433.64Z" fill="#B5A89B"/>
<path d="M1604.77 1770.9H1612.66V1776.8H1604.77V1790H1597.51V1776.8H1571.61V1772.54L1597.08 1733.12H1604.77V1770.9ZM1579.81 1770.9H1597.51V1743.01L1596.65 1744.57L1579.81 1770.9Z" fill="black"/>
<path d="M1601.77 1876.9H1609.66V1882.8H1601.77V1896H1594.51V1882.8H1568.61V1878.54L1594.08 1839.12H1601.77V1876.9ZM1576.81 1876.9H1594.51V1849.01L1593.65 1850.57L1576.81 1876.9Z" fill="black"/>
<path d="M1788.77 1662.9H1796.66V1668.8H1788.77V1682H1781.51V1668.8H1755.61V1664.54L1781.08 1625.12H1788.77V1662.9ZM1763.81 1662.9H1781.51V1635.01L1780.65 1636.57L1763.81 1662.9Z" fill="black"/>
<path d="M1690.77 1712.9H1698.66V1718.8H1690.77V1732H1683.51V1718.8H1657.61V1714.54L1683.08 1675.12H1690.77V1712.9ZM1665.81 1712.9H1683.51V1685.01L1682.65 1686.57L1665.81 1712.9Z" fill="black"/>
<path d="M1796.77 1774.9H1804.66V1780.8H1796.77V1794H1789.51V1780.8H1763.61V1776.54L1789.08 1737.12H1796.77V1774.9ZM1771.81 1774.9H1789.51V1747.01L1788.65 1748.57L1771.81 1774.9Z" fill="black"/>
<path d="M1700.53 1631H1663.27V1625.8L1682.95 1603.93C1685.87 1600.62 1687.88 1597.94 1688.97 1595.88C1690.09 1593.8 1690.65 1591.65 1690.65 1589.44C1690.65 1586.47 1689.75 1584.03 1687.95 1582.13C1686.16 1580.23 1683.76 1579.28 1680.77 1579.28C1677.17 1579.28 1674.37 1580.31 1672.37 1582.37C1670.39 1584.4 1669.4 1587.24 1669.4 1590.88H1662.17C1662.17 1585.65 1663.85 1581.42 1667.21 1578.19C1670.6 1574.96 1675.11 1573.34 1680.77 1573.34C1686.05 1573.34 1690.23 1574.74 1693.3 1577.52C1696.38 1580.28 1697.91 1583.97 1697.91 1588.58C1697.91 1594.18 1694.35 1600.84 1687.21 1608.58L1671.98 1625.1H1700.53V1631Z" fill="black"/>
<path d="M1708.53 1841H1671.27V1835.8L1690.95 1813.93C1693.87 1810.62 1695.88 1807.94 1696.97 1805.88C1698.09 1803.8 1698.65 1801.65 1698.65 1799.44C1698.65 1796.47 1697.75 1794.03 1695.95 1792.13C1694.16 1790.23 1691.76 1789.28 1688.77 1789.28C1685.17 1789.28 1682.37 1790.31 1680.37 1792.37C1678.39 1794.4 1677.4 1797.24 1677.4 1800.88H1670.17C1670.17 1795.65 1671.85 1791.42 1675.21 1788.19C1678.6 1784.96 1683.11 1783.34 1688.77 1783.34C1694.05 1783.34 1698.23 1784.74 1701.3 1787.52C1704.38 1790.28 1705.91 1793.97 1705.91 1798.58C1705.91 1804.18 1702.35 1810.84 1695.21 1818.58L1679.98 1835.1H1708.53V1841Z" fill="black"/>
<path fill-rule="evenodd" clip-rule="evenodd" d="M943.445 1657.54C944.332 1655.97 945.994 1655 947.795 1655H1011.86C1013.65 1655 1015.3 1655.96 1016.19 1657.51L1045.99 1709.47H1106.19C1107.98 1709.47 1109.64 1710.43 1110.53 1711.99L1139.94 1763.28H1201.85C1203.64 1763.28 1205.3 1764.24 1206.19 1765.8L1237.55 1820.48C1238.43 1822.02 1238.43 1823.91 1237.55 1825.45L1207.97 1877.19L1237.55 1928.76C1238.43 1930.3 1238.43 1932.19 1237.55 1933.73L1207.97 1985.47L1237.55 2037.05C1238.43 2038.59 1238.43 2040.48 1237.55 2042.02L1206.83 2095.75C1205.94 2097.31 1204.28 2098.27 1202.49 2098.27H1140.87L1111.17 2150.23C1110.27 2151.79 1108.62 2152.75 1106.82 2152.75H1046.15L1016.83 2204.04C1015.94 2205.6 1014.28 2206.56 1012.49 2206.56H948.429C946.648 2206.56 945.002 2205.61 944.107 2204.07L914.254 2152.75H851.438C849.657 2152.75 848.011 2151.8 847.116 2150.26L817.263 2098.94H756.439C754.659 2098.94 753.013 2097.99 752.117 2096.45L720.678 2042.4C719.784 2040.86 719.773 2038.97 720.65 2037.42L750.315 1985.07L720.678 1934.11C719.784 1932.58 719.773 1930.68 720.65 1929.13L750.315 1876.78L720.678 1825.83C719.784 1824.29 719.773 1822.4 720.65 1820.85L751.455 1766.48C752.343 1764.92 754.004 1763.95 755.805 1763.95H817.023L846.453 1712.01C847.341 1710.44 849.003 1709.47 850.803 1709.47H914.014L943.445 1657.54ZM951.228 2088.14H1008.72L1036.64 2038.88L1008.2 1989.99H950.633L922.755 2039.19L951.228 2088.14ZM1017.97 2093.76L1046.07 2142.75H1103.92L1131.78 2094.01L1103.37 2044.46H1046.15L1017.97 2093.76ZM816.948 2088.94L845.008 2039.41L817.046 1990.65H758.644L730.765 2039.85L759.315 2088.94H816.948ZM854.314 2142.75L826.093 2094.23L854.544 2044.46H912.045L940.458 2094.01L912.598 2142.75H854.314ZM845.008 1931.13L817.023 1980.52H759.238L730.765 1931.57L758.644 1882.37H817.046L845.008 1931.13ZM1105.27 2032.1L1131.67 1985.52L1103.37 1936.18H1046.15L1017.97 1985.47L1045.99 2034.33H1104L1105.27 2032.1ZM1141.22 1979.85H1199.66L1227.45 1931.25L1199.03 1881.7H1140.87L1113.96 1928.76L1112.75 1930.9L1141.22 1979.85ZM854.236 2034.33L826.093 1985.94L854.544 1936.18H912.045L940.458 1985.73L912.674 2034.33H854.236ZM845.008 1822.84L817.023 1872.23H759.238L730.765 1823.28L758.719 1773.95H816.97L845.008 1822.84ZM1199.03 1989.99H1140.87L1113.97 2037.04L1112.75 2039.19L1141.3 2088.27H1199.59L1227.45 2039.54L1199.03 1989.99ZM1105.27 1923.81L1131.67 1877.24L1103.37 1827.89H1046.15L1017.97 1877.19L1045.99 1926.04H1104L1105.27 1923.81ZM1141.22 1871.57H1199.66L1227.45 1822.97L1198.96 1773.28H1140.94L1113.97 1820.48L1112.75 1822.62L1141.22 1871.57ZM854.236 1926.04L826.093 1877.66L854.544 1827.89H912.045L940.458 1877.44L912.674 1926.04H854.236ZM1105.27 1815.53L1131.67 1768.95L1103.29 1719.47H1046.23L1017.97 1768.9L1045.99 1817.76H1104L1105.27 1815.53ZM1008.2 2098.27L1037.24 2148.19L1009.59 2196.56H951.305L922.755 2147.47L950.633 2098.27H1008.2ZM1036.64 1930.59L1008.72 1979.85H951.228L922.755 1930.9L950.633 1881.7H1008.2L1036.64 1930.59ZM1036.64 1822.31L1008.72 1871.57H951.228L922.755 1822.62L950.633 1773.42H1008.2L1036.64 1822.31ZM940.458 1769.16L912.674 1817.76H854.236L825.764 1768.81L853.717 1719.47H911.968L940.458 1769.16ZM1036.85 1713.64L1008.72 1763.28H951.228L922.755 1714.33L950.708 1665H1008.96L1036.85 1713.64Z" fill="#B5A89B"/>
<path fill-rule="evenodd" clip-rule="evenodd" d="M943.445 1657.54C944.332 1655.97 945.994 1655 947.795 1655H1011.86C1013.65 1655 1015.3 1655.96 1016.19 1657.51L1045.99 1709.47H1106.19C1107.98 1709.47 1109.64 1710.43 1110.53 1711.99L1139.94 1763.28H1201.85C1203.64 1763.28 1205.3 1764.24 1206.19 1765.8L1237.55 1820.48C1238.43 1822.02 1238.43 1823.91 1237.55 1825.45L1207.97 1877.19L1237.55 1928.76C1238.43 1930.3 1238.43 1932.19 1237.55 1933.73L1207.97 1985.47L1237.55 2037.05C1238.43 2038.59 1238.43 2040.48 1237.55 2042.02L1206.83 2095.75C1205.94 2097.31 1204.28 2098.27 1202.49 2098.27H1140.87L1111.17 2150.23C1110.27 2151.79 1108.62 2152.75 1106.82 2152.75H1046.15L1016.83 2204.04C1015.94 2205.6 1014.28 2206.56 1012.49 2206.56H948.429C946.648 2206.56 945.002 2205.61 944.107 2204.07L914.254 2152.75H851.438C849.657 2152.75 848.011 2151.8 847.116 2150.26L817.263 2098.94H756.439C754.659 2098.94 753.013 2097.99 752.117 2096.45L720.678 2042.4C719.784 2040.86 719.773 2038.97 720.65 2037.42L750.315 1985.07L720.678 1934.11C719.784 1932.58 719.773 1930.68 720.65 1929.13L750.315 1876.78L720.678 1825.83C719.784 1824.29 719.773 1822.4 720.65 1820.85L751.455 1766.48C752.343 1764.92 754.004 1763.95 755.805 1763.95H817.023L846.453 1712.01C847.341 1710.44 849.003 1709.47 850.803 1709.47H914.014L943.445 1657.54ZM951.228 2088.14H1008.72L1036.64 2038.88L1008.2 1989.99H950.633L922.755 2039.19L951.228 2088.14ZM1017.97 2093.76L1046.07 2142.75H1103.92L1131.78 2094.01L1103.37 2044.46H1046.15L1017.97 2093.76ZM816.948 2088.94L845.008 2039.41L817.046 1990.65H758.644L730.765 2039.85L759.315 2088.94H816.948ZM854.314 2142.75L826.093 2094.23L854.544 2044.46H912.045L940.458 2094.01L912.598 2142.75H854.314ZM845.008 1931.13L817.023 1980.52H759.238L730.765 1931.57L758.644 1882.37H817.046L845.008 1931.13ZM1105.27 2032.1L1131.67 1985.52L1103.37 1936.18H1046.15L1017.97 1985.47L1045.99 2034.33H1104L1105.27 2032.1ZM1141.22 1979.85H1199.66L1227.45 1931.25L1199.03 1881.7H1140.87L1113.96 1928.76L1112.75 1930.9L1141.22 1979.85ZM854.236 2034.33L826.093 1985.94L854.544 1936.18H912.045L940.458 1985.73L912.674 2034.33H854.236ZM845.008 1822.84L817.023 1872.23H759.238L730.765 1823.28L758.719 1773.95H816.97L845.008 1822.84ZM1199.03 1989.99H1140.87L1113.97 2037.04L1112.75 2039.19L1141.3 2088.27H1199.59L1227.45 2039.54L1199.03 1989.99ZM1105.27 1923.81L1131.67 1877.24L1103.37 1827.89H1046.15L1017.97 1877.19L1045.99 1926.04H1104L1105.27 1923.81ZM1141.22 1871.57H1199.66L1227.45 1822.97L1198.96 1773.28H1140.94L1113.97 1820.48L1112.75 1822.62L1141.22 1871.57ZM854.236 1926.04L826.093 1877.66L854.544 1827.89H912.045L940.458 1877.44L912.674 1926.04H854.236ZM1105.27 1815.53L1131.67 1768.95L1103.29 1719.47H1046.23L1017.97 1768.9L1045.99 1817.76H1104L1105.27 1815.53ZM1008.2 2098.27L1037.24 2148.19L1009.59 2196.56H951.305L922.755 2147.47L950.633 2098.27H1008.2ZM1036.64 1930.59L1008.72 1979.85H951.228L922.755 1930.9L950.633 1881.7H1008.2L1036.64 1930.59ZM1036.64 1822.31L1008.72 1871.57H951.228L922.755 1822.62L950.633 1773.42H1008.2L1036.64 1822.31ZM940.458 1769.16L912.674 1817.76H854.236L825.764 1768.81L853.717 1719.47H911.968L940.458 1769.16ZM1036.85 1713.64L1008.72 1763.28H951.228L922.755 1714.33L950.708 1665H1008.96L1036.85 1713.64Z" fill="#B5A89B"/>
<path d="M1081.77 1999.9H1089.66V2005.8H1081.77V2019H1074.51V2005.8H1048.61V2001.54L1074.08 1962.12H1081.77V1999.9ZM1056.81 1999.9H1074.51V1972.01L1073.65 1973.57L1056.81 1999.9Z" fill="black"/>
<path d="M896.758 2077.97C896.758 2080.81 896.003 2083.33 894.492 2085.55C893.008 2087.76 890.99 2089.49 888.438 2090.74C891.406 2092.02 893.75 2093.88 895.469 2096.33C897.214 2098.78 898.086 2101.55 898.086 2104.65C898.086 2109.57 896.419 2113.49 893.086 2116.41C889.779 2119.32 885.417 2120.78 880 2120.78C874.531 2120.78 870.143 2119.32 866.836 2116.41C863.555 2113.46 861.914 2109.54 861.914 2104.65C861.914 2101.58 862.747 2098.8 864.414 2096.33C866.107 2093.85 868.438 2091.98 871.406 2090.7C868.88 2089.45 866.888 2087.72 865.43 2085.51C863.971 2083.29 863.242 2080.78 863.242 2077.97C863.242 2073.18 864.779 2069.38 867.852 2066.56C870.924 2063.75 874.974 2062.34 880 2062.34C885 2062.34 889.036 2063.75 892.109 2066.56C895.208 2069.38 896.758 2073.18 896.758 2077.97ZM890.859 2104.49C890.859 2101.32 889.844 2098.72 887.812 2096.72C885.807 2094.71 883.177 2093.71 879.922 2093.71C876.667 2093.71 874.049 2094.7 872.07 2096.68C870.117 2098.66 869.141 2101.26 869.141 2104.49C869.141 2107.72 870.091 2110.26 871.992 2112.11C873.919 2113.96 876.589 2114.88 880 2114.88C883.385 2114.88 886.042 2113.96 887.969 2112.11C889.896 2110.23 890.859 2107.7 890.859 2104.49ZM880 2068.28C877.161 2068.28 874.857 2069.17 873.086 2070.94C871.341 2072.68 870.469 2075.07 870.469 2078.09C870.469 2080.98 871.328 2083.32 873.047 2085.12C874.792 2086.89 877.109 2087.77 880 2087.77C882.891 2087.77 885.195 2086.89 886.914 2085.12C888.659 2083.32 889.531 2080.98 889.531 2078.09C889.531 2075.2 888.633 2072.84 886.836 2071.02C885.039 2069.19 882.76 2068.28 880 2068.28Z" fill="black"/>
<path d="M803.21 2069.68H765.944V2064.48L785.632 2042.61C788.548 2039.3 790.553 2036.62 791.647 2034.56C792.767 2032.48 793.327 2030.33 793.327 2028.12C793.327 2025.15 792.428 2022.71 790.632 2020.81C788.835 2018.91 786.439 2017.96 783.444 2017.96C779.85 2017.96 777.051 2018.99 775.046 2021.05C773.066 2023.08 772.077 2025.92 772.077 2029.56H764.85C764.85 2024.33 766.53 2020.1 769.889 2016.87C773.275 2013.64 777.793 2012.02 783.444 2012.02C788.731 2012.02 792.91 2013.42 795.983 2016.2C799.056 2018.96 800.593 2022.65 800.593 2027.26C800.593 2032.86 797.025 2039.52 789.889 2047.26L774.655 2063.78H803.21V2069.68Z" fill="black"/>
<path d="M1093.53 2120H1056.27V2114.8L1075.95 2092.93C1078.87 2089.62 1080.88 2086.94 1081.97 2084.88C1083.09 2082.8 1083.65 2080.65 1083.65 2078.44C1083.65 2075.47 1082.75 2073.03 1080.95 2071.13C1079.16 2069.23 1076.76 2068.28 1073.77 2068.28C1070.17 2068.28 1067.37 2069.31 1065.37 2071.37C1063.39 2073.4 1062.4 2076.24 1062.4 2079.88H1055.17C1055.17 2074.65 1056.85 2070.42 1060.21 2067.19C1063.6 2063.96 1068.11 2062.34 1073.77 2062.34C1079.05 2062.34 1083.23 2063.74 1086.3 2066.52C1089.38 2069.28 1090.91 2072.97 1090.91 2077.58C1090.91 2083.18 1087.35 2089.84 1080.21 2097.58L1064.98 2114.1H1093.53V2120Z" fill="black"/>
<path d="M992.452 2151.58H1000.34V2157.48H992.452V2170.68H985.186V2157.48H959.288V2153.22L984.757 2113.8H992.452V2151.58ZM967.491 2151.58H985.186V2123.69L984.327 2125.25L967.491 2151.58Z" fill="black"/>
<path d="M991.452 2050.58H999.343V2056.48H991.452V2069.68H984.186V2056.48H958.288V2052.22L983.757 2012.8H991.452V2050.58ZM966.491 2050.58H984.186V2022.69L983.327 2024.25L966.491 2050.58Z" fill="black"/>
<path fill-rule="evenodd" clip-rule="evenodd" d="M416.445 1381.54C417.332 1379.97 418.994 1379 420.795 1379H484.856C486.648 1379 488.302 1379.96 489.194 1381.51L518.99 1433.47H579.19C580.982 1433.47 582.636 1434.43 583.528 1435.99L612.943 1487.28H674.853C676.644 1487.28 678.299 1488.24 679.19 1489.8L710.545 1544.48C711.427 1546.02 711.429 1547.91 710.548 1549.45L680.97 1601.19L710.545 1652.76C711.427 1654.3 711.429 1656.19 710.548 1657.73L680.97 1709.47L710.545 1761.05C711.427 1762.59 711.429 1764.48 710.548 1766.02L679.828 1819.75C678.938 1821.31 677.281 1822.27 675.487 1822.27H613.867L584.165 1874.23C583.275 1875.79 581.618 1876.75 579.824 1876.75H519.154L489.831 1928.04C488.941 1929.6 487.284 1930.56 485.49 1930.56H421.429C419.648 1930.56 418.002 1929.61 417.107 1928.07L387.254 1876.75H324.438C322.657 1876.75 321.011 1875.8 320.116 1874.26L290.263 1822.94H229.439C227.659 1822.94 226.013 1821.99 225.117 1820.45L193.678 1766.4C192.784 1764.86 192.773 1762.97 193.65 1761.42L223.315 1709.07L193.678 1658.11C192.784 1656.58 192.773 1654.68 193.65 1653.13L223.315 1600.78L193.678 1549.83C192.784 1548.29 192.773 1546.4 193.65 1544.85L224.455 1490.48C225.343 1488.92 227.004 1487.95 228.805 1487.95H290.023L319.453 1436.01C320.341 1434.44 322.003 1433.47 323.803 1433.47H387.014L416.445 1381.54ZM424.228 1812.14H481.724L509.638 1762.88L481.202 1713.99H423.633L395.755 1763.19L424.228 1812.14ZM490.973 1817.76L519.066 1866.75H576.923L604.784 1818.01L576.37 1768.46H519.154L490.973 1817.76ZM289.948 1812.94L318.008 1763.41L290.046 1714.65H231.644L203.765 1763.85L232.315 1812.94H289.948ZM327.314 1866.75L299.093 1818.23L327.544 1768.46H385.045L413.458 1818.01L385.598 1866.75H327.314ZM318.008 1655.13L290.023 1704.52H232.238L203.765 1655.57L231.644 1606.37H290.046L318.008 1655.13ZM578.275 1756.1L604.666 1709.52L576.37 1660.18H519.154L490.973 1709.47L518.99 1758.33H576.999L578.275 1756.1ZM614.224 1703.85H672.662L700.446 1655.25L672.032 1605.7H613.867L586.963 1652.76L585.752 1654.9L614.224 1703.85ZM327.236 1758.33L299.093 1709.94L327.544 1660.18H385.045L413.458 1709.73L385.674 1758.33H327.236ZM318.008 1546.84L290.023 1596.23H232.238L203.765 1547.28L231.719 1497.95H289.97L318.008 1546.84ZM672.032 1713.99H613.867L586.968 1761.04L585.752 1763.19L614.302 1812.27H672.586L700.446 1763.54L672.032 1713.99ZM578.275 1647.81L604.666 1601.24L576.37 1551.89H519.154L490.973 1601.19L518.99 1650.04H576.999L578.275 1647.81ZM614.224 1595.57H672.662L700.446 1546.97L671.956 1497.28H613.943L586.965 1544.48L585.752 1546.62L614.224 1595.57ZM327.236 1650.04L299.093 1601.66L327.544 1551.89H385.045L413.458 1601.44L385.674 1650.04H327.236ZM578.275 1539.53L604.666 1492.95L576.294 1443.47H519.23L490.973 1492.9L518.99 1541.76H576.999L578.275 1539.53ZM481.202 1822.27L510.238 1872.19L482.59 1920.56H424.305L395.755 1871.47L423.633 1822.27H481.202ZM509.638 1654.59L481.724 1703.85H424.228L395.755 1654.9L423.633 1605.7H481.202L509.638 1654.59ZM509.638 1546.31L481.724 1595.57H424.228L395.755 1546.62L423.633 1497.42H481.202L509.638 1546.31ZM413.458 1493.16L385.674 1541.76H327.236L298.764 1492.81L326.717 1443.47H384.968L413.458 1493.16ZM509.853 1437.64L481.724 1487.28H424.228L395.755 1438.33L423.708 1389H481.96L509.853 1437.64Z" fill="#B5A89B"/>
<path fill-rule="evenodd" clip-rule="evenodd" d="M416.445 1381.54C417.332 1379.97 418.994 1379 420.795 1379H484.856C486.648 1379 488.302 1379.96 489.194 1381.51L518.99 1433.47H579.19C580.982 1433.47 582.636 1434.43 583.528 1435.99L612.943 1487.28H674.853C676.644 1487.28 678.299 1488.24 679.19 1489.8L710.545 1544.48C711.427 1546.02 711.429 1547.91 710.548 1549.45L680.97 1601.19L710.545 1652.76C711.427 1654.3 711.429 1656.19 710.548 1657.73L680.97 1709.47L710.545 1761.05C711.427 1762.59 711.429 1764.48 710.548 1766.02L679.828 1819.75C678.938 1821.31 677.281 1822.27 675.487 1822.27H613.867L584.165 1874.23C583.275 1875.79 581.618 1876.75 579.824 1876.75H519.154L489.831 1928.04C488.941 1929.6 487.284 1930.56 485.49 1930.56H421.429C419.648 1930.56 418.002 1929.61 417.107 1928.07L387.254 1876.75H324.438C322.657 1876.75 321.011 1875.8 320.116 1874.26L290.263 1822.94H229.439C227.659 1822.94 226.013 1821.99 225.117 1820.45L193.678 1766.4C192.784 1764.86 192.773 1762.97 193.65 1761.42L223.315 1709.07L193.678 1658.11C192.784 1656.58 192.773 1654.68 193.65 1653.13L223.315 1600.78L193.678 1549.83C192.784 1548.29 192.773 1546.4 193.65 1544.85L224.455 1490.48C225.343 1488.92 227.004 1487.95 228.805 1487.95H290.023L319.453 1436.01C320.341 1434.44 322.003 1433.47 323.803 1433.47H387.014L416.445 1381.54ZM424.228 1812.14H481.724L509.638 1762.88L481.202 1713.99H423.633L395.755 1763.19L424.228 1812.14ZM490.973 1817.76L519.066 1866.75H576.923L604.784 1818.01L576.37 1768.46H519.154L490.973 1817.76ZM289.948 1812.94L318.008 1763.41L290.046 1714.65H231.644L203.765 1763.85L232.315 1812.94H289.948ZM327.314 1866.75L299.093 1818.23L327.544 1768.46H385.045L413.458 1818.01L385.598 1866.75H327.314ZM318.008 1655.13L290.023 1704.52H232.238L203.765 1655.57L231.644 1606.37H290.046L318.008 1655.13ZM578.275 1756.1L604.666 1709.52L576.37 1660.18H519.154L490.973 1709.47L518.99 1758.33H576.999L578.275 1756.1ZM614.224 1703.85H672.662L700.446 1655.25L672.032 1605.7H613.867L586.963 1652.76L585.752 1654.9L614.224 1703.85ZM327.236 1758.33L299.093 1709.94L327.544 1660.18H385.045L413.458 1709.73L385.674 1758.33H327.236ZM318.008 1546.84L290.023 1596.23H232.238L203.765 1547.28L231.719 1497.95H289.97L318.008 1546.84ZM672.032 1713.99H613.867L586.968 1761.04L585.752 1763.19L614.302 1812.27H672.586L700.446 1763.54L672.032 1713.99ZM578.275 1647.81L604.666 1601.24L576.37 1551.89H519.154L490.973 1601.19L518.99 1650.04H576.999L578.275 1647.81ZM614.224 1595.57H672.662L700.446 1546.97L671.956 1497.28H613.943L586.965 1544.48L585.752 1546.62L614.224 1595.57ZM327.236 1650.04L299.093 1601.66L327.544 1551.89H385.045L413.458 1601.44L385.674 1650.04H327.236ZM578.275 1539.53L604.666 1492.95L576.294 1443.47H519.23L490.973 1492.9L518.99 1541.76H576.999L578.275 1539.53ZM481.202 1822.27L510.238 1872.19L482.59 1920.56H424.305L395.755 1871.47L423.633 1822.27H481.202ZM509.638 1654.59L481.724 1703.85H424.228L395.755 1654.9L423.633 1605.7H481.202L509.638 1654.59ZM509.638 1546.31L481.724 1595.57H424.228L395.755 1546.62L423.633 1497.42H481.202L509.638 1546.31ZM413.458 1493.16L385.674 1541.76H327.236L298.764 1492.81L326.717 1443.47H384.968L413.458 1493.16ZM509.853 1437.64L481.724 1487.28H424.228L395.755 1438.33L423.708 1389H481.96L509.853 1437.64Z" fill="#B5A89B"/>
<path d="M471.21 1681.68H433.944V1676.48L453.632 1654.61C456.548 1651.3 458.553 1648.62 459.647 1646.56C460.767 1644.48 461.327 1642.33 461.327 1640.12C461.327 1637.15 460.428 1634.71 458.632 1632.81C456.835 1630.91 454.439 1629.96 451.444 1629.96C447.85 1629.96 445.051 1630.99 443.046 1633.05C441.066 1635.08 440.077 1637.92 440.077 1641.56H432.85C432.85 1636.33 434.53 1632.1 437.889 1628.87C441.275 1625.64 445.793 1624.02 451.444 1624.02C456.731 1624.02 460.91 1625.42 463.983 1628.2C467.056 1630.96 468.593 1634.65 468.593 1639.26C468.593 1644.86 465.025 1651.52 457.889 1659.26L442.655 1675.78H471.21V1681.68Z" fill="black"/>
<path d="M367.452 1719.58H375.343V1725.48H367.452V1738.68H360.186V1725.48H334.288V1721.22L359.757 1681.8H367.452V1719.58ZM342.491 1719.58H360.186V1691.69L359.327 1693.25L342.491 1719.58Z" fill="black"/>
<path d="M554.452 1611.58H562.343V1617.48H554.452V1630.68H547.186V1617.48H521.288V1613.22L546.757 1573.8H554.452V1611.58ZM529.491 1611.58H547.186V1583.69L546.327 1585.25L529.491 1611.58Z" fill="black"/>
<path d="M269.773 1662.9H277.664V1668.8H269.773V1682H262.508V1668.8H236.609V1664.54L262.078 1625.12H269.773V1662.9ZM244.812 1662.9H262.508V1635.01L261.648 1636.57L244.812 1662.9Z" fill="black"/>
<path d="M276.21 1793.68H238.944V1788.48L258.632 1766.61C261.548 1763.3 263.553 1760.62 264.647 1758.56C265.767 1756.48 266.327 1754.33 266.327 1752.12C266.327 1749.15 265.428 1746.71 263.632 1744.81C261.835 1742.91 259.439 1741.96 256.444 1741.96C252.85 1741.96 250.051 1742.99 248.046 1745.05C246.066 1747.08 245.077 1749.92 245.077 1753.56H237.85C237.85 1748.33 239.53 1744.1 242.889 1740.87C246.275 1737.64 250.793 1736.02 256.444 1736.02C261.731 1736.02 265.91 1737.42 268.983 1740.2C272.056 1742.96 273.593 1746.65 273.593 1751.26C273.593 1756.86 270.025 1763.52 262.889 1771.26L247.655 1787.78H276.21V1793.68Z" fill="black"/>
<path d="M364.773 1826.9H372.664V1832.8H364.773V1846H357.508V1832.8H331.609V1828.54L357.078 1789.12H364.773V1826.9ZM339.812 1826.9H357.508V1799.01L356.648 1800.57L339.812 1826.9Z" fill="black"/>
<path d="M374.531 1631H337.266V1625.8L356.953 1603.93C359.87 1600.62 361.875 1597.94 362.969 1595.88C364.089 1593.8 364.648 1591.65 364.648 1589.44C364.648 1586.47 363.75 1584.03 361.953 1582.13C360.156 1580.23 357.76 1579.28 354.766 1579.28C351.172 1579.28 348.372 1580.31 346.367 1582.37C344.388 1584.4 343.398 1587.24 343.398 1590.88H336.172C336.172 1585.65 337.852 1581.42 341.211 1578.19C344.596 1574.96 349.115 1573.34 354.766 1573.34C360.052 1573.34 364.232 1574.74 367.305 1577.52C370.378 1580.28 371.914 1583.97 371.914 1588.58C371.914 1594.18 368.346 1600.84 361.211 1608.58L345.977 1625.1H374.531V1631Z" fill="black"/>
<path d="M472.21 1894.68H434.944V1889.48L454.632 1867.61C457.548 1864.3 459.553 1861.62 460.647 1859.56C461.767 1857.48 462.327 1855.33 462.327 1853.12C462.327 1850.15 461.428 1847.71 459.632 1845.81C457.835 1843.91 455.439 1842.96 452.444 1842.96C448.85 1842.96 446.051 1843.99 444.046 1846.05C442.066 1848.08 441.077 1850.92 441.077 1854.56H433.85C433.85 1849.33 435.53 1845.1 438.889 1841.87C442.275 1838.64 446.793 1837.02 452.444 1837.02C457.731 1837.02 461.91 1838.42 464.983 1841.2C468.056 1843.96 469.593 1847.65 469.593 1852.26C469.593 1857.86 466.025 1864.52 458.889 1872.26L443.655 1888.78H472.21V1894.68Z" fill="black"/>
<path d="M643.71 736.008C640.953 736.168 638.848 738.533 639.008 741.29L641.617 786.214C641.777 788.971 644.142 791.076 646.898 790.916C649.655 790.756 651.76 788.391 651.6 785.634L649.281 745.702L689.214 743.383C691.971 743.223 694.076 740.858 693.916 738.102C693.756 735.345 691.391 733.24 688.634 733.4L643.71 736.008ZM729.325 810.265L647.325 737.265L640.675 744.735L722.675 817.735L729.325 810.265Z" fill="black"/>
<path d="M983.536 605.464C981.583 603.512 978.417 603.512 976.464 605.464L944.645 637.284C942.692 639.237 942.692 642.403 944.645 644.355C946.597 646.308 949.763 646.308 951.716 644.355L980 616.071L1008.28 644.355C1010.24 646.308 1013.4 646.308 1015.36 644.355C1017.31 642.403 1017.31 639.237 1015.36 637.284L983.536 605.464ZM985 679V609H975V679H985Z" fill="black"/>
<path d="M639 1458.94C638.966 1461.7 641.177 1463.97 643.938 1464L688.935 1464.56C691.696 1464.59 693.962 1462.38 693.996 1459.62C694.03 1456.86 691.82 1454.59 689.058 1454.56L649.061 1454.06L649.555 1414.07C649.589 1411.3 647.378 1409.04 644.617 1409C641.856 1408.97 639.59 1411.18 639.556 1413.94L639 1458.94ZM722.508 1375.42L640.508 1455.42L647.492 1462.58L729.492 1382.58L722.508 1375.42Z" fill="black"/>
<path d="M1371 691.207C1371.11 688.448 1368.97 686.119 1366.21 686.004L1321.25 684.14C1318.49 684.025 1316.16 686.169 1316.04 688.928C1315.93 691.687 1318.07 694.017 1320.83 694.131L1360.8 695.789L1359.14 735.754C1359.03 738.513 1361.17 740.843 1363.93 740.957C1366.69 741.071 1369.02 738.928 1369.13 736.169L1371 691.207ZM1256.39 798.679L1369.39 694.679L1362.61 687.321L1249.61 791.321L1256.39 798.679Z" fill="black"/>
<path d="M976.464 1649.54C978.417 1651.49 981.583 1651.49 983.536 1649.54L1015.36 1617.72C1017.31 1615.76 1017.31 1612.6 1015.36 1610.64C1013.4 1608.69 1010.24 1608.69 1008.28 1610.64L980 1638.93L951.716 1610.64C949.763 1608.69 946.597 1608.69 944.645 1610.64C942.692 1612.6 942.692 1615.76 944.645 1617.72L976.464 1649.54ZM975 1529V1646H985V1529H975Z" fill="black"/>
<path d="M1351.5 1463.97C1354.25 1463.7 1356.25 1461.24 1355.97 1458.5L1351.45 1413.73C1351.17 1410.98 1348.72 1408.98 1345.97 1409.25C1343.22 1409.53 1341.22 1411.98 1341.5 1414.73L1345.52 1454.53L1305.73 1458.55C1302.98 1458.83 1300.98 1461.28 1301.25 1464.03C1301.53 1466.78 1303.98 1468.78 1306.73 1468.5L1351.5 1463.97ZM1249.84 1382.87L1347.84 1462.87L1354.16 1455.13L1256.16 1375.13L1249.84 1382.87Z" fill="black"/>
</svg>
